<ttFont>
<head>
    <!-- Most of this table will be recalculated by the compiler -->
    <tableVersion value="1.0"/>
    <fontRevision value="1.0"/>
    <checkSumAdjustment value="0xc797e192"/>
    <magicNumber value="0x5f0f3cf5"/>
    <flags value="00000000 00000011"/>
    <unitsPerEm value="2048"/>
    <created value="Thu Aug 15 19:14:50 2019"/>
    <modified value="Fri Aug 16 02:19:04 2019"/>
    <xMin value="-428"/>
    <yMin value="-540"/>
    <xMax value="3270"/>
    <yMax value="1973"/>
<macStyle value="00000000 00000010"/>
    <lowestRecPPEM value="3"/>
    <fontDirectionHint value="2"/>
    <indexToLocFormat value="0"/>
    <glyphDataFormat value="0"/>
  </head>
          <CharString index="0">
            143 119 95 175 62 vhcurveto
            -2 -4 -12 -63 -4 vvcurveto
            -129 -24 49 -66 108 hhcurveto
            return
          </CharString>
          <CharString index="1">
            rmoveto
            -226 113 -136 154 return
          </CharString>
          <CharString index="2">
            rmoveto
            457 311 388 445 382 -250 272 return
          </CharString>
          <CharString index="3">
            -387 -457 -311 -387 -445 return
          </CharString>
          <CharString index="4">
            -382 250 -273 387 return
          </CharString>
          <CharString index="5">
            rmoveto
            -40 callsubr
            40 callsubr
            endchar
          </CharString>
          <CharString index="6">
            94 106 45 63 46 hvcurveto
            12 56 rlineto
            -28 -16 callsubr
            171 799 0 callgsubr
            return
          </CharString>
          <CharString index="7">
            -79 callsubr
            -16 callsubr
            41 callsubr
            endchar
          </CharString>
          <CharString index="8">
            172 callsubr
            endchar
          </CharString>
          <CharString index="9">
            rmoveto
            331 207 275 312 253 113 callsubr
            72 callsubr
            hvcurveto
            4 71 rmoveto
            -106 -62 94 190 1 hvcurveto
            43 callsubr
            endchar
          </CharString>
          <CharString index="10">
            rmoveto
            -1014 hlineto
            -11 -54 123 -15 -25 callsubr
            1063 -30 callsubr
            endchar
          </CharString>
          <CharString index="11">
            rmoveto
            -381 -47 -11 -52 67 -13 rlineto
            50 -14 10 -18 -11 -51 return
          </CharString>
          <CharString index="12">
            -127 -596 rcurveline
            -154 -33 52 -70 return
          </CharString>
          <CharString index="13">
            63 47 hvcurveto
            12 56 rlineto
            -28 -32 -47 -13 return
          </CharString>
          <CharString index="14">
            1481 rmoveto
            -237 -365 return
          </CharString>
          <CharString index="15">
            119 hhcurveto
            95 106 45 return
          </CharString>
          <CharString index="16">
            rmoveto
            104 callgsubr
            return
          </CharString>
          <CharString index="17">
            -13 callsubr
            endchar
          </CharString>
          <CharString index="18">
            34 callsubr
            endchar
          </CharString>
          <CharString index="19">
            rmoveto
            330 212 215 350 79 hvcurveto
            145 646 34 150 24 33 128 20 rlinecurve
            11 54 -395 0 -11 -54 rlineto
            135 -21 10 -32 218 callsubr
            endchar
          </CharString>
          <CharString index="20">
            124 -14 13 -20 76 callsubr
            -131 -15 rlinecurve
            -11 -54 122 callsubr
            endchar
          </CharString>
          <CharString index="21">
            -100 -476 rcurveline
            20 callsubr
            return
          </CharString>
          <CharString index="22">
            rmoveto
            231 64 callgsubr
            return
          </CharString>
          <CharString index="23">
            -15 callsubr
            endchar
          </CharString>
          <CharString index="24">
            rmoveto
            69 54 52 65 -1 hvcurveto
            62 -49 47 -66 return
          </CharString>
          <CharString index="25">
            1823 rmoveto
            -206 -279 return
          </CharString>
          <CharString index="26">
            70 -85 callgsubr
            return
          </CharString>
          <CharString index="27">
            rmoveto
            -63 -50 -50 -61 -58 return
          </CharString>
          <CharString index="28">
            95 105 45 63 47 hvcurveto
            12 56 rlineto
            -28 return
          </CharString>
          <CharString index="29">
            1576 rmoveto
            62 51 49 62 58 -45 return
          </CharString>
          <CharString index="30">
            60 0 378 272 rlineto
            7 vlineto
            return
          </CharString>
          <CharString index="31">
            rmoveto
            -338 -46 -10 -52 61 -12 52 -12 14 -17 5 -53 rlinecurve
            86 -877 -122 -120 -191 -158 -135 -99 rlinecurve
            -13 240 vlineto
            95 129 90 114 88 111 56 68 57 71 50 65 290 381 130 248 -1 145 rrcurveto
            82 -56 53 -75 -73 -56 -53 -72 vhcurveto
            -68 1 55 -53 69 hhcurveto
            11 12 1 3 10 hvcurveto
            -44 -165 -120 -201 -191 -253 rrcurveto
            endchar
          </CharString>
          <CharString index="32">
            1495 rmoveto
            -256 -200 -164 200 -63 0 return
          </CharString>
          <CharString index="33">
            1843 rmoveto
            -224 -149 -155 149 return
          </CharString>
          <CharString index="34">
            180 342 -106 callsubr
            return
          </CharString>
          <CharString index="35">
            100 400 rlineto
            -48 hlineto
            return
          </CharString>
          <CharString index="36">
            rmoveto
            189 -533 -102 -479 -18 -88 -24 -21 -149 -15 rlinecurve
            -11 -54 585 0 12 54 -144 17 -48 callgsubr
            213 callsubr
            endchar
          </CharString>
          <CharString index="37">
            141 rlineto
            -543 hlineto
            return
          </CharString>
          <CharString index="38">
            -112 -524 -19 -92 -23 -20 -125 -14 78 callsubr
            106 callgsubr
            24 21 130 15 rlinecurve
            11 54 -542 0 221 callsubr
            -21 -91 -23 -22 -130 -15 rlinecurve
            -11 -54 return
          </CharString>
          <CharString index="39">
            rmoveto
            -370 hlineto
            -11 -54 117 -17 18 -43 -24 -109 rlinecurve
            -211 -958 -34 -157 -25 -34 -127 -18 rlinecurve
            -12 -54 398 0 11 54 -137 19 return
          </CharString>
          <CharString index="40">
            1176 rmoveto
            74 58 57 73 69 -52 52 -71 return
          </CharString>
          <CharString index="41">
            rmoveto
            505 hlineto
            27 127 rlineto
            -505 hlineto
            endchar
          </CharString>
          <CharString index="42">
            -31 -48 -13 -33 hhcurveto
            -46 -20 31 62 return
          </CharString>
          <CharString index="43">
            1823 -26 callgsubr
            return
          </CharString>
          <CharString index="44">
            1544 rmoveto
            226 148 return
          </CharString>
          <CharString index="45">
            1480 rmoveto
            -240 -9 hlineto
            return
          </CharString>
          <CharString index="46">
            -373 -47 68 callsubr
            return
          </CharString>
          <CharString index="47">
            1218 rmoveto
            543 hlineto
            return
          </CharString>
          <CharString index="48">
            -283 31 126 callsubr
            179 callsubr
            return
          </CharString>
          <CharString index="49">
            44 -46 61 62 51 50 62 58 -46 45 -59 hvcurveto
            endchar
          </CharString>
          <CharString index="50">
            -68 -55 -52 -66 vhcurveto
            -61 1 49 -47 66 hhcurveto
            endchar
          </CharString>
          <CharString index="51">
            -158 -745 -57 -267 -55 -140 return
          </CharString>
          <CharString index="52">
            126 593 rlineto
            148 callsubr
            return
          </CharString>
          <CharString index="53">
            rmoveto
            -62 -51 -50 -61 -58 45 -46 60 63 return
          </CharString>
          <CharString index="54">
            rmoveto
            57 -38 callgsubr
            132 return
          </CharString>
          <CharString index="55">
            42 callgsubr
            234 0 return
          </CharString>
          <CharString index="56">
            46 -60 -63 -82 callgsubr
            return
          </CharString>
          <CharString index="57">
            279 -356 rlineto
            60 hlineto
            return
          </CharString>
          <CharString index="58">
            rmoveto
            255 234 121 199 138 -87 93 -199 39 hvcurveto
            -175 34 -90 18 -26 30 -1 36 rlinecurve
            39 35 34 67 17 vhcurveto
            -7 34 36 -4 40 hhcurveto
            267 -1 156 168 199 vvcurveto
            77 -26 72 -54 55 vhcurveto
            231 -22 18 89 -320 -14 rlineto
            32 -58 -74 18 -91 hhcurveto
            -266 -157 -163 -201 -126 72 -110 139 -48 hvcurveto
            -159 -32 -73 -70 1 -91 rrcurveto
            -71 44 -59 93 -33 vhcurveto
            -197 -30 -118 -80 -109 vvcurveto
            -149 193 -88 256 vhcurveto
            -25 1053 rmoveto
            167 72 182 128 97 48 -88 -119 -168 -72 -181 -128 -97 -48 87 120 vhcurveto
            -239 -797 rmoveto
            87 63 63 125 35 vhcurveto
            3 -1 2 0 2 -1 169 -32 rcurveline
            143 -27 51 -53 -77 vvcurveto
            -110 -124 -73 -160 -163 -111 79 110 vhcurveto
            endchar
          </CharString>
          <CharString index="59">
            -11 31 30 165 callsubr
            35 127 17 26 callgsubr
            endchar
          </CharString>
          <CharString index="60">
            rmoveto
            453 239 350 324 210 124 -122 -269 8 vhcurveto
            48 -3 60 329 rlineto
            72 -91 -185 70 -219 hhcurveto
            -465 -327 -333 -485 -4 hvcurveto
            return
          </CharString>
          <CharString index="61">
            123 582 162 callsubr
            -119 -568 rlineto
            -209 -44 84 -121 171 hhcurveto
            return
          </CharString>
          <CharString index="62">
            rmoveto
            163 133 93 146 24 hvcurveto
            -59 hlineto
            -63 return
          </CharString>
          <CharString index="63">
            1183 rmoveto
            69 55 55 68 64 -49 50 -67 return
          </CharString>
          <CharString index="64">
            704 1485 93 callsubr
            return
          </CharString>
          <CharString index="65">
            9 callsubr
            63 0 return
          </CharString>
          <CharString index="66">
            rmoveto
            -431 -2 308 -243 353 hhcurveto
            174 187 51 77 101 hvcurveto
            86 402 18 86 20 22 118 15 rlinecurve
            12 53 -516 0 -11 -53 rlineto
            136 -17 11 -20 -18 -86 -84 -401 rcurveline
            -35 -45 -83 -18 -80 hhcurveto
            -242 -165 210 326 453 239 350 326 211 125 -122 -269 8 hvcurveto
            48 -3 60 329 rlineto
            73 -91 -186 69 -220 hhcurveto
            -466 -329 -333 -485 -3 hvcurveto
            endchar
          </CharString>
          <CharString index="67">
            -156 1193 -155 0 -654 -1172 -100 -178 -35 -30 -110 -15 rlinecurve
            -11 -54 406 0 11 54 -139 20 -15 34 88 166 rlinecurve
            121 229 456 0 28 -246 return
          </CharString>
          <CharString index="68">
            rmoveto
            93 76 54 109 23 hvcurveto
            -60 hlineto
            -46 -10 -32 -18 -44 hhcurveto
            -28 -27 7 12 -38 hvcurveto
            -29 10 rlineto
            13 -40 -40 10 -48 hhcurveto
            -92 -78 -55 -109 -22 hvcurveto
            return
          </CharString>
          <CharString index="69">
            rmoveto
            167 133 79 124 19 hvcurveto
            -60 hlineto
            -54 -16 -97 -35 -122 hhcurveto
            -120 -82 35 54 7 hvcurveto
            -61 hlineto
            -124 -34 100 -79 166 hhcurveto
            return
          </CharString>
          <CharString index="70">
            1295 1538 1444 rmoveto
            -1168 hlineto
            48 callsubr
            109 callsubr
            133 callsubr
            101 callsubr
            return
          </CharString>
          <CharString index="71">
            1480 rmoveto
            -216 -6 hlineto
            263 -359 rlineto
            66 hlineto
            241 365 rmoveto
            -206 -6 hlineto
            188 -359 rlineto
            return
          </CharString>
          <CharString index="72">
            51 577 638 11 52 -699 0 -84 -307 rlineto
            47 hlineto
            104 43 27 17 95 hhcurveto
            339 hlineto
            return
          </CharString>
          <CharString index="73">
            hhcurveto
            124 124 78 179 87 hvcurveto
            -37 31 rlineto
            -84 -50 -57 -29 -58 hhcurveto
            -78 -57 23 68 return
          </CharString>
          <CharString index="74">
            40 -54 hhcurveto
            -8 hlineto
            -53 -51 -40 -54 -10 hvcurveto
            -52 -12 30 callgsubr
            -52 -51 -40 -54 return
          </CharString>
          <CharString index="75">
            1170 rmoveto
            78 62 60 77 72 -55 55 -75 -77 -62 -61 -77 -71 55 -55 74 hvcurveto
            return
          </CharString>
          <CharString index="76">
            107 426 rlineto
            -49 hlineto
            -116 -273 -106 -72 -233 -11 rrcurveto
            -198 -7 return
          </CharString>
          <CharString index="77">
            0 -72 callsubr
            212 callsubr
            57 -50 10 -230 rlinecurve
            47 hlineto
            return
          </CharString>
          <CharString index="78">
            rmoveto
            291 104 247 -104 74 callsubr
            -289 -193 rlineto
            return
          </CharString>
          <CharString index="79">
            156 callsubr
            242 -12 rmoveto
            50 callgsubr
            return
          </CharString>
          <CharString index="80">
            rmoveto
            -338 -83 callgsubr
            196 callsubr
            endchar
          </CharString>
          <CharString index="81">
            -171 -804 234 0 153 callsubr
            endchar
          </CharString>
          <CharString index="82">
            14 -19 76 callsubr
            -131 -15 rlinecurve
            -11 -54 return
          </CharString>
          <CharString index="83">
            rmoveto
            505 hlineto
            26 127 rlineto
            -505 hlineto
            endchar
          </CharString>
          <CharString index="84">
            1560 826 38 callsubr
            return
          </CharString>
          <CharString index="85">
            157 -148 57 0 -126 279 return
          </CharString>
          <CharString index="86">
            52 callsubr
            -289 -163 rlineto
            return
          </CharString>
          <CharString index="87">
            68 -13 rlineto
            49 -13 10 -19 -11 -51 return
          </CharString>
          <CharString index="88">
            51 50 62 58 -46 45 -60 hvcurveto
            endchar
          </CharString>
          <CharString index="89">
            rmoveto
            237 181 154 -181 return
          </CharString>
          <CharString index="90">
            1822 rmoveto
            -210 -6 hlineto
            return
          </CharString>
          <CharString index="91">
            -32 -47 -13 -15 callsubr
            return
          </CharString>
          <CharString index="92">
            -33 hhcurveto
            -47 -19 31 62 13 hvcurveto
            return
          </CharString>
          <CharString index="93">
            180 80 callsubr
            return
          </CharString>
          <CharString index="94">
            -101 -36 75 130 28 hvcurveto
            return
          </CharString>
          <CharString index="95">
            rmoveto
            69 115 callsubr
            return
          </CharString>
          <CharString index="96">
            rmoveto
            62 50 49 62 58 -45 return
          </CharString>
          <CharString index="97">
            rmoveto
            113 -1193 150 0 587 1150 92 -1150 153 0 605 1170 95 184 40 26 110 15 rlinecurve
            11 54 -401 0 -11 -54 133 -18 10 -35 -81 -168 rlinecurve
            -442 -910 -61 926 -11 159 17 28 131 18 rlinecurve
            12 54 -532 0 -12 -54 131 -20 10 -38 -77 -158 rlinecurve
            -441 -915 -67 928 -11 147 22 38 136 18 rlinecurve
            12 54 -555 0 -11 -54 93 -14 35 -27 15 -161 rlinecurve
            endchar
          </CharString>
          <CharString index="98">
            rmoveto
            114 534 131 0 280 -714 328 0 11 51 -63 22 -40 43 -85 211 rlinecurve
            -222 564 311 281 162 145 69 52 114 21 rlinecurve
            11 54 -433 0 -11 -54 137 -15 0 -49 -121 -119 rlinecurve
            -436 -427 -129 -1 103 485 19 91 23 21 121 14 rlinecurve
            11 54 -535 0 62 callsubr
            1 callgsubr
            endchar
          </CharString>
          <CharString index="99">
            255 1202 20 90 23 19 137 16 rlinecurve
            11 54 -551 0 -11 -54 rlineto
            123 -14 13 -22 -20 -97 -230 -1077 rcurveline
            -18 -90 -22 -20 -130 -16 -12 -54 rcurveline
            return
          </CharString>
          <CharString index="100">
            1148 596 999 -91 callsubr
            -100 -476 rcurveline
            return
          </CharString>
          <CharString index="101">
            57 47 46 59 61 callsubr
            vhcurveto
            -55 -1 43 -42 56 hhcurveto
            return
          </CharString>
          <CharString index="102">
            rmoveto
            137 131 62 91 65 hvcurveto
            12 58 rlineto
            149 callsubr
            -278 180 -140 199 hvcurveto
            endchar
          </CharString>
          <CharString index="103">
            -55 -68 -64 49 -50 -103 callgsubr
            -49 50 -67 27 callsubr
            return
          </CharString>
          <CharString index="104">
            -437 -3 298 -237 353 hhcurveto
            178 158 callsubr
          </CharString>
          <CharString index="105">
            1136 1063 hmoveto
            -31 callsubr
            -8 callsubr
            return
          </CharString>
          <CharString index="106">
            -36 hvcurveto
            -9 -41 rlineto
            21 28 38 13 44 hhcurveto
            63 33 -26 -43 -50 return
          </CharString>
          <CharString index="107">
            hlineto
            -85 -47 callgsubr
            22 rlineto
            28 -36 -36 17 -45 hhcurveto
            -78 return
          </CharString>
          <CharString index="108">
            -112 -267 -109 -49 -297 37 callsubr
            endchar
          </CharString>
          <CharString index="109">
            1544 rmoveto
            227 148 156 -148 57 0 return
          </CharString>
          <CharString index="110">
            -60 0 126 -279 135 0 241 279 rlineto
            return
          </CharString>
          <CharString index="111">
            -185 -83 rlinecurve
            17 -48 322 -30 callgsubr
          </CharString>
          <CharString index="112">
            -127 365 -146 0 -279 -365 rlineto
            return
          </CharString>
          <CharString index="113">
            -126 279 -133 0 -242 -279 rlineto
            return
          </CharString>
          <CharString index="114">
            145 90 75 105 103 -77 67 -118 4 hvcurveto
            return
          </CharString>
          <CharString index="115">
            127 -364 146 0 279 364 rlineto
            return
          </CharString>
          <CharString index="116">
            1116 rmoveto
            256 201 164 -201 return
          </CharString>
          <CharString index="117">
            652 491 180 -85 callsubr
            return
          </CharString>
          <CharString index="118">
            34 -50 hhcurveto
            -9 hlineto
            -50 -47 -34 -44 -10 hvcurveto
            return
          </CharString>
          <CharString index="119">
            rmoveto
            538 hlineto
            24 114 rlineto
            -538 hlineto
            return
          </CharString>
          <CharString index="120">
            1488 rmoveto
            -89 -76 -41 -63 -42 hvcurveto
            return
          </CharString>
          <CharString index="121">
            677 445 -17 97 callsubr
            return
          </CharString>
          <CharString index="122">
            -69 -54 -52 -66 -61 50 -47 66 vhcurveto
            endchar
          </CharString>
          <CharString index="123">
            rmoveto
            52 51 40 52 11 hvcurveto
            54 11 return
          </CharString>
          <CharString index="124">
            1863 rmoveto
            -78 -67 -35 -52 return
          </CharString>
          <CharString index="125">
            1582 rmoveto
            58 47 46 59 return
          </CharString>
          <CharString index="126">
            1511 55 callsubr
            return
          </CharString>
          <CharString index="127">
            -213 -46 -62 callgsubr
            return
          </CharString>
          <CharString index="128">
            -134 0 -241 -279 rlineto
            return
          </CharString>
          <CharString index="129">
            41 -27 -48 -49 -44 -29 -65 -49 return
          </CharString>
          <CharString index="130">
            259 -273 rlineto
            50 hlineto
            return
          </CharString>
          <CharString index="131">
            50 -14 10 -18 -11 -51 rlinecurve
            return
          </CharString>
          <CharString index="132">
            47 34 45 9 hvcurveto
            44 10 return
          </CharString>
          <CharString index="133">
            -69 -56 -55 -68 -64 50 -50 return
          </CharString>
          <CharString index="134">
            26 callsubr
            66 hvcurveto
            return
          </CharString>
          <CharString index="135">
            rmoveto
            51 25 callsubr
            return
          </CharString>
          <CharString index="136">
            rmoveto
            -148 -179 -48 -29 -112 -15 rrcurveto
            -11 -54 414 0 12 54 -139 21 0 34 117 153 rlinecurve
            293 381 162 -417 44 -111 -12 -38 -137 -23 rlinecurve
            -12 -54 560 0 12 54 -86 23 -34 25 -50 127 rlinecurve
            -206 529 345 414 143 173 48 30 112 15 rlinecurve
            11 54 -414 0 -11 -54 138 -21 1 -34 -117 -153 rlinecurve
            -279 -362 -155 398 -47 117 16 35 136 20 rlinecurve
            11 54 -563 0 -12 -54 rlineto
            93 -21 31 -27 49 -126 199 -512 rcurveline
            endchar
          </CharString>
          <CharString index="137">
            302 hlineto
            10 51 rlineto
            -67 20 -36 44 -80 209 -136 363 rcurveline
            214 57 157 126 211 vvcurveto
            228 -187 135 -337 vhcurveto
            -511 hlineto
            -11 -54 123 -15 15 -18 -20 -92 rlinecurve
            -231 -1086 -20 -92 -21 -18 -131 -15 rlinecurve
            -11 -54 537 0 11 54 rlineto
            -116 14 -14 20 20 91 99 469 rcurveline
            116 hlineto
            28 29 1 2 27 hvcurveto
            344 429 rmoveto
            -224 -159 -133 -265 -9 vhcurveto
            -107 -4 144 671 95 -3 rlineto
            187 -7 105 -111 -180 vvcurveto
            return
          </CharString>
          <CharString index="138">
            rmoveto
            -381 250 -272 388 456 311 387 446 266 -125 209 -200 104 vhcurveto
            -6 36 41 -4 44 hhcurveto
            176 149 72 143 84 -49 74 -66 37 hvcurveto
            -50 hlineto
            8 -17 4 -28 -29 vvcurveto
            -149 -105 -126 -184 vhcurveto
            -108 -72 23 -136 hhcurveto
            -457 -311 -387 -446 hvcurveto
            273 -88 rmoveto
            406 202 438 312 -90 callgsubr
            -92 callgsubr
            -209 -136 166 323 vhcurveto
            endchar
          </CharString>
          <CharString index="139">
            12 54 rlineto
            -143 15 -15 27 18 87 84 391 rcurveline
            134 hlineto
            371 323 145 324 234 -172 167 -375 hvcurveto
            -497 hlineto
            -12 -54 rlineto
            125 -15 15 -21 -20 -91 -231 -1082 rcurveline
            -20 -90 -22 -22 -131 -15 -11 -54 rcurveline
            694 1381 rmoveto
            87 -3 rlineto
            199 -8 106 -120 -188 vvcurveto
            -258 -173 -155 -278 -10 vhcurveto
            -100 -3 rlineto
            endchar
          </CharString>
          <CharString index="140">
            rmoveto
            -404 hlineto
            -11 -54 115 -16 18 -37 -28 -112 rlinecurve
            -233 -969 -36 -148 -28 -35 -131 -19 rlinecurve
            -11 -54 397 0 11 54 -131 19 -11 33 33 150 rlinecurve
            215 992 194 -1248 114 0 160 297 541 957 -199 -1077 -17 -88 -23 -19 -131 -16 78 callsubr
            -122 -8 callgsubr
            endchar
          </CharString>
          <CharString index="141">
            rmoveto
            138 128 62 91 66 hvcurveto
            12 58 rlineto
            159 callsubr
            -274 175 -142 201 vhcurveto
            140 958 rmoveto
            70 30 -42 -73 -141 -125 -118 -198 -62 hvcurveto
            -50 -16 rlineto
            243 16 108 209 149 hhcurveto
            return
          </CharString>
          <CharString index="142">
            716 1444 -68 callsubr
            -11 31 30 165 callsubr
            35 127 17 26 callgsubr
            return
          </CharString>
          <CharString index="143">
            -33 34 -50 hhcurveto
            -8 hlineto
            -51 -46 -34 -44 -10 hvcurveto
            -45 -10 32 -34 51 hhcurveto
            315 hmoveto
            51 46 34 45 10 hvcurveto
            44 10 -32 34 -51 hhcurveto
            -8 hlineto
            -51 -46 -34 -44 -11 hvcurveto
            -45 -9 32 -34 51 hhcurveto
            return
          </CharString>
          <CharString index="144">
            -12 rrcurveto
            -268 -9 1013 1330 10 51 -984 0 -91 -362 rlineto
            49 hlineto
            98 221 79 55 260 12 rrcurveto
            281 11 -1012 -1330 -10 -51 rlineto
            return
          </CharString>
          <CharString index="145">
            rmoveto
            376 -282 242 -448 vhcurveto
            -469 142 callsubr
            65 callsubr
            -131 -15 -11 -54 rcurveline
            501 hlineto
            569 436 331 495 hvcurveto
            return
          </CharString>
          <CharString index="146">
            -100 -476 rcurveline
            -213 -45 81 -105 callgsubr
            182 73 hvcurveto
            -3 -16 -73 -3 vvcurveto
            -130 -24 49 -66 108 hhcurveto
            194 callsubr
            endchar
          </CharString>
          <CharString index="147">
            16 -144 -28 -41 -139 -18 rlinecurve
            -11 -54 563 0 -28 callgsubr
            -711 319 rmoveto
            337 635 72 -635 rlineto
            return
          </CharString>
          <CharString index="148">
            169 787 -124 0 -108 -98 rlineto
            60 -26 -73 57 -129 -73 callgsubr
            53 callgsubr
            return
          </CharString>
          <CharString index="149">
            1168 rmoveto
            93 70 68 216 27 hvcurveto
            -60 hlineto
            -106 -19 -28 -35 -43 hhcurveto
            -30 -24 15 28 -34 hvcurveto
            return
          </CharString>
          <CharString index="150">
            263 2 96 338 194 hhcurveto
            107 61 -94 -190 -1 hvcurveto
            -263 -1 -97 -338 -194 hhcurveto
            return
          </CharString>
          <CharString index="151">
            rmoveto
            211 9 158 146 190 vvcurveto
            110 -61 65 -83 -91 -56 -80 -92 -2 vhcurveto
            77 return
          </CharString>
          <CharString index="152">
            -10 -50 rlineto
            1 3 19 2 7 hhcurveto
            68 41 -31 -51 -48 55 callgsubr
            endchar
          </CharString>
          <CharString index="153">
            70 -23 90 -34 callsubr
            -113 hvcurveto
            -85 -35 callsubr
            endchar
          </CharString>
          <CharString index="154">
            14 25 -31 hvcurveto
            -31 24 rlineto
            32 -40 -39 19 -50 hhcurveto
            -86 -66 -61 -193 return
          </CharString>
          <CharString index="155">
            -89 -362 rlineto
            49 hlineto
            90 222 82 61 261 14 rrcurveto
            51 2 return
          </CharString>
          <CharString index="156">
            rmoveto
            -434 -93 245 -191 310 hhcurveto
            193 callsubr
            endchar
          </CharString>
          <CharString index="157">
            -54 -24 -43 -37 hvcurveto
            -11 77 callsubr
            55 40 -27 -48 -49 return
          </CharString>
          <CharString index="158">
            hvcurveto
            59 hlineto
            105 19 28 34 43 hhcurveto
            30 24 -14 -28 34 hvcurveto
            return
          </CharString>
          <CharString index="159">
            rmoveto
            294 88 257 -88 10 49 -220 163 -42 0 return
          </CharString>
          <CharString index="160">
            rmoveto
            215 1012 19 91 22 20 130 14 rlinecurve
            11 54 return
          </CharString>
          <CharString index="161">
            hhcurveto
            26 26 -7 -15 36 hvcurveto
            28 -11 rlineto
            -16 39 38 -11 return
          </CharString>
          <CharString index="162">
            rmoveto
            -141 -373 80 0 297 365 rlineto
            8 vlineto
            return
          </CharString>
          <CharString index="163">
            55 -41 43 -56 -58 -48 -46 -60 -55 42 -42 56 hvcurveto
            return
          </CharString>
          <CharString index="164">
            45 -46 60 62 51 50 62 58 -46 45 -59 hvcurveto
            endchar
          </CharString>
          <CharString index="165">
            -63 -128 -27 hvcurveto
            59 hlineto
            54 13 31 22 44 hhcurveto
            return
          </CharString>
          <CharString index="166">
            -125 279 -134 0 -242 -279 rlineto
            return
          </CharString>
          <CharString index="167">
            rmoveto
            72 callsubr
            201 callsubr
            endchar
          </CharString>
          <CharString index="168">
            1 hvcurveto
            55 -42 43 -56 -58 -47 -46 -60 return
          </CharString>
          <CharString index="169">
            -11 -54 124 -15 13 -19 -19 -92 rlinecurve
            return
          </CharString>
          <CharString index="170">
            -45 -10 32 -34 51 hhcurveto
            316 hmoveto
            50 return
          </CharString>
          <CharString index="171">
            rmoveto
            142 93 67 107 104 -77 62 -89 return
          </CharString>
          <CharString index="172">
            -231 -1084 rcurveline
            -20 -91 -21 -20 return
          </CharString>
          <CharString index="173">
            70 0 429 356 rlineto
            9 vlineto
            return
          </CharString>
          <CharString index="174">
            59 0 -120 328 -136 0 return
          </CharString>
          <CharString index="175">
            -12 -52 68 -13 24 callsubr
            return
          </CharString>
          <CharString index="176">
            -49 rlineto
            25 31 44 16 48 hhcurveto
            71 return
          </CharString>
          <CharString index="177">
            -63 -129 -27 hvcurveto
            60 hlineto
            55 12 return
          </CharString>
          <CharString index="178">
            1843 rmoveto
            -225 -149 return
          </CharString>
          <CharString index="179">
            -253 155 -187 249 return
          </CharString>
          <CharString index="180">
            136 0 240 279 rlineto
            return
          </CharString>
          <CharString index="181">
            12 57 -208 193 -41 0 return
          </CharString>
          <CharString index="182">
            0 -127 -31 callgsubr
            return
          </CharString>
          <CharString index="183">
            -19 -92 rlinecurve
            -91 callgsubr
            return
          </CharString>
          <CharString index="184">
            -46 rlineto
            5 15 27 4 25 hhcurveto
            return
          </CharString>
          <CharString index="185">
            rlinecurve
            -11 -54 541 0 11 54 return
          </CharString>
          <CharString index="186">
            rmoveto
            -381 -47 -12 -52 68 -13 return
          </CharString>
          <CharString index="187">
            rmoveto
            112 524 636 0 return
          </CharString>
          <CharString index="188">
            rmoveto
            -66 47 -51 71 83 58 53 196 110 vhcurveto
            80 139 45 -143 rlineto
            -172 55 58 -71 115 hhcurveto
            92 73 45 62 37 hvcurveto
            12 56 rlineto
            -23 -23 -33 -15 -33 hhcurveto
            -52 -41 34 135 -42 hvcurveto
            -85 268 108 177 39 64 31 45 26 32 rlinecurve
            -54 10 46 -39 56 hhcurveto
            66 51 53 66 67 -48 50 -70 -83 -60 -52 -196 -109 hvcurveto
            -83 -149 -122 389 -315 -45 -10 -52 65 -11 53 -11 15 -17 18 -56 rlinecurve
            118 -372 -104 -169 -40 -64 -30 -45 -26 -31 rlinecurve
            53 -10 -46 40 -57 hhcurveto
            -65 -51 -54 -66 hvcurveto
            endchar
          </CharString>
          <CharString index="189">
            rmoveto
            283 246 163 275 158 -75 120 -176 120 hvcurveto
            -101 72 rlineto
            -136 92 -50 79 102 vvcurveto
            143 108 91 162 184 110 -125 -240 10 vhcurveto
            47 hlineto
            51 329 rlineto
            62 -76 -150 51 -183 hhcurveto
            -307 -198 -165 -246 -157 85 -116 169 -115 hvcurveto
            101 -72 rlineto
            137 -93 47 -84 -112 vvcurveto
            -162 -135 -94 -159 -192 -142 116 250 -5 vhcurveto
            -48 hlineto
            -54 -332 rlineto
            -61 84 192 -49 171 hhcurveto
            return
          </CharString>
          <CharString index="190">
            rmoveto
            271 229 235 394 68 hvcurveto
            254 41 -76 143 -137 hhcurveto
            -88 -68 -77 -115 10 hvcurveto
            154 -37 58 -142 -32 -185 rrcurveto
            -213 -38 -113 -138 -161 hhcurveto
            -138 -52 89 162 34 hvcurveto
            10 49 70 288 11 57 rrcurveto
            178 38 -65 76 -143 hhcurveto
            -81 -79 -28 -35 -46 hvcurveto
            -11 -53 rlineto
            9 16 19 5 23 hhcurveto
            70 38 -40 -112 -23 hvcurveto
            -16 -75 -69 -293 -10 -47 rrcurveto
            -207 -44 92 -142 238 hhcurveto
            endchar
          </CharString>
          <CharString index="191">
            rmoveto
            -58 66 125 -42 133 hhcurveto
            225 161 130 177 hvcurveto
            1 119 -50 84 -123 82 -78 53 rcurveline
            -86 57 -34 47 70 vvcurveto
            83 56 55 102 138 64 -115 -142 -1 vhcurveto
            48 hlineto
            51 251 rlineto
            43 -60 -103 32 -137 hhcurveto
            -230 -142 -121 -170 -111 58 -87 118 -77 hvcurveto
            77 -53 rlineto
            90 -61 28 -52 -75 vvcurveto
            -96 -70 -53 -103 -132 -95 99 186 -2 vhcurveto
            -48 hlineto
            return
          </CharString>
          <CharString index="192">
            1648 933 -26 rmoveto
            422 348 339 473 372 -286 313 -395 -426 -344 -339 -473 -372 282 -313 399 hvcurveto
            -1 53 rmoveto
            -360 -260 288 344 447 326 313 384 356 265 -290 -343 -447 -330 -312 -381 hvcurveto
            return
          </CharString>
          <CharString index="193">
            rmoveto
            171 -138 137 -247 21 vhcurveto
            221 19 227 97 2 224 rrcurveto
            198 2 -180 129 -353 hhcurveto
            -491 142 callsubr
            65 callsubr
            199 callsubr
            endchar
          </CharString>
          <CharString index="194">
            1471 772 -24 rmoveto
            330 212 215 350 79 hvcurveto
            145 646 34 150 24 33 128 20 rlinecurve
            11 54 -395 0 -11 -54 rlineto
            135 -21 10 -32 218 callsubr
            return
          </CharString>
          <CharString index="195">
            692 1445 rmoveto
            -61 hlineto
            -244 -97 -8 -40 117 22 6 1 3 -3 -1 -5 rlinecurve
            -110 -517 -11 -53 -27 -12 -95 -10 rlinecurve
            -8 -39 396 0 8 39 -90 10 -23 12 12 54 rlinecurve
            return
          </CharString>
          <CharString index="196">
            rmoveto
            -140 -708 rlineto
            -198 -39 77 -101 163 hhcurveto
            119 106 61 64 62 hvcurveto
            10 51 rlineto
            -32 -38 -58 -11 -54 hhcurveto
            -102 -48 54 149 34 hvcurveto
            21 86 121 505 21 80 rrcurveto
            endchar
          </CharString>
          <CharString index="197">
            -543 0 -11 -54 123 -14 14 -20 -19 -91 rlinecurve
            -209 -986 -74 -343 -100 -136 -230 -146 rlinecurve
            15 -46 363 151 200 149 74 345 rlinecurve
            endchar
          </CharString>
          <CharString index="198">
            557 679 rmoveto
            239 121 246 206 1 hvcurveto
            167 1 -83 160 121 callsubr
            -169 -1 84 -158 177 hhcurveto
            return
          </CharString>
          <CharString index="199">
            22 -54 hhcurveto
            -92 -72 -68 -215 -26 hvcurveto
            60 hlineto
            105 19 28 34 43 hhcurveto
            30 24 -14 -28 34 hvcurveto
            32 -27 rlineto
            -34 43 42 -23 54 hhcurveto
            return
          </CharString>
          <CharString index="200">
            rmoveto
            -380 -41 -11 -52 67 -14 rlineto
            50 -13 11 -19 -11 -51 -232 -1087 rcurveline
            -154 -33 52 -70 118 hhcurveto
            29 callgsubr
            return
          </CharString>
          <CharString index="201">
            -33 40 -53 hhcurveto
            -8 hlineto
            -53 -51 -40 -54 -11 hvcurveto
            -52 -11 30 callgsubr
            -53 -50 -40 -54 -12 hvcurveto
            -52 -11 33 -40 53 hhcurveto
            endchar
          </CharString>
          <CharString index="202">
            1162 608 999 rmoveto
            -61 callsubr
            -171 -804 234 0 153 callsubr
            return
          </CharString>
          <CharString index="203">
            -18 -96 -42 -118 hhcurveto
            -118 -80 42 63 10 hvcurveto
            -59 hlineto
            -146 -39 94 -93 163 hhcurveto
            endchar
          </CharString>
          <CharString index="204">
            rmoveto
            107 108 46 76 50 hvcurveto
            11 56 rlineto
            -35 -34 -53 -22 -60 hhcurveto
            -94 -44 59 143 31 hvcurveto
            return
          </CharString>
          <CharString index="205">
            60 hlineto
            46 11 31 19 45 hhcurveto
            27 27 -6 -13 38 hvcurveto
            29 -10 rlineto
            -13 41 39 -10 48 hhcurveto
            return
          </CharString>
          <CharString index="206">
            1821 rmoveto
            551 hlineto
            20 96 rlineto
            -551 hlineto
            41 -359 28 callsubr
            return
          </CharString>
          <CharString index="207">
            1468 rmoveto
            -184 -111 -134 -206 -8 hvcurveto
            56 hlineto
            111 22 78 66 return
          </CharString>
          <CharString index="208">
            88 rlinecurve
            255 1203 51 -2 249 -14 61 -53 -1 -230 rlinecurve
            49 hlineto
            return
          </CharString>
          <CharString index="209">
            1153 rmoveto
            155 143 86 184 58 hvcurveto
            -58 21 rlineto
            -155 -52 return
          </CharString>
          <CharString index="210">
            -32 34 -51 hhcurveto
            -8 hlineto
            -50 -47 -34 -44 -10 hvcurveto
            -45 -10 33 -34 50 hhcurveto
            endchar
          </CharString>
          <CharString index="211">
            312 hmoveto
            58 47 46 -102 callgsubr
            -46 -60 -55 42 -42 56 hvcurveto
            return
          </CharString>
          <CharString index="212">
            58 47 47 59 55 -41 43 -56 -58 -48 -47 -59 -55 42 -43 56 hvcurveto
            return
          </CharString>
          <CharString index="213">
            rmoveto
            87 1 65 60 23 195 rrcurveto
            -55 hlineto
            -95 -17 -26 -32 -40 hhcurveto
            return
          </CharString>
          <CharString index="214">
            239 121 246 207 1 hvcurveto
            167 1 -83 160 return
          </CharString>
          <CharString index="215">
            15 27 4 25 hhcurveto
            54 22 callsubr
            -68 callgsubr
          </CharString>
          <CharString index="216">
            -256 -1203 -18 -88 -24 -20 -150 -16 rlinecurve
            -11 -54 return
          </CharString>
          <CharString index="217">
            77 55 109 22 hvcurveto
            -60 hlineto
            -46 -10 -32 -19 -45 hhcurveto
            -27 return
          </CharString>
          <CharString index="218">
            1621 rmoveto
            490 hlineto
            26 123 rlineto
            -489 hlineto
            return
          </CharString>
          <CharString index="219">
            1474 rmoveto
            32 149 -577 -185 -12 -56 rlineto
            return
          </CharString>
          <CharString index="220">
            -155 186 -249 -332 -206 -274 -312 return
          </CharString>
          <CharString index="221">
            127 162 107 86 120 113 -105 67 -126 return
          </CharString>
          <CharString index="222">
            54 52 65 hvcurveto
            62 -1 -49 47 -66 hhcurveto
            -68 -55 -52 -66 return
          </CharString>
          <CharString index="223">
            -9 -50 rlineto
            1 2 20 2 7 hhcurveto
            68 41 -31 -51 -48 return
          </CharString>
          <CharString index="224">
            -21 -44 hhcurveto
            -26 -27 8 14 -36 hvcurveto
            -28 12 rlineto
            16 -38 return
          </CharString>
          <CharString index="225">
            -59 0 125 -279 135 0 241 279 rlineto
            return
          </CharString>
          <CharString index="226">
            rmoveto
            -171 -804 234 0 188 callsubr
            endchar
          </CharString>
          <CharString index="227">
            1176 rmoveto
            74 59 57 73 69 -53 52 -71 -73 return
          </CharString>
          <CharString index="228">
            -179 hhcurveto
            -236 -123 -240 -212 -1 hvcurveto
            return
          </CharString>
          <CharString index="229">
            544 0 11 54 -124 15 -13 19 19 92 rlinecurve
            return
          </CharString>
          <CharString index="230">
            77 62 60 77 72 -55 55 -75 -77 -62 -61 -77 -71 return
          </CharString>
          <CharString index="231">
            45 -46 60 62 51 50 62 58 -45 45 -60 hvcurveto
            endchar
          </CharString>
          <CharString index="232">
            -14 52 -44 -73 vvcurveto
            -89 -85 -65 -108 -11 vhcurveto
            endchar
          </CharString>
          <CharString index="233">
            rmoveto
            -405 -248 -365 -468 -21 vhcurveto
            -94 -3 return
          </CharString>
          <CharString index="234">
            1588 rmoveto
            79 1 59 55 21 179 rrcurveto
            return
          </CharString>
          <CharString index="235">
            1144 rmoveto
            184 111 134 206 return
          </CharString>
          <CharString index="236">
            127 -364 145 0 280 364 rlineto
            return
          </CharString>
          <CharString index="237">
            15 rlinecurve
            12 54 -541 0 -11 -54 120 -15 return
          </CharString>
          <CharString index="238">
            -45 45 -60 -62 -51 -49 -62 -58 45 -45 60 hvcurveto
            return
          </CharString>
          <CharString index="239">
            1876 rmoveto
            -167 -99 -117 -178 return
          </CharString>
          <CharString index="240">
            587 0 11 54 -144 17 -15 19 19 return
          </CharString>
          <CharString index="241">
            328 -135 0 -258 -328 rlineto
            endchar
          </CharString>
          <CharString index="242">
            80 65 63 81 77 -63 63 -81 -80 -65 -63 return
          </CharString>
          <CharString index="243">
            46 -60 -62 -51 -50 -62 -58 45 -45 61 hvcurveto
            return
          </CharString>
          <CharString index="244">
            36 -32 -50 -59 -58 -59 -100 -57 hvcurveto
            69 hlineto
            return
          </CharString>
          <CharString index="245">
            rmoveto
            141 93 67 107 104 -77 62 -88 -67 return
          </CharString>
          <CharString index="246">
            rmoveto
            91 77 63 129 26 hvcurveto
            -58 hlineto
            -55 return
          </CharString>
          <CharString index="247">
            rmoveto
            28 128 -585 -158 -10 -48 rlineto
            return
          </CharString>
          <CharString index="248">
            rmoveto
            28 127 -585 -157 -10 -48 rlineto
            return
          </CharString>
          <CharString index="249">
            hlineto
            -11 -54 rlineto
            123 -15 14 -19 -19 -92 return
          </CharString>
          <CharString index="250">
            rmoveto
            -63 52 -48 63 65 52 51 61 51 -33 41 -44 14 vhcurveto
            21 42 52 14 59 hhcurveto
            185 46 -140 -177 -26 hvcurveto
            -9 -59 -156 -16 rlineto
            -311 -32 -162 -108 -184 vvcurveto
            -135 112 -95 163 166 122 96 208 51 vhcurveto
            -200 34 145 -104 175 hhcurveto
            142 122 62 89 68 hvcurveto
            11 57 rlineto
            -54 -57 -79 -39 -89 hhcurveto
            -170 -82 131 212 18 0 18 1 18 hvcurveto
            70 5 378 28 135 117 1 145 rlinecurve
            141 2 -127 78 -172 hhcurveto
            -123 -118 -52 -96 -94 hvcurveto
            95 -55 -105 53 -149 hhcurveto
            -201 -152 -97 -125 hvcurveto
            988 153 rmoveto
            81 36 -61 -75 -3 hvcurveto
            -3 -108 -79 -114 -243 -24 -61 -6 rcurveline
            218 27 107 170 138 hhcurveto
            -881 -693 rmoveto
            124 93 88 198 24 vhcurveto
            97 11 -13 -80 rlineto
            -227 -38 -88 -85 -109 hhcurveto
            -81 -59 49 96 hvcurveto
            endchar
          </CharString>
          <CharString index="251">
            rmoveto
            -959 hlineto
            -832 -1188 -112 -160 -43 -28 -111 -14 rlinecurve
            -12 -54 420 0 11 54 -143 19 -8 34 101 149 rlinecurve
            241 356 431 0 -82 -418 -20 -105 -13 -19 -147 -16 rlinecurve
            -11 -54 1061 0 102 400 rlineto
            -47 hlineto
            -105 -253 -98 -62 -271 -13 rrcurveto
            -223 -9 123 642 216 -3 108 -3 20 -43 -5 -160 rlinecurve
            46 hlineto
            99 476 rlineto
            -47 hlineto
            -61 -156 -37 -37 -108 -3 rrcurveto
            -217 -3 117 608 205 -9 250 -12 40 -50 14 -228 rlinecurve
            47 hlineto
            -871 294 rmoveto
            65 hlineto
            -135 -690 rlineto
            -397 hlineto
            endchar
          </CharString>
          <CharString index="252">
            rmoveto
            226 -113 135 -154 -142 -117 -92 -172 -63 vhcurveto
            56 257 -374 -47 -11 -52 68 -13 24 callsubr
            -236 -1111 -13 -62 -21 -16 -118 -20 rlinecurve
            -11 -55 529 0 12 55 rlineto
            -140 22 -17 14 13 65 80 378 rcurveline
            -48 30 67 -46 113 -72 callgsubr
            -107 -337 -214 -77 -53 39 46 -13 vhcurveto
            98 460 rlineto
            180 43 95 101 94 hhcurveto
            85 49 -66 -167 hvcurveto
            endchar
          </CharString>
          <CharString index="253">
            1338 493 180 rmoveto
            114 534 131 0 280 -714 328 0 11 51 -63 22 -40 43 -85 211 rlinecurve
            -222 564 311 281 162 145 69 52 114 21 rlinecurve
            11 54 -433 0 -11 -54 137 -15 0 -49 -121 -119 rlinecurve
            -436 -427 -129 -1 103 485 19 91 23 21 121 14 rlinecurve
            11 54 -535 0 62 callsubr
            1 callgsubr
            return
          </CharString>
          <CharString index="254">
            rmoveto
            91 68 43 63 37 hvcurveto
            11 56 rlineto
            -23 -22 -29 -14 -30 hhcurveto
            -52 -39 39 146 -51 hvcurveto
            -124 358 144 114 157 123 68 33 92 19 rlinecurve
            9 46 -401 0 -9 -46 122 -14 10 -32 -115 -100 rlinecurve
            -349 -301 212 991 -52 callsubr
            90 422 105 83 87 -261 rlineto
            -179 59 64 -81 112 hhcurveto
            return
          </CharString>
          <CharString index="255">
            177 43 122 121 107 95 callgsubr
            52 -70 118 hhcurveto
            96 106 45 63 47 hvcurveto
            11 56 rlineto
            -28 -31 -47 -13 -34 hhcurveto
            -47 -19 31 62 14 hvcurveto
            101 474 rlineto
            213 46 -87 119 -184 hhcurveto
            -151 -137 -93 -201 -79 hvcurveto
            return
          </CharString>
          <CharString index="256">
            -61 -61 -90 -33 -78 hhcurveto
            -149 -104 115 209 269 125 242 198 44 37 -12 -20 29 hvcurveto
            -62 -4 -49 -50 -63 vvcurveto
            -65 51 -51 66 69 54 53 69 122 -101 96 -176 -1 vhcurveto
            -295 -232 -259 -349 return
          </CharString>
          <CharString index="257">
            rmoveto
            -370 -47 -11 -52 68 -13 24 callsubr
            -172 -804 235 0 133 654 rlineto
            97 65 110 64 117 hhcurveto
            39 32 -6 -8 19 hvcurveto
            12 17 12 34 34 vvcurveto
            68 -34 46 -65 -90 -73 -75 -221 -138 vhcurveto
            return
          </CharString>
          <CharString index="258">
            rmoveto
            215 1012 20 91 21 20 130 14 rlinecurve
            12 54 -543 0 -12 -54 124 -14 13 -20 -18 -91 rlinecurve
            -210 -986 -73 -343 -100 -136 -231 -146 rlinecurve
            15 -46 364 151 199 149 74 345 rlinecurve
            return
          </CharString>
          <CharString index="259">
            rmoveto
            92 76 63 129 27 hvcurveto
            -59 hlineto
            -55 -12 -32 -21 -43 hhcurveto
            -26 -27 8 14 -36 hvcurveto
            -28 12 rlineto
            16 -38 -40 11 -46 hhcurveto
            -90 -78 70 callsubr
            31 20 45 54 callsubr
            46 hhcurveto
            endchar
          </CharString>
          <CharString index="260">
            124 585 rlineto
            175 42 116 131 115 95 callgsubr
            6 callgsubr
            101 474 rlineto
            213 46 -87 119 -184 hhcurveto
            -159 -132 -103 -190 -75 hvcurveto
            return
          </CharString>
          <CharString index="261">
            rmoveto
            163 106 66 90 70 hvcurveto
            12 56 rlineto
            -72 -76 -98 -35 -111 hhcurveto
            -110 -77 51 85 88 44 54 147 58 hvcurveto
            50 21 rlineto
            169 63 114 77 170 vvcurveto
            162 return
          </CharString>
          <CharString index="262">
            -196 -679 rmoveto
            90 hlineto
            1230 1444 rlineto
            -91 hlineto
            -1033 -712 rmoveto
            -57 -36 51 136 -1 hvcurveto
            33 callgsubr
            823 -746 -13 callgsubr
            return
          </CharString>
          <CharString index="263">
            14 hvcurveto
            272 1285 -379 -41 -12 -52 68 -14 rlineto
            50 -13 10 -19 -11 -51 -81 -381 rcurveline
            48 -30 -66 44 -113 hhcurveto
            -308 -205 -318 -346 hvcurveto
            return
          </CharString>
          <CharString index="264">
            13 64 -262 0 40 179 -238 -19 -34 -160 -154 0 -13 -64 153 0 -261 -1227 234 0 126 593 rlineto
            return
          </CharString>
          <CharString index="265">
            156 42 65 90 hvcurveto
            71 335 rlineto
            -49 hlineto
            -233 -92 -152 -133 -182 hhcurveto
            -232 -158 227 309 hvcurveto
            endchar
          </CharString>
          <CharString index="266">
            -61 -62 -88 -33 -80 hhcurveto
            -145 -104 46 callgsubr
            126 -111 79 -170 -286 -241 -263 -347 return
          </CharString>
          <CharString index="267">
            1790 rmoveto
            51 46 34 45 10 hvcurveto
            45 10 -32 33 -51 hhcurveto
            -8 hlineto
            -51 -46 -33 -45 -10 hvcurveto
            -45 -10 return
          </CharString>
          <CharString index="268">
            1144 rmoveto
            184 112 134 206 8 hvcurveto
            -57 hlineto
            -111 -21 -79 -66 -139 hhcurveto
            -111 return
          </CharString>
          <CharString index="269">
            257 -7 18 86 -260 -12 51 241 -243 -37 -42 -199 -143 -30 -10 -49 135 0 return
          </CharString>
          <CharString index="270">
            1588 rmoveto
            78 1 60 55 21 179 rrcurveto
            -53 hlineto
            -85 -47 callgsubr
            22 rlineto
            28 -36 return
          </CharString>
          <CharString index="271">
            -181 -158 -214 hhcurveto
            -227 -147 148 352 75 hvcurveto
            142 664 21 96 24 return
          </CharString>
          <CharString index="272">
            159 rlinecurve
            191 969 573 -1232 162 0 261 1186 33 152 25 return
          </CharString>
          <CharString index="273">
            61 hlineto
            46 10 31 19 45 hhcurveto
            27 28 -6 -13 37 hvcurveto
            29 -10 rlineto
            -13 41 40 -10 47 hhcurveto
            endchar
          </CharString>
          <CharString index="274">
            53 74 9 1 11 2 8 hvcurveto
            -53 hlineto
            -11 -27 -7 -33 -30 vvcurveto
            -118 1 94 -88 137 hhcurveto
            return
          </CharString>
          <CharString index="275">
            40 53 11 hvcurveto
            52 11 -33 41 -53 hhcurveto
            -9 hlineto
            -52 -51 -41 -52 -11 hvcurveto
            -53 -11 33 -40 53 hhcurveto
            return
          </CharString>
          <CharString index="276">
            1580 rmoveto
            167 100 116 179 6 hvcurveto
            -54 hlineto
            -96 -18 -71 -58 -125 hhcurveto
            -100 return
          </CharString>
          <CharString index="277">
            -162 -108 -86 -119 vhcurveto
            155 -24 rmoveto
            93 52 78 62 49 29 -39 callgsubr
            return
          </CharString>
          <CharString index="278">
            -60 -56 -177 -20 hvcurveto
            52 -33 callgsubr
            28 hvcurveto
            26 -21 rlineto
            -28 36 35 -18 45 hhcurveto
            return
          </CharString>
          <CharString index="279">
            hvcurveto
            -20 77 rmoveto
            -208 -137 167 322 406 202 438 76 callgsubr
            return
          </CharString>
          <CharString index="280">
            466 1264 rmoveto
            -231 -1084 rlineto
            -20 -94 -24 -17 -127 -15 -11 -54 rcurveline
            return
          </CharString>
          <CharString index="281">
            -1 vhcurveto
            -55 42 -42 56 vhcurveto
            313 hmoveto
            58 47 46 59 56 callsubr
            return
          </CharString>
          <CharString index="282">
            -43 -29 -65 -49 -41 20 20 -27 hvcurveto
            -11 -48 rlineto
            -43 34 64 -32 76 hhcurveto
            endchar
          </CharString>
          <CharString index="283">
            -52 -51 -88 -49 hvcurveto
            59 hlineto
            141 47 81 62 80 vvcurveto
            71 -62 53 -95 vhcurveto
            return
          </CharString>
          <CharString index="284">
            -66 -140 hhcurveto
            -111 -75 61 84 11 1 13 2 8 hvcurveto
            -57 hlineto
            -12 -31 return
          </CharString>
          <CharString index="285">
            1429 rmoveto
            538 hlineto
            24 113 rlineto
            -538 hlineto
            14 -422 rmoveto
            return
          </CharString>
          <CharString index="286">
            280 1318 78 -3 rlineto
            308 -17 144 -221 -283 vvcurveto
            return
          </CharString>
          <CharString index="287">
            -38 -32 -65 -52 -49 18 27 -31 hvcurveto
            -12 -52 rlineto
            -51 41 65 -37 88 hhcurveto
            return
          </CharString>
          <CharString index="288">
            1407 rmoveto
            92 76 -80 callgsubr
            -36 hvcurveto
            -28 12 rlineto
            16 return
          </CharString>
          <CharString index="289">
            -462 rmoveto
            145 90 75 105 103 -77 67 -119 4 hvcurveto
            93 107 return
          </CharString>
          <CharString index="290">
            rmoveto
            -236 -20 118 -166 208 hhcurveto
            148 109 101 166 60 hvcurveto
            -172 3 119 -95 160 hhcurveto
            274 183 268 328 23 hvcurveto
            271 19 -114 159 -141 hhcurveto
            -92 -65 -80 -114 13 hvcurveto
            165 -35 106 -137 -14 -207 rrcurveto
            -186 -10 -109 -155 -139 hhcurveto
            -137 -79 105 283 63 hvcurveto
            50 232 -222 0 -54 -258 rlineto
            -267 -57 -62 -95 -108 hhcurveto
            -104 -57 95 193 15 hvcurveto
            17 262 110 222 170 95 rrcurveto
            -23 37 -316 -77 -189 -257 -21 -280 rlinecurve
            endchar
          </CharString>
          <CharString index="291">
            168 -49 148 -88 112 hvcurveto
            162 162 -48 48 -159 -160 rlineto
            111 -111 -156 64 -188 hhcurveto
            -457 -311 -387 -445 -169 49 -148 88 -111 hvcurveto
            -163 -163 48 -48 160 160 rlineto
            -110 110 157 -65 189 hhcurveto
            -365 565 rmoveto
            406 202 438 312 142 109 -77 -151 55 vhcurveto
            -802 -802 rlineto
            -12 55 -6 62 69 vvcurveto
            345 -489 rmoveto
            -142 -109 77 152 -55 hvcurveto
            802 802 rlineto
            12 -55 6 -62 -69 vvcurveto
            -92 callgsubr
            vhcurveto
            endchar
          </CharString>
          <CharString index="292">
            rmoveto
            144 117 89 183 111 hvcurveto
            -200 14 60 -66 119 hhcurveto
            75 80 47 45 37 hvcurveto
            11 52 rlineto
            -13 -17 -32 -11 -27 hhcurveto
            -82 -30 25 228 -32 hvcurveto
            -15 102 305 526 rlineto
            -247 hlineto
            -18 -70 -46 -134 -43 -116 rrcurveto
            237 -26 -83 102 -179 hhcurveto
            -258 -207 -253 -350 -22 hvcurveto
            -254 -23 98 -169 216 hhcurveto
            -44 465 rmoveto
            310 21 102 174 130 hhcurveto
            108 19 -111 -356 25 hvcurveto
            5 -92 rlineto
            -196 -89 -87 -77 -95 hhcurveto
            -107 -52 112 236 20 hvcurveto
            endchar
          </CharString>
          <CharString index="293">
            rmoveto
            330 204 276 311 105 -27 94 -49 73 hvcurveto
            112 113 -46 45 -106 -107 rlineto
            72 -69 -98 43 -118 hhcurveto
            -330 -204 -276 -311 -106 28 -95 50 -74 hvcurveto
            -107 -108 46 -45 102 103 rlineto
            -71 69 96 -42 117 hhcurveto
            -165 356 rmoveto
            264 1 97 336 196 hhcurveto
            84 56 -58 -117 21 hvcurveto
            -455 -459 rlineto
            11 -1 12 1 11 vhcurveto
            169 -286 rmoveto
            -83 -56 56 114 -21 hvcurveto
            454 457 rlineto
            -9 0 -10 -9 vvcurveto
            -264 -1 -98 -335 -195 hhcurveto
            endchar
          </CharString>
          <CharString index="294">
            rmoveto
            218 168 83 128 93 hvcurveto
            11 57 rlineto
            -77 -72 -144 -58 -144 hhcurveto
            -145 -84 61 102 4 hvcurveto
            118 3 110 58 231 hhcurveto
            64 hlineto
            1 161 rlineto
            -70 hlineto
            -209 -62 64 92 5 hvcurveto
            100 6 84 67 166 hhcurveto
            91 69 -18 -30 46 hvcurveto
            -55 -8 -33 -50 -50 vvcurveto
            -55 44 -51 68 62 50 48 69 112 -88 103 -270 -308 -148 -131 -159 -6 vhcurveto
            -7 -114 72 -92 156 -27 -200 -20 -121 -89 -7 -143 rrcurveto
            -149 -9 129 -102 231 hhcurveto
            endchar
          </CharString>
          <CharString index="295">
            125 586 rlineto
            174 41 109 131 110 hhcurveto
            93 33 -77 -112 -24 hvcurveto
            -149 -702 234 0 124 584 rlineto
            175 41 108 132 111 hhcurveto
            92 34 -77 -119 -25 hvcurveto
            -104 -487 rlineto
            -154 -33 6 callgsubr
            102 476 rlineto
            214 46 -89 116 -179 hhcurveto
            -152 -134 -110 -189 -65 hvcurveto
            1 1 7 27 1 vvcurveto
            167 22 -80 103 -170 hhcurveto
            -152 -127 -98 -195 -72 hvcurveto
            61 286 -61 callsubr
            return
          </CharString>
          <CharString index="296">
            rmoveto
            -18 -99 -136 -27 -10 -49 133 0 -162 -952 -45 -258 -62 -73 -101 -4 rlinecurve
            28 19 19 33 38 vvcurveto
            62 -48 47 -59 -59 -49 -47 -64 -90 73 -71 119 202 171 161 493 86 vhcurveto
            125 714 226 -8 20 87 -236 -11 29 166 rlineto
            221 38 64 79 92 5 5 -1 5 hhcurveto
            -31 -19 -22 -35 -40 vvcurveto
            -63 49 -48 59 62 51 49 64 94 -84 72 -143 -197 -144 -146 -294 -55 vhcurveto
            endchar
          </CharString>
          <CharString index="297">
            690 1255 rmoveto
            2 -117 -158 -30 -109 -12 -8 -44 rcurveline
            2 11 17 2 20 hhcurveto
            112 61 -64 -81 hvcurveto
            -108 1 -78 -68 -96 hhcurveto
            -43 -36 11 17 -27 hvcurveto
            28 9 18 26 30 vvcurveto
            39 -29 32 -41 -41 -32 -31 -42 -88 109 -59 119 157 152 88 155 vhcurveto
            -1 92 -66 74 -110 24 107 13 121 59 -2 109 callgsubr
            -126 -43 vhcurveto
            32 -14 rlineto
            73 38 56 36 71 hhcurveto
            80 47 -49 -58 1 hvcurveto
            return
          </CharString>
          <CharString index="298">
            246 hlineto
            124 605 rlineto
            185 41 102 101 117 hhcurveto
            96 62 -71 -175 -36 hvcurveto
            -37 -182 -144 -653 -61 -270 rrcurveto
            245 hlineto
            19 86 195 941 20 101 rrcurveto
            228 47 -105 110 -187 hhcurveto
            -177 -119 -117 -146 -55 hvcurveto
            191 31 -74 64 -119 hhcurveto
            -79 -73 -28 -31 -49 hvcurveto
            -11 -52 rlineto
            7 17 21 4 25 hhcurveto
            68 40 -40 -125 -23 hvcurveto
            -31 -161 -91 -390 -45 -182 rrcurveto
            endchar
          </CharString>
          <CharString index="299">
            rmoveto
            -79 60 -61 92 171 124 116 329 230 vhcurveto
            545 785 94 136 42 32 121 18 rlinecurve
            11 54 -416 0 -11 -54 154 -16 -4 -30 -87 -133 rlinecurve
            -436 -666 -168 686 -31 126 1 16 170 17 rlinecurve
            11 54 -593 0 -11 -54 114 -18 26 -20 32 -115 rlinecurve
            261 -945 -82 -114 -76 -78 -83 -37 rlinecurve
            8 17 5 19 21 vvcurveto
            75 -59 58 -75 -78 -62 -62 -77 vhcurveto
            endchar
          </CharString>
          <CharString index="300">
            330 213 216 349 78 hvcurveto
            194 870 rlineto
            -2 16 17 -2 19 hhcurveto
            147 1 102 72 124 vvcurveto
            80 -46 71 -62 36 vhcurveto
            -50 hlineto
            8 -17 4 -28 -28 vvcurveto
            -153 -111 -121 -204 vhcurveto
            -82 hlineto
            -12 -54 rlineto
            135 -21 10 -32 -30 -143 -131 -641 rcurveline
            -304 -63 164 callsubr
            21 135 18 rlinecurve
            11 54 -544 0 -11 -54 115 -18 16 -21 -21 -96 rlinecurve
            return
          </CharString>
          <CharString index="301">
            92 108 44 58 49 hvcurveto
            12 56 rlineto
            -28 -34 -50 -12 -31 hhcurveto
            -46 -20 30 64 13 hvcurveto
            162 757 rlineto
            -1 11 11 -1 12 hhcurveto
            115 93 63 117 78 -46 68 -66 35 hvcurveto
            -48 hlineto
            7 -16 5 -28 -29 vvcurveto
            -145 -94 -99 -257 -33 vhcurveto
            -113 -15 -11 -48 66 -14 rlineto
            49 -14 10 -18 -11 -51 -89 -420 rcurveline
            -165 -40 -101 -119 -122 hhcurveto
            -102 -36 75 130 29 hvcurveto
            return
          </CharString>
          <CharString index="302">
            540 hlineto
            12 54 -117 14 -18 19 19 93 rlinecurve
            9 39 836 876 -195 -915 -20 -94 -21 -17 -128 -15 rlinecurve
            -11 -54 540 0 12 54 -119 14 -19 19 20 93 rlinecurve
            231 1084 19 94 25 17 126 130 callsubr
            15 -17 -20 -94 rlinecurve
            -9 -45 -836 -876 195 921 20 93 24 18 125 130 callsubr
            67 callgsubr
            endchar
          </CharString>
          <CharString index="303">
            13 -17 5 -51 72 -814 rcurveline
            138 hlineto
            169 239 126 232 57 168 47 -639 rcurveline
            136 hlineto
            285 328 232 374 172 vvcurveto
            84 -54 53 -75 -75 -56 -52 -72 -68 55 -54 69 9 9 1 2 8 vhcurveto
            -53 -190 -132 -213 -155 -194 rrcurveto
            -59 832 -216 -35 9 -114 -4 -190 -138 -256 -126 -218 rlinecurve
            return
          </CharString>
          <CharString index="304">
            rmoveto
            226 -113 135 -153 -141 -116 -90 -169 -63 vhcurveto
            164 738 -380 -41 -12 -52 69 -14 50 -13 9 -19 -11 -51 rlinecurve
            -275 -1295 124 0 108 98 rlineto
            -60 26 72 -58 129 -72 callgsubr
            -106 -337 -214 -77 -54 39 46 -13 vhcurveto
            98 460 rlineto
            180 43 96 101 93 hhcurveto
            85 50 -66 -167 -1 hvcurveto
            return
          </CharString>
          <CharString index="305">
            rmoveto
            87 79 51 59 36 hvcurveto
            11 58 rlineto
            -25 -33 -29 -12 -30 hhcurveto
            -47 -35 28 82 -42 hvcurveto
            -208 387 112 112 69 70 45 48 36 32 rlinecurve
            -64 4 48 -48 67 hhcurveto
            66 54 53 69 65 -45 57 -80 -88 -62 -64 -162 -151 hvcurveto
            -257 -280 107 499 27 callgsubr
            106 495 180 -329 rlineto
            -135 66 51 -47 97 hhcurveto
            endchar
          </CharString>
          <CharString index="306">
            -130 -15 -11 -54 rcurveline
            515 hlineto
            463 285 173 275 hvcurveto
            -199 668 rmoveto
            -181 -127 -140 -226 -1 vhcurveto
            -145 -1 126 588 95 -3 rlineto
            184 -6 93 -95 -161 vvcurveto
            -77 -672 rmoveto
            -211 -148 -156 -331 -12 vhcurveto
            -96 -2 141 668 145 -2 rlineto
            186 -2 103 -116 -167 vvcurveto
            return
          </CharString>
          <CharString index="307">
            rmoveto
            79 68 37 52 34 hvcurveto
            11 53 rlineto
            -18 -20 -28 -12 -30 hhcurveto
            -62 -43 56 91 68 26 74 44 58 hvcurveto
            314 16 194 267 303 vvcurveto
            253 113 callsubr
            -241 140 -181 228 -17 vhcurveto
            -123 -85 -72 -103 -103 vvcurveto
            -98 74 -70 108 vhcurveto
            53 529 rmoveto
            -106 -62 94 190 1 hvcurveto
            43 callsubr
            endchar
          </CharString>
          <CharString index="308">
            331 207 274 311 168 -71 142 -133 73 vhcurveto
            -12 45 54 -8 53 hhcurveto
            179 122 71 133 79 -46 70 -64 35 hvcurveto
            -48 hlineto
            6 -16 6 -28 -29 vvcurveto
            -140 -104 -115 -172 vhcurveto
            -73 -59 19 -90 hhcurveto
            -333 -214 -260 -327 hvcurveto
            241 -85 rmoveto
            43 callsubr
            -106 -62 94 190 1 hvcurveto
            return
          </CharString>
          <CharString index="309">
            rmoveto
            -262 hlineto
            -9 -39 66 233 callsubr
            -71 -10 rlinecurve
            -9 -39 226 0 9 39 -72 10 -6 17 17 110 callgsubr
            245 411 -96 -528 -8 -45 -13 -10 -72 -9 rlinecurve
            -8 -40 330 0 9 40 -67 9 -8 9 8 46 rlinecurve
            100 544 8 44 13 11 72 9 rlinecurve
            8 40 -275 0 -289 -525 rlineto
            return
          </CharString>
          <CharString index="310">
            1794 rmoveto
            93 77 54 109 23 hvcurveto
            -61 hlineto
            -46 -10 -31 -19 -46 hhcurveto
            -27 -27 7 12 -37 hvcurveto
            -29 11 rlineto
            13 -40 -41 10 -47 hhcurveto
            -93 -77 -55 -109 -23 hvcurveto
            60 hlineto
            46 12 31 18 44 hhcurveto
            28 27 -6 -12 37 hvcurveto
            30 -10 rlineto
            -14 40 40 -9 47 hhcurveto
            -173 -258 -38 callsubr
            return
          </CharString>
          <CharString index="311">
            1310 485 rmoveto
            226 -186 149 -351 2 vhcurveto
            -138 1 85 403 19 90 25 18 134 16 rlinecurve
            11 54 -550 0 -11 -54 rlineto
            120 -15 17 -18 -19 -93 -231 -1085 rcurveline
            -20 -91 -21 -18 -130 -16 -11 -54 rcurveline
            545 hlineto
            432 280 195 290 hvcurveto
            return
          </CharString>
          <CharString index="312">
            -130 -15 rlinecurve
            -12 -54 567 0 12 54 -144 17 -16 19 18 88 rlinecurve
            111 521 206 -2 103 -4 20 -42 -5 -163 rlinecurve
            45 hlineto
            101 475 rlineto
            -46 hlineto
            -62 -157 -37 -37 -105 -3 rrcurveto
            -207 -3 131 618 189 -7 232 -11 60 -52 9 -229 rlinecurve
            48 hlineto
            endchar
          </CharString>
          <CharString index="313">
            156 -1193 155 0 653 1170 101 180 35 30 110 15 rlinecurve
            11 54 -405 0 -11 -54 137 -20 17 -34 -90 -169 rlinecurve
            -495 -933 -108 953 -16 144 28 41 138 18 rlinecurve
            11 54 -563 0 -11 -54 95 -14 31 -28 21 -160 rlinecurve
            return
          </CharString>
          <CharString index="314">
            rmoveto
            333 201 276 310 253 -157 187 -249 -333 -200 -276 -309 -253 157 -188 248 hvcurveto
            3 71 rmoveto
            -109 -58 95 190 hvcurveto
            264 1 104 336 185 hhcurveto
            108 59 -95 -190 hvcurveto
            -264 -2 -103 -336 -185 hhcurveto
            endchar
          </CharString>
          <CharString index="315">
            rmoveto
            31 141 -388 0 198 126 rlineto
            198 129 75 71 116 vvcurveto
            115 -1 -96 67 -120 hhcurveto
            -136 -95 -76 -118 -44 hvcurveto
            31 -15 rlineto
            75 38 56 38 71 hhcurveto
            82 48 -49 -73 1 hvcurveto
            1 -91 -60 -72 -162 -129 rrcurveto
            -189 -150 -22 -105 rlineto
            endchar
          </CharString>
          <CharString index="316">
            256 -225 rmoveto
            124 89 38 58 12 hvcurveto
            58 12 -72 38 -124 hhcurveto
            -57 hlineto
            -122 -90 -38 -58 -13 hvcurveto
            -58 -12 74 -38 122 hhcurveto
            59 43 rmoveto
            -42 hlineto
            -42 -20 21 32 7 hvcurveto
            32 6 30 21 42 hhcurveto
            42 hlineto
            44 18 -21 -32 -6 hvcurveto
            -32 -6 -29 -21 -44 hhcurveto
            return
          </CharString>
          <CharString index="317">
            -11 -51 -83 -394 rcurveline
            -284 -60 139 84 callgsubr
            -169 90 -213 -66 -61 -10 -11 -39 hvcurveto
            -56 -268 rmoveto
            43 204 rlineto
            8 32 42 7 42 hhcurveto
            135 71 -75 -139 -163 -92 -132 -133 -133 -45 115 175 38 hvcurveto
            endchar
          </CharString>
          <CharString index="318">
            19 93 23 17 129 16 rlinecurve
            11 54 -540 0 -12 -54 117 -41 callgsubr
            -541 0 255 1196 19 93 21 18 126 14 rlinecurve
            11 54 -535 0 -11 -54 116 -13 18 -20 -20 -92 rlinecurve
            -254 -1196 -542 0 return
          </CharString>
          <CharString index="319">
            -108 -263 -91 -55 -281 -11 rrcurveto
            -222 -8 137 645 226 -3 108 -3 19 -43 -4 -162 rlinecurve
            46 hlineto
            101 475 rlineto
            -46 hlineto
            -63 -158 -38 -37 -109 -4 rrcurveto
            -227 -2 130 610 209 -8 242 -11 return
          </CharString>
          <CharString index="320">
            138 177 38 29 106 16 rlinecurve
            11 54 -392 0 -12 -54 133 -17 5 -39 -119 -161 rlinecurve
            -325 -444 -152 464 -46 139 17 41 136 17 rlinecurve
            11 54 -556 0 -11 -54 92 -15 28 -26 57 -159 rlinecurve
            return
          </CharString>
          <CharString index="321">
            1312 1318 448 rmoveto
            171 -138 137 -247 21 vhcurveto
            221 19 227 97 2 224 rrcurveto
            198 2 -180 129 -353 hhcurveto
            -491 142 callsubr
            65 callsubr
            199 callsubr
            return
          </CharString>
          <CharString index="322">
            -242 -31 -122 -579 rlineto
            -166 -41 -111 -128 -119 hhcurveto
            -95 -26 78 123 26 hvcurveto
            150 703 -242 -30 -123 -585 rlineto
            -164 -41 -111 -125 -118 hhcurveto
            -94 -26 78 123 26 hvcurveto
            148 return
          </CharString>
          <CharString index="323">
            -364 227 -264 357 -24 hvcurveto
            -132 -87 -80 -104 -103 vvcurveto
            -97 79 -68 110 vhcurveto
            57 533 rmoveto
            -208 -137 166 323 406 202 438 312 -90 callgsubr
            -92 callgsubr
            hvcurveto
            endchar
          </CharString>
          <CharString index="324">
            12 -17 5 -51 75 -814 rcurveline
            139 hlineto
            302 341 230 363 172 vvcurveto
            82 -56 53 -74 -73 -56 -52 -72 -68 55 -54 69 10 9 1 2 9 vhcurveto
            -55 -185 -137 -211 -163 -201 rrcurveto
            return
          </CharString>
          <CharString index="325">
            -29 -150 -129 -633 rcurveline
            -305 -62 164 callsubr
            20 129 19 rlinecurve
            11 54 -533 0 -11 -54 rlineto
            110 -18 15 -21 -20 -96 -139 -654 rcurveline
            -434 -92 245 -191 310 hhcurveto
            return
          </CharString>
          <CharString index="326">
            -40 hvcurveto
            -10 -46 rlineto
            15 25 45 14 45 hhcurveto
            61 31 -27 -41 -10 hvcurveto
            -8 -41 -38 -27 -73 -19 rrcurveto
            40 -36 127 28 77 42 19 83 rlinecurve
            82 17 -72 46 -93 hhcurveto
            -571 -511 rmoveto
            292 104 246 -104 return
          </CharString>
          <CharString index="327">
            -477 rmoveto
            80 70 34 46 40 hvcurveto
            12 53 rlineto
            -18 -28 -33 -11 -35 hhcurveto
            -60 -40 30 66 80 52 91 158 95 hvcurveto
            73 43 -58 0 -82 -43 rlineto
            -237 -130 -81 -89 -100 vvcurveto
            -89 71 -58 98 vhcurveto
            endchar
          </CharString>
          <CharString index="328">
            -11 -54 119 -14 15 -20 -20 -92 rlinecurve
            -104 -491 -637 0 105 491 19 91 26 20 123 15 rlinecurve
            11 54 -541 0 -11 -54 123 -15 15 -22 -19 -91 rlinecurve
            -230 -1080 return
          </CharString>
          <CharString index="329">
            1917 rmoveto
            -75 57 callgsubr
            -8 hvcurveto
            -7 -35 -37 -23 -70 -17 rrcurveto
            40 -30 123 24 75 36 15 70 rlinecurve
            70 15 -72 40 -91 hhcurveto
            -596 -419 -21 callsubr
            return
          </CharString>
          <CharString index="330">
            1002 230 296 rmoveto
            59 -43 109 -38 137 -6 rrcurveto
            -45 -209 52 0 44 208 rlineto
            248 4 164 126 179 vvcurveto
            114 -60 88 -145 85 vhcurveto
            return
          </CharString>
          <CharString index="331">
            0 -12 -54 rlineto
            142 -17 28 -40 -29 -130 -41 -176 -31 -130 -58 -205 -75 -278 -68 -198 -89 -101 rrcurveto
            3 0 3 3 vvcurveto
            80 -56 58 -80 -83 -60 -64 -78 return
          </CharString>
          <CharString index="332">
            -19 -91 -22 -18 -129 -16 rlinecurve
            -12 -54 568 0 11 54 -144 18 -18 18 19 88 rlinecurve
            256 1203 196 -8 266 -11 45 -52 4 -216 rlinecurve
            47 hlineto
            endchar
          </CharString>
          <CharString index="333">
            rmoveto
            -103 94 -62 114 145 98 79 107 103 -95 61 -114 -145 -97 -79 -106 vhcurveto
            139 -21 rmoveto
            82 46 70 56 45 25 -32 -56 -83 -46 -70 -55 -45 -26 32 57 vhcurveto
            return
          </CharString>
          <CharString index="334">
            -103 -490 rcurveline
            -200 -43 64 -134 189 hhcurveto
            133 144 82 194 85 hvcurveto
            -175 -21 70 -101 171 hhcurveto
            136 147 88 203 84 hvcurveto
            -1 -4 return
          </CharString>
          <CharString index="335">
            710 1470 rmoveto
            -210 -10 -159 -145 -191 vvcurveto
            -109 62 -65 82 91 56 80 92 3 vhcurveto
            -78 14 -51 44 73 vvcurveto
            88 84 67 109 9 vhcurveto
            return
          </CharString>
          <CharString index="336">
            538 1457 rmoveto
            -64 -1 -44 -38 -12 -96 rrcurveto
            -10 -70 -1 -95 -105 vvcurveto
            -194 47 vlineto
            70 172 rlineto
            59 148 48 108 67 vvcurveto
            62 -33 42 -60 vhcurveto
            return
          </CharString>
          <CharString index="337">
            1451 rmoveto
            518 -92 12 57 -498 185 rlineto
            -95 -449 12 callsubr
            return
          </CharString>
          <CharString index="338">
            301 950 rmoveto
            211 9 157 146 190 vvcurveto
            110 -61 65 -82 -91 -56 -80 -92 -3 vhcurveto
            78 -15 51 -43 -73 vvcurveto
            -89 -84 -66 -108 -10 vhcurveto
            return
          </CharString>
          <CharString index="339">
            -7 hvcurveto
            -8 -35 -37 -23 -70 -17 rrcurveto
            40 -30 124 24 return
          </CharString>
          <CharString index="340">
            -10 9 -20 -15 -60 rlinecurve
            -114 -477 -20 -78 -15 -18 return
          </CharString>
          <CharString index="341">
            -12 -31 -8 -37 -35 vvcurveto
            -135 102 -102 150 vhcurveto
            endchar
          </CharString>
          <CharString index="342">
            -22 hvcurveto
            55 hlineto
            94 17 25 31 41 70 callgsubr
          </CharString>
          <CharString index="343">
            rmoveto
            271 410 -195 0 -130 -410 rlineto
            endchar
          </CharString>
        <CharString name=".notdef">
          2048 46 -494 rmoveto
          106 hlineto
          519 2444 rlineto
          -106 hlineto
          -108 -65 callgsubr
          -110 -2444 rmoveto
          106 hlineto
          519 2444 rlineto
          -106 hlineto
          -109 -65 callgsubr
          -109 -65 callgsubr
          endchar
        </CharString>
        <CharString name=".null">
          0 endchar
        </CharString>
        <CharString name="A">
          1344 1214 256 -102 callsubr
        </CharString>
        <CharString name="AE">
          1912 2061 1444 144 callsubr
        </CharString>
        <CharString name="AEacute">
          1912 1610 -64 callsubr
          219 -379 144 callsubr
        </CharString>
        <CharString name="AEmacron">
          1912 1266 -64 callgsubr
          769 -300 144 callsubr
        </CharString>
        <CharString name="Aacute">
          1344 1104 -82 callsubr
          -97 callgsubr
          -121 -1567 -102 callsubr
        </CharString>
        <CharString name="Abreve">
          1344 1026 169 callsubr
          -68 53 74 9 0 11 2 8 hvcurveto
          -53 hlineto
          -10 -27 -8 -40 callgsubr
          188 -1324 -102 callsubr
        </CharString>
        <CharString name="Abreveacute">
          1344 1326 1845 rmoveto
          28 127 -585 -158 -10 -48 rlineto
          226 -230 -38 callsubr
          229 -1280 -102 callsubr
        </CharString>
        <CharString name="Abrevecyrillic">
          1344 986 4 callgsubr
          -38 11 19 -28 hvcurveto
          49 46 44 57 62 -46 47 -59 -65 -45 -50 -66 -101 84 -86 138 hvcurveto
          228 -1337 -102 callsubr
        </CharString>
        <CharString name="Abrevedotbelow">
          1344 1026 169 callsubr
          -68 53 74 9 0 11 2 8 hvcurveto
          -53 hlineto
          -10 -27 -8 -40 callgsubr
          188 -1324 rmoveto
          -40 callsubr
          40 callsubr
          -349 -761 -54 callsubr
          -19 callsubr
        </CharString>
        <CharString name="Abrevegrave">
          1344 776 1845 rmoveto
          535 -79 9 48 -518 158 rlineto
          183 -436 -38 callsubr
          229 -1280 -102 callsubr
        </CharString>
        <CharString name="Abrevehookabove">
          1344 1055 1965 rmoveto
          -79 -66 -30 -32 -40 20 callgsubr
          42 -30 129 24 78 35 15 70 rlinecurve
          70 15 -76 40 -94 hhcurveto
          -70 -429 -38 callsubr
          229 -1280 -102 callsubr
        </CharString>
        <CharString name="Abrevetilde">
          1344 1158 203 callsubr
          229 -1280 -102 callsubr
        </CharString>
        <CharString name="Acaron">
          1344 1241 71 callsubr
          -106 callgsubr
          73 callsubr
          -89 -1587 -102 callsubr
        </CharString>
        <CharString name="Acircumflex">
          1344 800 2 callsubr
          59 callsubr
          475 -1288 -102 callsubr
        </CharString>
        <CharString name="Acircumflexacute">
          1344 1322 1823 rmoveto
          27 127 -585 -157 -10 -48 rlineto
          -52 -247 52 callsubr
          -288 -163 rlineto
          501 -1291 -102 callsubr
        </CharString>
        <CharString name="Acircumflexdotbelow">
          1344 800 2 callsubr
          59 callsubr
          475 -1288 rmoveto
          -40 callsubr
          40 callsubr
          -349 -761 -54 callsubr
          -19 callsubr
        </CharString>
        <CharString name="Acircumflexgrave">
          1344 771 22 callgsubr
          -288 -163 rlineto
          501 -1291 -102 callsubr
        </CharString>
        <CharString name="Acircumflexhookabove">
          1344 1299 1917 rmoveto
          -76 -64 -31 -32 -38 hvcurveto
          -9 -39 rlineto
          13 24 45 11 43 hhcurveto
          60 31 -22 -35 232 callsubr
          75 36 15 70 rlinecurve
          70 14 -72 40 -90 hhcurveto
          -597 -419 52 callsubr
          -288 -163 rlineto
          501 -1291 -102 callsubr
        </CharString>
        <CharString name="Acircumflextilde">
          1344 1154 1772 rmoveto
          93 110 callsubr
          -27 7 12 -38 -67 callgsubr
          -22 hvcurveto
          60 hlineto
          46 11 31 19 45 hhcurveto
          28 27 -43 callgsubr
          48 hhcurveto
          -452 -274 52 callsubr
          -288 -163 rlineto
          501 -1291 -102 callsubr
        </CharString>
        <CharString name="Acyrillic">
          1344 1214 256 -102 callsubr
        </CharString>
        <CharString name="Adblgrave">
          1344 814 1822 -25 callgsubr
          53 hlineto
          199 -63 callgsubr
          65 -1287 -102 callsubr
        </CharString>
        <CharString name="Adieresis">
          1344 857 18 callsubr
          56 callsubr
          313 hmoveto
          -6 callsubr
          44 -1326 -102 callsubr
        </CharString>
        <CharString name="Adieresismacron">
          1344 771 99 callsubr
          -32 11 callsubr
          63 callsubr
          25 callsubr
          -32 34 -51 hhcurveto
          -8 hlineto
          -50 -47 -34 -44 -10 hvcurveto
          -45 -10 33 -34 50 hhcurveto
          83 -1302 -102 callsubr
        </CharString>
        <CharString name="Adotaccent">
          1344 1014 1576 -11 callsubr
          136 callsubr
          200 -1320 -102 callsubr
        </CharString>
        <CharString name="Adotbelow">
          1344 1214 256 rmoveto
          -40 callsubr
          40 callsubr
          -349 -761 -54 callsubr
          -19 callsubr
        </CharString>
        <CharString name="Adotmacron">
          1344 766 -14 callgsubr
          44 -36 54 hvcurveto
          204 -1298 -102 callsubr
        </CharString>
        <CharString name="Agrave">
          1344 963 -17 callsubr
          259 -273 rlineto
          49 hlineto
          153 -1287 -102 callsubr
        </CharString>
        <CharString name="Ahookabove">
          1344 1046 17 callsubr
          -1 callsubr
          -101 callgsubr
          168 -1607 -102 callsubr
        </CharString>
        <CharString name="Ainvertedbreve">
          1344 1025 132 callsubr
          -44 callgsubr
          100 68 -53 -73 -11 -1 35 callgsubr
          189 -1620 -102 callsubr
        </CharString>
        <CharString name="Alphagreek">
          1344 1214 256 -102 callsubr
        </CharString>
        <CharString name="Alphatonosgreek">
          1344 1214 256 rmoveto
          -40 callsubr
          16 -144 -28 -41 -139 -18 rlinecurve
          -11 -54 563 0 -28 callgsubr
          -732 1188 55 callsubr
          -215 -869 rmoveto
          337 635 72 -635 rlineto
          endchar
        </CharString>
        <CharString name="Amacron">
          1344 759 -64 callgsubr
          429 -1488 -102 callsubr
        </CharString>
        <CharString name="Aogonek">
          1344 1019 -478 rmoveto
          79 62 37 52 30 hvcurveto
          11 53 rlineto
          -18 -19 -27 -12 -30 hhcurveto
          -63 -41 63 94 70 28 74 59 65 hvcurveto
          242 hlineto
          -28 callgsubr
          -40 callsubr
          rlineto
          16 -144 -28 -41 -139 -18 -11 -54 rcurveline
          264 hlineto
          -137 -91 -84 -111 -111 vvcurveto
          -97 79 -68 110 vhcurveto
          -516 1053 rmoveto
          337 635 72 -635 rlineto
          endchar
        </CharString>
        <CharString name="Aring">
          1344 802 1723 226 callsubr
          273 -1446 -102 callsubr
        </CharString>
        <CharString name="Aringacute">
          1344 1322 1828 140 callsubr
          209 callsubr
          201 -1312 -102 callsubr
        </CharString>
        <CharString name="Aringbelow">
          1344 1214 256 rmoveto
          -40 callsubr
          40 callsubr
          -604 -879 rmoveto
          -100 3 14 callgsubr
          3 hvcurveto
          155 -21 rmoveto
          80 -2 50 68 61 hhcurveto
          49 30 -31 -54 3 hvcurveto
          -80 2 -51 -67 -61 hhcurveto
          -49 -30 30 54 -2 hvcurveto
          endchar
        </CharString>
        <CharString name="Atilde">
          1344 1112 1588 rmoveto
          78 1 59 55 21 179 rrcurveto
          -52 0 callsubr
          9 callgsubr
          -18 46 hhcurveto
          102 -1332 -102 callsubr
        </CharString>
        <CharString name="B">
          1312 1318 448 86 callsubr
        </CharString>
        <CharString name="Bdotaccent">
          1312 940 -78 callsubr
          -51 callsubr
          378 -1128 86 callsubr
        </CharString>
        <CharString name="Bdotbelow">
          214 callsubr
          -470 -630 -54 callsubr
          -19 callsubr
        </CharString>
        <CharString name="Becyrillic">
          1297 1320 462 rmoveto
          219 -183 147 -355 vhcurveto
          -145 hlineto
          117 553 212 -8 272 -11 46 -52 6 -216 rlinecurve
          47 hlineto
          60 350 -1038 0 -11 -54 rlineto
          131 -17 16 -16 -20 -93 -230 -1085 rcurveline
          -20 -91 -23 -17 -138 -17 -11 -54 rcurveline
          555 hlineto
          416 296 178 284 hvcurveto
          -270 8 rmoveto
          -230 -165 -163 -308 -11 vhcurveto
          -103 -3 148 697 115 -1 rlineto
          199 -3 114 -97 -189 vvcurveto
          endchar
        </CharString>
        <CharString name="Betagreek">
          1312 1318 448 86 callsubr
        </CharString>
        <CharString name="Blinebelow">
          214 callsubr
          -738 -799 -24 callsubr
        </CharString>
        <CharString name="C">
          1389 522 588 -47 callsubr
          -3 callsubr
        </CharString>
        <CharString name="Cacute">
          1389 1245 -64 callsubr
          -955 -1235 -47 callsubr
          -3 callsubr
        </CharString>
        <CharString name="Ccaron">
          1389 1382 -74 callsubr
          118 callsubr
          -923 -1255 -47 callsubr
          -3 callsubr
        </CharString>
        <CharString name="Ccedilla">
          1389 522 588 -47 callsubr
          -2 -410 262 -235 325 -27 rrcurveto
          -123 -136 116 callsubr
          180 callsubr
          7 callsubr
          75 84 rlineto
          173 158 callsubr
        </CharString>
        <CharString name="Ccedillaacute">
          1389 1245 -64 callsubr
          -955 -1235 -47 callsubr
          -2 -410 262 -235 325 -27 rrcurveto
          -123 -136 116 callsubr
          180 callsubr
          7 callsubr
          75 84 rlineto
          173 158 callsubr
        </CharString>
        <CharString name="Ccircumflex">
          1389 942 -63 callsubr
          157 -148 57 0 6 callsubr
          -359 -956 -47 callsubr
          -3 callsubr
        </CharString>
        <CharString name="Cdotaccent">
          1389 1155 74 callgsubr
          -633 -988 -47 callsubr
          -3 callsubr
        </CharString>
        <CharString name="Checyrillic">
          1510 1097 178 rmoveto
          -19 -90 -24 -18 -141 -16 rrcurveto
          -11 -54 555 0 12 54 -119 14 -18 18 20 94 rlinecurve
          230 1084 20 94 24 17 127 15 rlinecurve
          11 54 -540 0 -12 -54 rlineto
          119 -15 17 -18 -20 -93 -116 -547 rcurveline
          -32 -93 -90 -22 -112 hhcurveto
          -213 -90 123 244 53 hvcurveto
          50 235 21 92 22 19 123 14 rlinecurve
          11 54 -537 0 -11 -54 rlineto
          121 -15 15 -17 -19 -93 -47 -225 rcurveline
          -312 -67 171 -149 335 hhcurveto
          141 97 29 39 104 hvcurveto
          endchar
        </CharString>
        <CharString name="Chigreek">
          1300 318 277 29 callsubr
        </CharString>
        <CharString name="D">
          1496 -23 callsubr
          -59 callsubr
          endchar
        </CharString>
        <CharString name="Dbar">
          1496 205 708 rmoveto
          144 hlineto
          -112 -528 rlineto
          -20 -91 -21 -20 -131 -15 -11 -54 rcurveline
          501 hlineto
          570 435 331 495 376 -282 242 -448 hvcurveto
          -469 142 callsubr
          -105 -492 rcurveline
          -144 hlineto
          1058 85 126 callsubr
          137 645 261 0 14 64 -262 0 130 610 78 -4 rlineto
          308 -17 144 -221 -283 vvcurveto
          endchar
        </CharString>
        <CharString name="Dcaron">
          1496 1221 -74 callsubr
          3 callsubr
          276 -1017 38 callsubr
          -59 callsubr
          endchar
        </CharString>
        <CharString name="Dcircumflexbelow">
          1496 -23 callsubr
          -59 callsubr
          -912 -1313 -18 callsubr
          59 0 -121 134 callsubr
        </CharString>
        <CharString name="Dcommaaccent">
          1496 -23 callsubr
          -59 callsubr
          -710 -1319 rmoveto
          141 94 67 107 104 -77 62 -89 -99 callgsubr
          14 28 4 24 hhcurveto
          55 22 callsubr
          -68 callgsubr
        </CharString>
        <CharString name="Ddotaccent">
          1496 994 -78 callsubr
          -51 callsubr
          566 -750 38 callsubr
          -59 callsubr
          endchar
        </CharString>
        <CharString name="Ddotbelow">
          1496 -23 callsubr
          -59 callsubr
          -681 -1043 rmoveto
          -63 -51 -50 -61 -58 45 -46 60 63 51 50 62 58 -46 45 -59 hvcurveto
          endchar
        </CharString>
        <CharString name="Decyrillic">
          1448 641 927 rmoveto
          36 132 53 232 20 82 rrcurveto
          512 hlineto
          -278 -1302 rlineto
          -696 hlineto
          121 123 118 258 114 475 rrcurveto
          796 -856 rmoveto
          -199 hlineto
          254 1193 19 93 25 18 127 15 rlinecurve
          11 54 -1177 0 -11 -54 rlineto
          145 -18 27 -39 -33 -146 -20 -87 -27 -106 -19 -65 -109 -454 -122 -284 -147 -120 rrcurveto
          -136 hlineto
          -89 -390 rlineto
          59 hlineto
          258 128 39 61 211 hhcurveto
          667 hlineto
          206 26 -52 -267 17 hvcurveto
          58 hlineto
          endchar
        </CharString>
        <CharString name="Deltagreek">
          1248 45 hmoveto
          1120 hlineto
          11 53 -193 1395 -147 0 -779 -1394 rlineto
          95 15 rmoveto
          615 1126 136 -1126 rlineto
          endchar
        </CharString>
        <CharString name="Djecyrillic">
          1686 1681 422 rmoveto
          263 -168 140 -292 -120 -88 -17 -29 -85 vhcurveto
          129 602 87 -3 234 -13 54 -47 4 -236 rlinecurve
          47 hlineto
          63 362 -1178 0 -87 -362 rlineto
          48 hlineto
          98 230 71 52 -18 callgsubr
          529 rcurveline
          22 73 74 12 87 hhcurveto
          183 98 -100 -201 -317 -153 -304 -299 -155 hvcurveto
          18 -46 rlineto
          415 135 272 310 359 vvcurveto
          endchar
        </CharString>
        <CharString name="Dlinebelow">
          1496 -23 callsubr
          -59 callsubr
          -950 -1212 rmoveto
          505 hlineto
          27 127 rlineto
          -506 hlineto
          endchar
        </CharString>
        <CharString name="Dzecyrillic">
          1120 584 -24 82 callsubr
          endchar
        </CharString>
        <CharString name="Dzhecyrillic">
          1531 173 callsubr
          504 hlineto
          111 17 -33 -287 -17 hvcurveto
          59 hlineto
          287 106 30 33 110 hhcurveto
          506 hlineto
          11 54 -122 15 -17 18 20 93 rlinecurve
          230 1084 20 93 22 17 130 16 rlinecurve
          12 54 -541 0 -11 -54 115 -41 callgsubr
          -627 0 254 1195 20 94 22 31 callgsubr
        </CharString>
        <CharString name="E">
          1205 1385 1444 -97 callsubr
        </CharString>
        <CharString name="Eacute">
          1205 1049 -82 callsubr
          -77 callsubr
          104 -379 -97 callsubr
        </CharString>
        <CharString name="Ebreve">
          16 callgsubr
          413 -136 -97 callsubr
        </CharString>
        <CharString name="Ecaron">
          1205 1186 -74 callsubr
          118 callsubr
          136 -399 -97 callsubr
        </CharString>
        <CharString name="Ecedilla">
          1205 534 -462 rmoveto
          7 callsubr
          93 103 1 5 459 -30 callsubr
          63 362 -1014 0 -11 -54 123 -15 -25 callsubr
          536 0 -141 -158 45 callsubr
        </CharString>
        <CharString name="Ecedillabreve">
          16 callgsubr
          -438 -2042 rmoveto
          7 callsubr
          93 103 1 5 459 -30 callsubr
          63 362 -1014 0 -11 -54 123 -15 -25 callsubr
          536 0 -141 -158 45 callsubr
        </CharString>
        <CharString name="Ecircumflex">
          1205 746 -63 callsubr
          -22 callsubr
          21 callsubr
          700 -100 -97 callsubr
        </CharString>
        <CharString name="Ecircumflexacute">
          1205 1266 1823 141 callsubr
          -52 -247 -21 callsubr
          728 -103 -97 callsubr
        </CharString>
        <CharString name="Ecircumflexbelow">
          1205 1385 1444 rmoveto
          -1014 hlineto
          -11 -54 123 -15 -25 callsubr
          1063 -30 callsubr
          -994 -1538 -18 callsubr
          -96 callgsubr
        </CharString>
        <CharString name="Ecircumflexdotbelow">
          1205 746 -63 callsubr
          -22 callsubr
          21 callsubr
          700 -100 rmoveto
          -1014 hlineto
          -11 -54 123 -15 -25 callsubr
          1063 -30 callsubr
          -764 -1268 -54 callsubr
          50 50 62 58 -45 45 -60 hvcurveto
          endchar
        </CharString>
        <CharString name="Ecircumflexgrave">
          1205 716 -32 callgsubr
          728 -103 -97 callsubr
        </CharString>
        <CharString name="Ecircumflexhookabove">
          1205 1243 222 callsubr
          728 -103 -97 callsubr
        </CharString>
        <CharString name="Ecircumflextilde">
          1205 1098 1772 rmoveto
          94 110 callsubr
          -28 7 12 -37 hvcurveto
          -29 10 rlineto
          14 -40 -40 9 -48 hhcurveto
          -93 -77 -54 -109 -1 callgsubr
          728 -103 -97 callsubr
        </CharString>
        <CharString name="Ecyrillic">
          1398 525 588 rmoveto
          39 2 38 4 38 vhcurveto
          651 -10 19 89 -662 -10 rlineto
          361 55 215 258 279 hhcurveto
          210 124 -122 -269 8 hvcurveto
          47 -3 61 329 rlineto
          72 -91 -185 70 -219 hhcurveto
          -465 -328 -333 -485 -3 hvcurveto
          -437 -3 298 -237 353 hhcurveto
          178 156 42 65 90 hvcurveto
          71 335 rlineto
          -49 hlineto
          -233 -92 -152 -133 -182 hhcurveto
          -233 -157 227 309 hvcurveto
          endchar
        </CharString>
        <CharString name="Edblgrave">
          1205 759 1822 rmoveto
          -183 -5 hlineto
          228 -274 rlineto
          52 hlineto
          200 279 rmoveto
          -176 -5 hlineto
          165 -274 rlineto
          49 hlineto
          291 -99 -97 callsubr
        </CharString>
        <CharString name="Edieresis">
          1205 803 1582 rmoveto
          -6 callsubr
          104 callsubr
          270 -138 -97 callsubr
        </CharString>
        <CharString name="Edotaccent">
          1205 959 -78 callsubr
          -51 callsubr
          426 -132 -97 callsubr
        </CharString>
        <CharString name="Edotbelow">
          1205 1385 1444 rmoveto
          -1014 hlineto
          -11 -54 123 -15 -25 callsubr
          1063 -30 callsubr
          -764 -1268 -54 callsubr
          50 50 62 58 -45 45 -60 hvcurveto
          endchar
        </CharString>
        <CharString name="Efcyrillic">
          1854 205 676 rmoveto
          -273 241 -170 396 -23 vhcurveto
          -12 -56 -19 -87 -21 -20 -135 -14 rlinecurve
          -11 -54 548 0 11 54 rlineto
          -124 14 -19 20 19 87 11 53 rcurveline
          570 17 287 220 324 vvcurveto
          274 -243 170 -397 22 vhcurveto
          12 56 18 87 23 21 133 13 rlinecurve
          11 54 -548 0 -12 -54 rlineto
          127 -14 17 -20 -19 -87 -11 -54 rcurveline
          -568 -18 -285 -219 -323 vvcurveto
          282 -13 rmoveto
          291 171 189 385 24 vhcurveto
          -186 -887 rlineto
          -255 29 -115 147 207 vvcurveto
          1178 118 rmoveto
          -292 -172 -189 -388 -23 vhcurveto
          187 887 rlineto
          257 -29 116 -146 -208 vvcurveto
          endchar
        </CharString>
        <CharString name="Egrave">
          1205 908 -17 callsubr
          23 callsubr
          378 -99 -97 callsubr
        </CharString>
        <CharString name="Ehookabove">
          1205 992 17 callsubr
          -36 hvcurveto
          -10 -41 rlineto
          21 29 38 13 44 hhcurveto
          63 33 -26 -43 -50 176 callsubr
          393 -419 -97 callsubr
        </CharString>
        <CharString name="Einvertedbreve">
          1205 971 1876 rmoveto
          -167 -100 -117 -178 -6 hvcurveto
          54 hlineto
          96 18 70 58 126 hhcurveto
          100 68 -53 -73 -11 -1 -10 -1 -8 hvcurveto
          53 hlineto
          11 27 7 33 30 vvcurveto
          118 -2 -93 88 -137 hhcurveto
          414 -432 -97 callsubr
        </CharString>
        <CharString name="Elcyrillic">
          1457 200 -25 rmoveto
          202 108 226 486 130 hvcurveto
          70 252 49 196 53 240 rrcurveto
          487 hlineto
          -255 -1195 -20 -94 -21 -17 -127 -15 rlinecurve
          -11 -54 540 0 11 54 -118 14 -20 19 20 93 rlinecurve
          231 1084 20 94 24 17 127 15 rlinecurve
          11 54 -1152 224 callsubr
          -83 59 -62 94 vhcurveto
          endchar
        </CharString>
        <CharString name="Emacron">
          1205 704 111 callsubr
          654 -300 -97 callsubr
        </CharString>
        <CharString name="Emacronacute">
          1205 1271 1845 -34 callgsubr
          -38 -178 -22 callgsubr
          699 -242 -97 callsubr
        </CharString>
        <CharString name="Emacrongrave">
          1205 721 21 callgsubr
          699 -242 -97 callsubr
        </CharString>
        <CharString name="Emcyrillic">
          1760 785 1444 33 callsubr
        </CharString>
        <CharString name="Encyrillic">
          1543 491 -14 callsubr
          -69 callsubr
          -55 callgsubr
          endchar
        </CharString>
        <CharString name="Eogonek">
          1205 888 -478 rmoveto
          80 -61 callgsubr
          -63 -40 63 94 70 28 74 60 65 hvcurveto
          148 hlineto
          -72 callsubr
          212 callsubr
          58 -50 9 -230 rlinecurve
          47 hlineto
          63 362 -1014 0 -11 -54 rlineto
          123 -15 14 -19 -19 -92 65 callsubr
          -131 -15 -11 -54 rcurveline
          857 hlineto
          -137 -91 -84 -111 -111 vvcurveto
          -97 78 -68 110 vhcurveto
          endchar
        </CharString>
        <CharString name="Epsilongreek">
          1205 1385 1444 -97 callsubr
        </CharString>
        <CharString name="Epsilontonosgreek">
          1546 1726 1444 rmoveto
          -1014 hlineto
          -11 -54 123 -15 15 -19 -20 -92 rlinecurve
          -91 callgsubr
          -130 -15 rlinecurve
          -12 -54 1063 0 101 400 rlineto
          -48 hlineto
          -109 -263 -90 -55 -281 -11 rrcurveto
          -223 -8 137 645 226 -3 108 -3 19 -43 -4 -162 rlinecurve
          46 hlineto
          101 475 rlineto
          -46 hlineto
          -63 -158 -38 -37 -109 -4 rrcurveto
          -227 -2 130 610 209 -8 242 -11 57 -50 10 -230 rlinecurve
          48 hlineto
          -1292 362 55 callsubr
          endchar
        </CharString>
        <CharString name="Ercyrillic">
          1274 620 hmoveto
          32 callsubr
        </CharString>
        <CharString name="Ereversedcyrillic">
          1434 431 1355 rmoveto
          -78 -330 rlineto
          48 hlineto
          265 101 157 104 175 hhcurveto
          265 122 -245 -316 -21 0 -21 -2 -20 hvcurveto
          -651 10 -19 -91 664 9 rlineto
          -349 -41 -204 -302 -317 hhcurveto
          -240 -113 156 203 -10 hvcurveto
          -48 hlineto
          -43 -313 rlineto
          -64 79 184 -55 197 hhcurveto
          494 348 349 461 405 -255 279 -404 -151 -158 -45 -69 -100 hvcurveto
          endchar
        </CharString>
        <CharString name="Escyrillic">
          1389 522 588 -47 callsubr
          -3 callsubr
        </CharString>
        <CharString name="Etagreek">
          1543 491 -14 callsubr
          -69 callsubr
          -55 callgsubr
          endchar
        </CharString>
        <CharString name="Etatonosgreek">
          1894 842 -14 callsubr
          -111 -524 -19 -92 -24 -20 -125 -14 78 callsubr
          106 callgsubr
          25 21 129 15 rlinecurve
          11 54 -542 0 221 callsubr
          -20 -91 -23 -22 -131 -15 rlinecurve
          -11 -54 541 0 12 54 -117 14 -17 20 19 92 rlinecurve
          -470 1264 55 callsubr
          endchar
        </CharString>
        <CharString name="Etilde">
          1205 1057 127 callsubr
          -53 hlineto
          -85 -14 -24 -28 -35 hhcurveto
          -25 -20 12 22 -27 hvcurveto
          -27 22 rlineto
          28 -36 -35 17 -45 hhcurveto
          -78 -60 -56 -177 -21 hvcurveto
          53 -33 callgsubr
          28 hvcurveto
          26 -21 rlineto
          -28 36 35 -18 45 hhcurveto
          328 -144 -97 callsubr
        </CharString>
        <CharString name="Etildebelow">
          1205 1385 1444 rmoveto
          -1014 hlineto
          -11 -54 123 -15 -25 callsubr
          1063 -30 callsubr
          -664 -1496 106 callsubr
          -29 -22 47 callsubr
          235 callsubr
        </CharString>
        <CharString name="F">
          1123 1357 1444 rmoveto
          -985 hlineto
          62 callsubr
          -91 callgsubr
          205 callsubr
        </CharString>
        <CharString name="Fdotaccent">
          1123 946 -78 callsubr
          -51 callsubr
          411 -132 rmoveto
          -985 hlineto
          62 callsubr
          -91 callgsubr
          205 callsubr
        </CharString>
        <CharString name="G">
          1520 247 650 -41 callsubr
        </CharString>
        <CharString name="Gacute">
          1520 1234 -82 callsubr
          -77 callsubr
          -1219 -1173 -41 callsubr
        </CharString>
        <CharString name="Gammagreek">
          1143 1380 1444 rmoveto
          -1013 hlineto
          -11 -54 131 -17 16 -16 -20 -92 rlinecurve
          -231 -1086 -19 -91 -23 -17 -138 -17 rlinecurve
          -11 -54 584 0 11 54 -151 19 -17 18 19 87 rlinecurve
          255 1203 203 -8 260 -11 43 -52 5 -216 rlinecurve
          47 hlineto
          endchar
        </CharString>
        <CharString name="Gbreve">
          1520 1156 1580 96 callgsubr
          -58 -125 hhcurveto
          -100 -68 53 74 9 1 11 1 8 hvcurveto
          -53 hlineto
          -10 -27 -7 -33 -30 vvcurveto
          -118 1 93 -88 137 hhcurveto
          -909 -930 -41 callsubr
        </CharString>
        <CharString name="Gcaron">
          1520 1371 -74 callsubr
          3 callsubr
          -1187 -1193 -41 callsubr
        </CharString>
        <CharString name="Gcircumflex">
          1520 931 -63 callsubr
          156 -148 57 0 59 callsubr
          -622 -894 -41 callsubr
        </CharString>
        <CharString name="Gcommaaccent">
          1520 247 650 rmoveto
          -431 -2 308 -243 353 hhcurveto
          174 187 51 77 101 hvcurveto
          86 402 18 86 20 22 118 15 rlinecurve
          12 53 -516 0 -11 -53 rlineto
          136 -17 11 -20 -18 -86 -84 -401 rcurveline
          -35 -45 -83 -18 -80 hhcurveto
          -242 -165 210 326 453 239 350 326 211 125 -122 -269 8 hvcurveto
          48 -3 60 329 rlineto
          73 -91 -186 69 -220 hhcurveto
          -466 -329 -333 -485 -3 hvcurveto
          532 -1112 138 callsubr
          50 callsubr
          175 callsubr
        </CharString>
        <CharString name="Gdotaccent">
          1520 1144 1576 rmoveto
          62 50 49 62 58 -44 46 -61 -62 -82 callgsubr
          -897 -926 -41 callsubr
        </CharString>
        <CharString name="Geacutecyrillic">
          1119 1003 -82 callsubr
          -77 callsubr
          129 -379 rmoveto
          -1003 -66 callgsubr
          225 callsubr
        </CharString>
        <CharString name="Gecyrillic">
          1119 1364 1444 rmoveto
          -1003 -66 callgsubr
          225 callsubr
        </CharString>
        <CharString name="Germandbls">
          1433 470 hmoveto
          292 1382 173 -7 rlineto
          230 -10 96 -91 -164 vvcurveto
          -155 -104 -103 -176 -29 vhcurveto
          -34 -159 rlineto
          176 -81 78 -115 -160 vvcurveto
          -158 -93 -100 -137 -130 -103 106 219 9 vhcurveto
          -50 hlineto
          -60 -303 rlineto
          -55 63 125 -41 146 hhcurveto
          239 217 156 264 191 -99 150 -180 87 hvcurveto
          185 15 158 105 187 vvcurveto
          195 -161 118 -301 vhcurveto
          -655 hlineto
          -12 -54 rlineto
          125 -15 17 -19 -20 -91 -230 -1086 rcurveline
          -19 -92 -23 -17 -132 -16 -11 -54 rcurveline
          endchar
        </CharString>
        <CharString name="Geupturncyrillic">
          1099 1329 1376 rmoveto
          89 394 rlineto
          -59 hlineto
          -271 -125 -51 -55 -206 hhcurveto
          -616 -66 callgsubr
          -20 -91 -21 -18 -129 -16 rlinecurve
          -12 -54 567 0 11 54 rlineto
          -139 18 -22 19 19 87 254 1198 rcurveline
          endchar
        </CharString>
        <CharString name="Gmacron">
          1520 889 1621 rmoveto
          490 hlineto
          26 123 rlineto
          -490 hlineto
          -668 -1094 -41 callsubr
        </CharString>
        <CharString name="H">
          1543 491 -14 callsubr
          -69 callsubr
          -55 callgsubr
          endchar
        </CharString>
        <CharString name="Hacyrillic">
          1300 318 277 29 callsubr
        </CharString>
        <CharString name="Hardsigncyrillic">
          1501 1568 485 rmoveto
          226 -186 149 -351 2 vhcurveto
          -139 1 85 403 19 90 25 18 135 16 rlinecurve
          11 54 -799 0 -85 -349 rlineto
          48 hlineto
          99 235 57 38 221 10 rrcurveto
          39 2 -255 -1202 rlineto
          -19 -89 -22 -19 -138 -16 -11 -54 rcurveline
          554 hlineto
          431 281 195 290 hvcurveto
          -270 14 rmoveto
          -245 -167 43 callgsubr
          111 -98 -191 vvcurveto
          endchar
        </CharString>
        <CharString name="Hbar">
          1543 491 -14 callsubr
          -112 -524 -19 -92 -21 -20 -124 -14 rlinecurve
          -12 -54 537 0 11 54 -122 15 -15 19 20 92 rlinecurve
          185 870 145 0 14 64 -145 0 32 150 19 92 23 19 129 15 rlinecurve
          11 54 -537 0 -12 -54 119 -14 13 -20 -20 -92 rlinecurve
          -32 -150 -636 0 32 150 19 91 23 20 123 15 rlinecurve
          11 54 -537 0 62 callsubr
          -32 -150 -145 0 -14 -64 145 0 -185 -870 -20 -91 -21 -20 -131 -15 rlinecurve
          -11 -54 538 0 11 54 -116 14 -15 20 19 92 rlinecurve
          126 593 rmoveto
          59 277 637 0 -59 -277 rlineto
          endchar
        </CharString>
        <CharString name="Hbrevebelow">
          1543 491 -14 callsubr
          -69 callsubr
          -55 callgsubr
          217 -625 rmoveto
          171 102 120 186 7 25 callgsubr
          -53 hlineto
          -11 -28 -7 -33 1 -32 rrcurveto
          -121 95 -92 141 vhcurveto
          endchar
        </CharString>
        <CharString name="Hcaron">
          1543 1352 -74 callsubr
          118 callsubr
          -924 -1663 80 callsubr
          -69 callsubr
          -55 callgsubr
          endchar
        </CharString>
        <CharString name="Hcedilla">
          1543 223 -462 rmoveto
          145 90 75 105 103 -77 67 -119 4 hvcurveto
          94 107 rlineto
          1 238 vlineto
          11 54 -116 14 -17 20 19 92 rlinecurve
          112 524 636 0 -69 callsubr
          233 0 -138 -158 -10 -50 rlineto
          1 3 19 2 7 -35 callgsubr
          19 26 -31 hvcurveto
          -12 -52 rlineto
          -51 40 65 -37 88 hhcurveto
          endchar
        </CharString>
        <CharString name="Hcircumflex">
          1543 912 -63 callsubr
          -22 callsubr
          21 callsubr
          -360 -1364 80 callsubr
          -69 callsubr
          -55 callgsubr
          endchar
        </CharString>
        <CharString name="Hdieresis">
          1543 969 1582 rmoveto
          -6 callsubr
          104 callsubr
          -790 -1402 80 callsubr
          -69 callsubr
          -55 callgsubr
          endchar
        </CharString>
        <CharString name="Hdotaccent">
          1543 1125 -78 callsubr
          45 -60 -63 -51 -49 -62 -58 46 -45 60 hvcurveto
          -634 -1396 80 callsubr
          -69 callsubr
          -55 callgsubr
          endchar
        </CharString>
        <CharString name="Hdotbelow">
          1543 491 -14 callsubr
          -69 callsubr
          -55 callgsubr
          220 -366 -80 callsubr
          57 callsubr
        </CharString>
        <CharString name="I">
          10 callsubr
          -87 callsubr
        </CharString>
        <CharString name="IAcyrillic">
          1373 378 987 rmoveto
          -166 109 -101 157 -40 vhcurveto
          -256 -303 -143 -168 -123 -130 -91 -29 rlinecurve
          -11 -50 323 0 537 640 rlineto
          14 14 -1 15 hhcurveto
          135 hlineto
          -98 -459 -20 -94 -24 -17 -125 -15 78 callsubr
          rlineto
          -121 15 -16 17 19 94 230 1085 rcurveline
          20 92 22 18 129 15 12 54 rcurveline
          -545 hlineto
          -448 -256 -174 -283 hvcurveto
          263 -7 rmoveto
          235 158 152 313 11 vhcurveto
          103 3 -143 -674 -125 2 rlineto
          -194 2 -112 95 174 vvcurveto
          endchar
        </CharString>
        <CharString name="IJ">
          1307 1160 253 151 callsubr
          -669 -73 -85 callsubr
          -87 callsubr
        </CharString>
        <CharString name="IJacute">
          1307 771 1824 rmoveto
          -206 -279 -77 callsubr
          412 -1 -26 callgsubr
          -487 -1570 151 callsubr
          -669 -73 -85 callsubr
          -87 callsubr
        </CharString>
        <CharString name="IUcyrillic">
          2156 53 hmoveto
          540 hlineto
          12 54 rlineto
          -117 14 -18 19 19 93 111 523 rcurveline
          241 hlineto
          -2 -24 -1 -25 -25 vvcurveto
          -380 237 -272 373 442 332 372 466 380 -236 274 -373 -1 vhcurveto
          -397 -2 -307 -298 -60 -397 rrcurveto
          -234 hlineto
          104 493 20 93 24 18 125 130 callsubr
          67 callgsubr
          1387 -4 rmoveto
          -238 -98 221 272 392 172 459 322 238 98 -221 -272 -392 -173 -459 -321 hvcurveto
          endchar
        </CharString>
        <CharString name="Iacute">
          652 771 1824 rmoveto
          -206 -279 -77 callsubr
          -512 -1644 -85 callsubr
          -87 callsubr
        </CharString>
        <CharString name="Ibreve">
          652 693 1581 96 callgsubr
          -59 -125 hhcurveto
          -100 -68 54 73 10 0 11 2 7 hvcurveto
          -53 hlineto
          -10 -27 -7 -32 -31 vvcurveto
          -118 1 93 -87 137 hhcurveto
          -202 -1401 -85 callsubr
          -87 callsubr
        </CharString>
        <CharString name="Icaron">
          652 908 1844 rmoveto
          -224 -149 -155 -76 callgsubr
          -480 -1664 -85 callsubr
          -87 callsubr
        </CharString>
        <CharString name="Icircumflex">
          652 468 1545 rmoveto
          226 148 156 -148 57 0 59 callsubr
          85 -1365 -85 callsubr
          -87 callsubr
        </CharString>
        <CharString name="Icyrillic">
          10 callsubr
          -87 callsubr
        </CharString>
        <CharString name="Idblgrave">
          652 481 1823 rmoveto
          -183 -5 hlineto
          227 -275 rlineto
          53 hlineto
          200 280 rmoveto
          -176 -5 hlineto
          165 -275 rlineto
          49 hlineto
          -325 -1363 -85 callsubr
          -87 callsubr
        </CharString>
        <CharString name="Idieresis">
          652 524 1582 rmoveto
          58 47 47 -102 callgsubr
          -27 callgsubr
          105 callsubr
          -346 -1402 -85 callsubr
          -87 callsubr
        </CharString>
        <CharString name="Idieresisacute">
          652 993 1845 rmoveto
          27 127 -585 -157 -10 -48 rlineto
          74 -208 rmoveto
          50 47 33 46 9 hvcurveto
          44 11 -33 11 callsubr
          -46 -9 32 -33 51 hhcurveto
          315 hmoveto
          51 46 33 46 10 hvcurveto
          44 10 -32 34 -51 hhcurveto
          -8 hlineto
          -51 -47 -34 -44 -10 hvcurveto
          -46 -9 32 -33 51 hhcurveto
          -307 -1379 -85 callsubr
          -87 callsubr
        </CharString>
        <CharString name="Idotaccent">
          652 681 1577 -11 callsubr
          45 -60 -62 -51 -49 -62 -58 46 -45 60 hvcurveto
          -190 -1397 -85 callsubr
          -87 callsubr
        </CharString>
        <CharString name="Idotbelow">
          10 callsubr
          124 -14 13 -20 76 callsubr
          -131 -15 rlinecurve
          -11 -54 122 callsubr
          -223 -366 -54 callsubr
          -19 callsubr
        </CharString>
        <CharString name="Iecyrillic">
          1205 1385 1444 -97 callsubr
        </CharString>
        <CharString name="Igrave">
          652 630 1823 rmoveto
          -210 -7 hlineto
          259 -272 rlineto
          50 hlineto
          -238 -1364 -85 callsubr
          -87 callsubr
        </CharString>
        <CharString name="Ihookabove">
          652 714 1864 rmoveto
          -78 -68 -35 -52 -36 hvcurveto
          -9 -41 rlineto
          21 28 39 13 43 hhcurveto
          63 33 -27 -42 -50 -59 callgsubr
          71 -61 53 -95 vhcurveto
          -223 -1684 -85 callsubr
          -87 callsubr
        </CharString>
        <CharString name="Iicyrillic">
          1552 53 hmoveto
          195 callsubr
        </CharString>
        <CharString name="Iinvertedbreve">
          652 693 1876 rmoveto
          -168 -99 -116 -179 -6 hvcurveto
          53 hlineto
          97 19 70 58 126 hhcurveto
          100 68 -53 -74 -10 -1 -10 -2 -8 hvcurveto
          54 hlineto
          10 27 7 33 30 vvcurveto
          117 -1 -94 88 -136 hhcurveto
          -202 -1696 -85 callsubr
          -87 callsubr
        </CharString>
        <CharString name="Iishortcyrillic">
          1552 1110 4 callgsubr
          -37 11 19 -29 hvcurveto
          49 46 44 57 62 -46 47 -58 -66 -45 -50 -66 -101 84 -86 138 hvcurveto
          -1057 -1593 rmoveto
          195 callsubr
        </CharString>
        <CharString name="Imacron">
          652 426 1622 rmoveto
          490 hlineto
          26 122 rlineto
          -490 hlineto
          39 -1564 -85 callsubr
          -87 callsubr
        </CharString>
        <CharString name="Iocyrillic">
          1205 803 1582 rmoveto
          -6 callsubr
          104 callsubr
          270 -138 -97 callsubr
        </CharString>
        <CharString name="Iogonek">
          10 callsubr
          rlineto
          124 -14 13 -20 -19 -92 65 callsubr
          -131 -15 -11 -54 rcurveline
          255 hlineto
          -138 -91 -83 -111 -111 vvcurveto
          -97 78 -68 110 80 61 37 52 31 vhcurveto
          11 53 rlineto
          -18 -20 -27 -12 -30 hhcurveto
          -63 -40 63 94 70 27 74 60 65 hvcurveto
          232 hlineto
          11 54 -124 15 -13 19 19 92 rlinecurve
          endchar
        </CharString>
        <CharString name="Iotadieresisgreek">
          652 524 1582 rmoveto
          58 47 47 -102 callgsubr
          -27 callgsubr
          105 callsubr
          -346 -1402 -85 callsubr
          -87 callsubr
        </CharString>
        <CharString name="Iotagreek">
          10 callsubr
          -87 callsubr
        </CharString>
        <CharString name="Iotatonosgreek">
          1007 846 180 rmoveto
          230 64 callgsubr
          124 -14 13 -20 -19 -92 rlinecurve
          -231 -1084 -19 -91 -22 -20 -130 -15 rlinecurve
          -12 -54 544 0 11 54 -124 15 -13 19 20 92 rlinecurve
          -474 1264 55 callsubr
          endchar
        </CharString>
        <CharString name="Itilde">
          652 779 1589 rmoveto
          78 1 60 55 21 178 rrcurveto
          -53 hlineto
          -84 -47 callgsubr
          21 rlineto
          28 -36 -36 17 -44 hhcurveto
          -78 -60 -56 -177 -21 hvcurveto
          53 hlineto
          85 14 23 27 35 hhcurveto
          26 19 -11 -23 28 hvcurveto
          26 -22 rlineto
          -27 37 35 -18 45 hhcurveto
          -288 -1409 -85 callsubr
          -87 callsubr
        </CharString>
        <CharString name="Itildebelow">
          10 callsubr
          124 -14 13 -20 76 callsubr
          -131 -15 rlinecurve
          -11 -54 122 callsubr
          -123 -594 106 callsubr
          -28 -23 47 callsubr
          -22 hvcurveto
          55 hlineto
          94 17 26 31 40 70 callgsubr
        </CharString>
        <CharString name="J">
          654 508 253 53 callsubr
          90 callsubr
        </CharString>
        <CharString name="Jacute">
          654 763 -82 callsubr
          -77 callsubr
          -487 -1570 53 callsubr
          90 callsubr
        </CharString>
        <CharString name="Jcircumflex">
          654 460 -63 callsubr
          -22 callsubr
          -134 0 -242 -279 rlineto
          110 -1291 53 callsubr
          90 callsubr
        </CharString>
        <CharString name="Jecyrillic">
          654 508 253 53 callsubr
          90 callsubr
        </CharString>
        <CharString name="K">
          1338 493 180 -9 callsubr
        </CharString>
        <CharString name="Kaacutecyrillic">
          1338 1171 -82 callsubr
          -77 callsubr
          -910 -1643 -9 callsubr
        </CharString>
        <CharString name="Kacute">
          1338 1171 -82 callsubr
          -77 callsubr
          -910 -1643 -9 callsubr
        </CharString>
        <CharString name="Kacyrillic">
          1338 493 180 -9 callsubr
        </CharString>
        <CharString name="Kappagreek">
          1338 493 180 -9 callsubr
        </CharString>
        <CharString name="Kcaron">
          1338 1308 -74 callsubr
          3 callsubr
          -878 -1663 -9 callsubr
        </CharString>
        <CharString name="Kcommaaccent">
          146 callsubr
          180 -642 64 callsubr
          -99 callgsubr
          108 callsubr
        </CharString>
        <CharString name="Kdotbelow">
          146 callsubr
          209 -366 -80 callsubr
          -58 callsubr
        </CharString>
        <CharString name="Klinebelow">
          146 callsubr
          -60 -535 -66 callsubr
        </CharString>
        <CharString name="L">
          -2 callsubr
          endchar
        </CharString>
        <CharString name="Lacute">
          1136 765 -82 callsubr
          -77 callsubr
          66 -1823 rmoveto
          -31 callsubr
          -8 callsubr
          endchar
        </CharString>
        <CharString name="Lambdagreek">
          1367 1225 235 rmoveto
          -161 1213 -150 0 -659 -1187 -93 -167 -32 -25 -117 -15 rlinecurve
          -11 -54 410 0 11 54 -149 20 -13 30 105 194 rlinecurve
          482 898 111 -961 14 -129 -20 -35 -143 -17 rlinecurve
          -12 -54 568 0 11 54 -105 13 -29 28 -18 140 rlinecurve
          endchar
        </CharString>
        <CharString name="Lcaron">
          1136 1066 1093 rmoveto
          271 411 -195 0 -130 -411 rlineto
          51 -1093 rmoveto
          -31 callsubr
          -8 callsubr
          endchar
        </CharString>
        <CharString name="Lcircumflexbelow">
          -2 callsubr
          241 -456 rmoveto
          236 181 154 -181 67 callsubr
          -258 -328 rlineto
          endchar
        </CharString>
        <CharString name="Lcommaaccent">
          -2 callsubr
          443 -462 rmoveto
          141 93 67 107 104 -77 62 -89 -66 50 callsubr
          -74 callgsubr
          77 hhcurveto
          endchar
        </CharString>
        <CharString name="Ldot">
          -2 callsubr
          958 700 rmoveto
          73 59 58 73 68 -52 53 -71 -74 -59 -58 -73 -68 53 -53 71 hvcurveto
          endchar
        </CharString>
        <CharString name="Ldotbelow">
          -2 callsubr
          471 -186 -80 callsubr
          57 callsubr
        </CharString>
        <CharString name="Ldotbelowmacron">
          1136 420 111 callsubr
          616 -1744 rmoveto
          -31 callsubr
          -8 callsubr
          471 -186 -80 callsubr
          57 callsubr
        </CharString>
        <CharString name="Ljecyrillic">
          2011 47 120 rmoveto
          -83 59 -62 94 202 108 226 486 130 vhcurveto
          70 252 49 196 53 240 rrcurveto
          445 hlineto
          -254 -1197 rlineto
          -19 -89 -24 -19 -146 -16 -11 -54 rcurveline
          563 hlineto
          432 281 195 290 226 -186 151 -351 hvcurveto
          -141 hlineto
          87 404 19 90 24 18 135 16 rlinecurve
          11 54 -1118 224 callsubr
          vhcurveto
          1762 379 rmoveto
          -245 -167 -177 -307 -11 vhcurveto
          -103 -3 155 731 109 -1 rlineto
          201 -2 112 -101 -191 vvcurveto
          endchar
        </CharString>
        <CharString name="Llinebelow">
          -2 callsubr
          202 -355 -66 callsubr
        </CharString>
        <CharString name="Lslash">
          1136 191 643 rmoveto
          156 44 -109 -507 -18 -90 -22 -20 -130 -16 rlinecurve
          -12 -54 1007 0 -31 callsubr
          149 701 359 102 15 69 -359 -102 91 432 20 90 23 19 137 16 rlinecurve
          11 54 -551 0 -11 -54 123 -14 13 -22 -20 -97 rlinecurve
          -107 -501 -154 -44 rlineto
          endchar
        </CharString>
        <CharString name="M">
          1760 785 1444 33 callsubr
        </CharString>
        <CharString name="Macute">
          1760 1329 -82 callsubr
          -77 callsubr
          -776 -379 33 callsubr
        </CharString>
        <CharString name="Mdotaccent">
          1760 1239 -78 callsubr
          -51 callsubr
          -454 -132 33 callsubr
        </CharString>
        <CharString name="Mdotbelow">
          1760 785 1444 rmoveto
          -404 hlineto
          -11 -54 115 -16 18 -37 -28 -112 rlinecurve
          -233 -969 -36 -148 -28 -35 -131 -19 rlinecurve
          -11 -54 397 0 11 54 -131 19 -11 33 33 150 rlinecurve
          215 992 194 -1248 114 0 160 297 541 957 -199 -1077 -17 -88 -23 -19 -131 -16 78 callsubr
          -122 -8 callgsubr
          -211 -497 -80 callsubr
          124 callsubr
        </CharString>
        <CharString name="Mugreek">
          1760 785 1444 33 callsubr
        </CharString>
        <CharString name="N">
          1452 716 1444 -68 callsubr
          -48 callsubr
        </CharString>
        <CharString name="Nacute">
          1452 1155 -82 callsubr
          -77 callsubr
          -671 -379 -68 callsubr
          -48 callsubr
        </CharString>
        <CharString name="Ncaron">
          1452 1292 -74 callsubr
          3 callsubr
          -639 -399 -68 callsubr
          -48 callsubr
        </CharString>
        <CharString name="Ncircumflexbelow">
          1452 35 callsubr
          -823 -752 -18 callsubr
          -96 callgsubr
        </CharString>
        <CharString name="Ncommaaccent">
          1452 35 callsubr
          -621 -758 -98 callgsubr
          -11 77 callsubr
          55 22 callsubr
          92 callgsubr
        </CharString>
        <CharString name="Ndotaccent">
          1452 1065 -78 callsubr
          46 -61 -62 -82 callgsubr
          -349 -132 -68 callsubr
          -48 callsubr
        </CharString>
        <CharString name="Ndotbelow">
          1452 35 callsubr
          -593 -482 -54 callsubr
          -19 callsubr
        </CharString>
        <CharString name="Ngrave">
          1452 1014 -17 callsubr
          23 callsubr
          -397 -99 -68 callsubr
          -48 callsubr
        </CharString>
        <CharString name="Njecyrillic">
          2087 505 180 rmoveto
          121 566 574 0 -120 -567 rlineto
          -19 -91 -22 -18 -130 -16 -11 -54 rcurveline
          545 hlineto
          431 280 186 276 214 -186 141 -352 hvcurveto
          -147 hlineto
          96 449 19 90 25 18 134 16 rlinecurve
          11 54 -549 0 -12 -54 120 -15 17 -18 -20 -93 rlinecurve
          -95 -447 -574 0 95 447 20 93 23 18 126 130 callsubr
          16 -18 -19 -93 rlinecurve
          -230 -1084 -20 -93 -22 -17 -129 -16 rlinecurve
          -11 -54 540 0 12 54 -118 15 -18 18 19 93 rlinecurve
          1379 296 rmoveto
          -233 -166 -166 -306 -11 vhcurveto
          -103 -3 147 686 115 -1 rlineto
          204 -3 109 -92 -177 vvcurveto
          endchar
        </CharString>
        <CharString name="Nlinebelow">
          1452 35 callsubr
          -861 -651 -24 callsubr
        </CharString>
        <CharString name="Ntilde">
          1452 1163 163 callsubr
          -36 17 -44 hhcurveto
          -78 -60 -56 -177 -21 hvcurveto
          53 hlineto
          84 14 24 28 34 hhcurveto
          26 19 -12 -23 28 hvcurveto
          27 -21 rlineto
          -28 36 35 -18 45 hhcurveto
          -447 -144 -68 callsubr
          -48 callsubr
        </CharString>
        <CharString name="Nugreek">
          1452 716 1444 -68 callsubr
          -48 callsubr
        </CharString>
        <CharString name="O">
          1582 879 -22 -105 callsubr
          -104 callsubr
          -103 callsubr
          -99 callsubr
        </CharString>
        <CharString name="OE">
          1977 250 643 rmoveto
          -386 259 -281 397 vhcurveto
          131 70 24 135 hhcurveto
          657 hlineto
          101 400 rlineto
          -47 hlineto
          -105 -254 -98 -63 -270 -11 rrcurveto
          -230 -9 137 642 235 -3 107 -3 19 -43 -5 -161 rlinecurve
          46 hlineto
          102 477 rlineto
          -47 hlineto
          -61 -156 -38 -37 -108 -3 rrcurveto
          -235 -3 129 608 210 -9 250 -11 40 -51 11 -228 rlinecurve
          47 hlineto
          62 362 rlineto
          -702 hlineto
          -148 -73 24 -154 hhcurveto
          -488 -336 -360 -465 hvcurveto
          271 -66 rmoveto
          393 209 424 373 75 58 -11 -18 38 vhcurveto
          -276 -1303 rlineto
          -9 -26 -27 -3 -29 hhcurveto
          -257 -138 216 311 hvcurveto
          endchar
        </CharString>
        <CharString name="Oacute">
          1582 1178 -64 callsubr
          -531 -1845 -105 callsubr
          -104 callsubr
          -103 callsubr
          -99 callsubr
        </CharString>
        <CharString name="Obreve">
          1582 1101 169 callsubr
          -69 167 callsubr
          -222 -1602 -105 callsubr
          -104 callsubr
          -103 callsubr
          -99 callsubr
        </CharString>
        <CharString name="Ocaron">
          1582 1316 71 callsubr
          -106 callgsubr
          73 callsubr
          -499 -1865 -105 callsubr
          -104 callsubr
          -103 callsubr
          -99 callsubr
        </CharString>
        <CharString name="Ocircumflex">
          1582 875 2 callsubr
          6 callsubr
          65 -1566 -105 callsubr
          -104 callsubr
          -103 callsubr
          -99 callsubr
        </CharString>
        <CharString name="Ocircumflexacute">
          1582 1396 1823 141 callsubr
          -52 -247 -21 callsubr
          92 -1569 -105 callsubr
          -104 callsubr
          -103 callsubr
          -99 callsubr
        </CharString>
        <CharString name="Ocircumflexdotbelow">
          1582 875 2 callsubr
          6 callsubr
          65 -1566 -105 callsubr
          -104 callsubr
          -103 callsubr
          172 callsubr
          -64 -241 -80 callsubr
          124 callsubr
        </CharString>
        <CharString name="Ocircumflexgrave">
          1582 846 -32 callgsubr
          92 -1569 -105 callsubr
          -104 callsubr
          -103 callsubr
          -99 callsubr
        </CharString>
        <CharString name="Ocircumflexhookabove">
          1582 1373 222 callsubr
          92 -1569 -105 callsubr
          -104 callsubr
          -103 callsubr
          -99 callsubr
        </CharString>
        <CharString name="Ocircumflextilde">
          1582 1228 1772 rmoveto
          94 110 callsubr
          -28 7 12 -37 -67 callgsubr
          -1 callgsubr
          92 -1569 -105 callsubr
          -104 callsubr
          -103 callsubr
          -99 callsubr
        </CharString>
        <CharString name="Ocyrillic">
          1582 879 -22 -105 callsubr
          -104 callsubr
          -103 callsubr
          -99 callsubr
        </CharString>
        <CharString name="Odblgrave">
          1582 889 1822 -25 callgsubr
          52 hlineto
          200 -63 callgsubr
          -345 -1565 -105 callsubr
          -104 callsubr
          -103 callsubr
          -99 callsubr
        </CharString>
        <CharString name="Odieresis">
          1582 932 18 callsubr
          56 callsubr
          313 hmoveto
          57 47 46 59 61 callsubr
          -1 vhcurveto
          -55 43 -42 56 vhcurveto
          -366 -1604 -105 callsubr
          -104 callsubr
          -103 callsubr
          -99 callsubr
        </CharString>
        <CharString name="Odieresismacron">
          1582 846 99 callsubr
          36 callsubr
          -327 -1580 -105 callsubr
          -104 callsubr
          -103 callsubr
          -99 callsubr
        </CharString>
        <CharString name="Odotaccent">
          1582 1089 1576 -11 callsubr
          136 callsubr
          -210 -1598 -105 callsubr
          -104 callsubr
          -103 callsubr
          -99 callsubr
        </CharString>
        <CharString name="Odotaccentmacron">
          1582 840 1798 -23 callgsubr
          223 -340 rmoveto
          54 40 36 48 46 -45 36 -53 -54 -40 -36 -46 1 hvcurveto
          -48 43 -36 54 vhcurveto
          -205 -1576 -105 callsubr
          -104 callsubr
          -103 callsubr
          -99 callsubr
        </CharString>
        <CharString name="Odotbelow">
          1582 879 -22 -105 callsubr
          -104 callsubr
          -103 callsubr
          172 callsubr
          -64 -241 -80 callsubr
          124 callsubr
        </CharString>
        <CharString name="Ograve">
          1582 1038 -17 callsubr
          258 -273 rlineto
          50 hlineto
          -257 -1565 -105 callsubr
          -104 callsubr
          -103 callsubr
          -99 callsubr
        </CharString>
        <CharString name="Ohookabove">
          1582 1121 17 callsubr
          -1 callsubr
          -101 callgsubr
          -242 -1885 -105 callsubr
          -104 callsubr
          -103 callsubr
          -99 callsubr
        </CharString>
        <CharString name="Ohorn">
          1594 242 632 31 callsubr
        </CharString>
        <CharString name="Ohornacute">
          1594 1180 -82 callsubr
          -97 callgsubr
          -1169 -1191 31 callsubr
        </CharString>
        <CharString name="Ohorndotbelow">
          1594 242 632 rmoveto
          -381 250 -272 388 456 311 387 446 266 -125 209 -200 104 vhcurveto
          -6 36 41 -4 44 hhcurveto
          176 149 72 143 84 -49 74 -66 37 hvcurveto
          -50 hlineto
          8 -17 4 -28 -29 vvcurveto
          -149 -105 -126 -184 vhcurveto
          -108 -72 23 -136 hhcurveto
          -457 -311 -387 -446 hvcurveto
          273 -88 rmoveto
          406 202 438 312 -90 callgsubr
          -92 callgsubr
          -209 -136 166 323 vhcurveto
          289 -730 -80 callsubr
          -58 callsubr
        </CharString>
        <CharString name="Ohorngrave">
          1594 1039 -17 callsubr
          23 callsubr
          -896 -911 31 callsubr
        </CharString>
        <CharString name="Ohornhookabove">
          1594 1122 1863 rmoveto
          -77 -68 -35 -52 -1 callsubr
          -101 callgsubr
          -880 -1231 31 callsubr
        </CharString>
        <CharString name="Ohorntilde">
          1594 1188 1588 rmoveto
          78 1 59 55 21 179 rrcurveto
          -52 0 callsubr
          9 callgsubr
          -18 46 hhcurveto
          -946 -956 31 callsubr
        </CharString>
        <CharString name="Ohungarumlaut">
          1582 1015 1823 rmoveto
          -127 -279 56 0 258 274 rlineto
          5 vlineto
          122 hmoveto
          -182 -279 58 0 325 274 rlineto
          5 vlineto
          -646 -1845 -105 callsubr
          -104 callsubr
          -103 callsubr
          -99 callsubr
        </CharString>
        <CharString name="Oinvertedbreve">
          1582 1100 132 callsubr
          -44 callgsubr
          99 69 -53 -73 -11 -1 35 callgsubr
          -221 -1898 -105 callsubr
          -104 callsubr
          -103 callsubr
          -99 callsubr
        </CharString>
        <CharString name="Omacron">
          39 callgsubr
          19 -1766 -105 callsubr
          -104 callsubr
          -103 callsubr
          -99 callsubr
        </CharString>
        <CharString name="Omacronacute">
          1582 1401 1845 -34 callgsubr
          -38 -178 -22 callgsubr
          63 -1708 -105 callsubr
          -104 callsubr
          -103 callsubr
          -99 callsubr
        </CharString>
        <CharString name="Omacrongrave">
          1582 851 21 callgsubr
          63 -1708 -105 callsubr
          -104 callsubr
          -103 callsubr
          -99 callsubr
        </CharString>
        <CharString name="Omegagreek">
          1678 144 hmoveto
          587 hlineto
          57 271 -166 71 -98 -20 callgsubr
          -57 -266 609 0 114 337 rlineto
          -43 hlineto
          -111 -160 -111 -31 -364 -1 16 74 rcurveline
          441 81 239 289 4 302 4 324 -266 251 -406 1 -489 0 -314 -311 -5 -366 -4 -271 175 -217 290 -71 rrcurveto
          -17 -86 -363 1 -72 30 -44 161 rlinecurve
          -43 hlineto
          endchar
        </CharString>
        <CharString name="Omegatonosgreek">
          1862 328 hmoveto
          587 hlineto
          57 271 -167 71 -97 -20 callgsubr
          -58 -266 610 0 114 337 rlineto
          -43 hlineto
          -111 -160 -112 -31 -363 -1 16 74 rcurveline
          440 81 239 289 5 302 4 324 -266 251 -406 1 -490 0 -313 -311 -5 -366 -5 -271 175 -217 291 -71 rrcurveto
          -17 -86 -363 1 -72 30 -44 161 rlinecurve
          -44 hlineto
          14 1107 55 callsubr
          endchar
        </CharString>
        <CharString name="Omicrongreek">
          1582 879 -22 -105 callsubr
          -104 callsubr
          -103 callsubr
          -99 callsubr
        </CharString>
        <CharString name="Omicrontonosgreek">
          1755 1052 -22 -105 callsubr
          -386 -457 -311 -387 -445 -1 hvcurveto
          -103 callsubr
          vhcurveto
          -680 1466 55 callsubr
          425 -1389 rmoveto
          -209 -137 167 322 406 203 438 313 207 138 -165 -323 -434 -216 -411 -299 hvcurveto
          endchar
        </CharString>
        <CharString name="Oogonek">
          1582 803 -478 rmoveto
          79 -61 callgsubr
          -62 -41 62 90 65 25 68 54 60 hvcurveto
          452 311 388 445 381 -250 272 -104 callsubr
          216 callsubr
        </CharString>
        <CharString name="Oogonekmacron">
          39 callgsubr
          -57 -2222 rmoveto
          79 -61 callgsubr
          -62 -41 62 90 65 25 68 54 60 hvcurveto
          452 311 388 445 381 -250 272 -104 callsubr
          216 callsubr
        </CharString>
        <CharString name="Oslash">
          1582 880 -21 rmoveto
          456 311 388 445 184 callsubr
        </CharString>
        <CharString name="Oslashacute">
          1582 1178 -64 callsubr
          -530 -1844 rmoveto
          456 311 388 445 184 callsubr
        </CharString>
        <CharString name="Otilde">
          1582 1186 127 callsubr
          -52 0 callsubr
          171 callsubr
          -307 -1610 -105 callsubr
          -104 callsubr
          -103 callsubr
          -99 callsubr
        </CharString>
        <CharString name="Otildeacute">
          1582 1401 1844 -34 callgsubr
          350 -204 -39 callsubr
          98 callsubr
          -305 -1584 -105 callsubr
          -104 callsubr
          -103 callsubr
          -99 callsubr
        </CharString>
        <CharString name="Otildedieresis">
          1582 956 160 callsubr
          32 -34 51 hhcurveto
          316 hmoveto
          50 13 callgsubr
          -71 -228 -39 callsubr
          98 callsubr
          -305 -1584 -105 callsubr
          -104 callsubr
          -103 callsubr
          -99 callsubr
        </CharString>
        <CharString name="Otildemacron">
          1582 845 1821 -23 callgsubr
          318 -355 -39 callsubr
          98 callsubr
          -305 -1584 -105 callsubr
          -104 callsubr
          -103 callsubr
          -99 callsubr
        </CharString>
        <CharString name="P">
          1274 620 hmoveto
          32 callsubr
        </CharString>
        <CharString name="Pacute">
          1274 1031 1823 rmoveto
          -205 -279 59 0 378 273 rlineto
          6 vlineto
          -643 -1823 rmoveto
          32 callsubr
        </CharString>
        <CharString name="Pdotaccent">
          1274 941 -78 callsubr
          46 -60 -63 -50 -49 -63 -58 45 -45 60 hvcurveto
          -321 -1576 rmoveto
          32 callsubr
        </CharString>
        <CharString name="Pecyrillic">
          1534 1372 180 rmoveto
          231 1084 19 94 24 17 127 15 rlinecurve
          12 54 -1426 0 -11 -54 122 -16 16 -17 -19 -93 rlinecurve
          -231 -1084 -19 -93 -23 -17 -130 -16 rlinecurve
          -11 -54 540 0 12 54 -116 14 -18 19 19 93 rlinecurve
          255 1195 627 0 -254 -1195 -20 -94 -21 -17 -128 -15 rlinecurve
          -11 -54 540 0 11 54 -118 14 -19 19 20 93 rlinecurve
          endchar
        </CharString>
        <CharString name="Phigreek">
          1818 237 706 rmoveto
          -28 -304 220 -175 404 -21 rrcurveto
          -6 -31 -19 -88 -23 -23 -124 -14 rlinecurve
          -11 -51 517 0 11 51 rlineto
          -120 15 -13 22 18 88 6 29 rcurveline
          457 10 329 186 29 341 28 305 -227 172 -397 21 rrcurveto
          6 29 18 88 23 23 124 14 rlinecurve
          10 51 -517 0 -10 -51 120 -14 14 -23 -19 -88 rlinecurve
          -6 -27 -449 -9 -335 -182 -30 -344 rlinecurve
          272 -10 rmoveto
          21 262 151 207 356 10 rrcurveto
          -190 -902 -261 25 -100 155 23 243 rlinecurve
          1104 55 rmoveto
          -23 -264 -149 -206 -358 -11 rrcurveto
          191 902 261 -25 100 -155 -22 -241 rlinecurve
          endchar
        </CharString>
        <CharString name="Pigreek">
          1572 1397 180 rmoveto
          230 1083 19 92 26 19 135 16 rlinecurve
          12 54 -1453 0 -11 -54 131 -17 15 -17 -19 -92 rlinecurve
          -231 -1085 -19 -91 -23 -17 -138 -18 rlinecurve
          -11 -54 560 0 11 54 -128 16 -17 19 20 91 rlinecurve
          253 1195 636 0 -252 -1194 -20 -92 -22 -18 -136 -16 rlinecurve
          -12 -54 559 0 12 54 -130 15 -17 19 20 92 rlinecurve
          endchar
        </CharString>
        <CharString name="Psigreek">
          1762 579 hmoveto
          575 hlineto
          12 54 rlineto
          -143 16 -16 21 19 87 72 343 rcurveline
          340 12 181 110 129 361 77 214 rcurveline
          46 127 35 29 93 8 11 54 rcurveline
          3 -27 -52 4 -51 hhcurveto
          -156 -78 -43 -180 -64 hvcurveto
          -79 -221 -103 -285 -92 -105 -195 -19 rlinecurve
          142 674 20 91 22 21 116 14 rlinecurve
          11 54 -505 0 -11 -54 rlineto
          110 -14 13 -21 -20 -91 -143 -674 rcurveline
          -188 19 -46 105 20 285 15 212 rcurveline
          180 12 -61 52 -160 hhcurveto
          -48 -55 -4 -3 -28 hvcurveto
          -12 -54 90 -8 28 -29 -9 -127 rlinecurve
          -15 -214 -25 -359 130 -112 338 -12 rlinecurve
          -73 -343 -18 -87 -25 -22 -148 -15 rlinecurve
          endchar
        </CharString>
        <CharString name="Q">
          1590 1271 -374 rmoveto
          90 83 24 40 64 hvcurveto
          10 50 rlineto
          -123 -6 -84 32 -150 129 -117 101 rcurveline
          365 80 238 346 389 vvcurveto
          382 -250 272 -104 callsubr
          -330 187 -249 300 -61 vhcurveto
          177 -171 rlineto
          -152 160 95 -44 110 hhcurveto
          -412 429 rmoveto
          -208 -137 167 322 406 202 438 76 callgsubr
          endchar
        </CharString>
        <CharString name="R">
          1336 1032 hmoveto
          30 callsubr
          endchar
        </CharString>
        <CharString name="Racute">
          1336 1049 -64 callsubr
          -249 -1823 rmoveto
          30 callsubr
          endchar
        </CharString>
        <CharString name="Rcaron">
          1336 1186 -74 callsubr
          118 callsubr
          -217 -1843 rmoveto
          30 callsubr
          endchar
        </CharString>
        <CharString name="Rcommaaccent">
          1336 1032 hmoveto
          30 callsubr
          -482 -1542 rmoveto
          141 94 67 107 104 -77 62 -89 -99 callgsubr
          108 callsubr
        </CharString>
        <CharString name="Rdblgrave">
          1336 760 -15 callgsubr
          -63 -1543 rmoveto
          30 callsubr
          endchar
        </CharString>
        <CharString name="Rdotaccent">
          1336 959 74 callgsubr
          73 -1576 rmoveto
          30 callsubr
          endchar
        </CharString>
        <CharString name="Rdotbelow">
          1336 1032 hmoveto
          30 callsubr
          -453 -1266 -80 callsubr
          -58 callsubr
        </CharString>
        <CharString name="Rdotbelowmacron">
          1336 704 111 callsubr
          301 -1744 rmoveto
          30 callsubr
          -453 -1266 -80 callsubr
          -58 callsubr
        </CharString>
        <CharString name="Rhogreek">
          1274 620 hmoveto
          32 callsubr
        </CharString>
        <CharString name="Rinvertedbreve">
          1336 971 132 callsubr
          24 callgsubr
          61 -1876 rmoveto
          30 callsubr
          endchar
        </CharString>
        <CharString name="Rlinebelow">
          1336 1032 hmoveto
          30 callsubr
          -722 -1435 -66 callsubr
        </CharString>
        <CharString name="S">
          1120 584 -24 82 callsubr
          endchar
        </CharString>
        <CharString name="Sacute">
          1120 984 -82 callsubr
          -97 callgsubr
          -631 -1847 82 callsubr
          endchar
        </CharString>
        <CharString name="Sacutedotaccent">
          1120 932 1759 rmoveto
          54 40 36 47 hvcurveto
          48 -1 -44 35 -53 hhcurveto
          -53 -41 -35 -48 hvcurveto
          -47 1 44 -36 53 hhcurveto
          226 -138 rmoveto
          27 127 -584 -157 -10 -48 rlineto
          -7 -1567 82 callsubr
          endchar
        </CharString>
        <CharString name="Scaron">
          1120 1121 71 callsubr
          -154 -76 callgsubr
          -600 -1867 82 callsubr
          endchar
        </CharString>
        <CharString name="Scarondotaccent">
          1120 936 1779 rmoveto
          54 40 36 47 hvcurveto
          48 -1 -44 36 -53 hhcurveto
          -53 -41 -36 -48 1 hvcurveto
          -47 44 -36 53 vhcurveto
          259 -19 rmoveto
          -301 -88 -263 88 -10 -49 227 -164 42 0 296 164 rlineto
          -602 -1735 82 callsubr
          endchar
        </CharString>
        <CharString name="Scedilla">
          1120 482 -462 rmoveto
          146 90 75 105 103 -77 67 -118 4 hvcurveto
          75 84 rlineto
          277 5 238 162 271 vvcurveto
          158 -75 120 -176 120 vhcurveto
          -101 72 rlineto
          -136 92 -50 79 102 vvcurveto
          143 108 91 162 184 110 -125 -240 10 vhcurveto
          47 hlineto
          51 329 rlineto
          62 -76 -150 51 -183 hhcurveto
          -307 -198 -165 -246 -157 85 -116 169 -115 hvcurveto
          101 -72 rlineto
          137 -93 47 -84 -112 vvcurveto
          -162 -135 -94 -159 -192 -142 116 250 -5 vhcurveto
          -48 hlineto
          -54 -332 75 -54 161 -46 155 -9 rlinecurve
          -121 -135 -10 -50 rlineto
          1 3 20 2 6 hhcurveto
          69 41 -31 -51 -48 -38 -32 -65 -53 -48 -53 callgsubr
          endchar
        </CharString>
        <CharString name="Schwa">
          1479 756 -24 rmoveto
          442 311 367 451 404 -228 270 -408 -171 -171 -42 -71 -100 hvcurveto
          -76 -335 rlineto
          48 hlineto
          256 106 169 115 189 hhcurveto
          258 109 -229 -315 -54 -3 -53 -5 -50 hvcurveto
          -980 hlineto
          -20 -59 -14 -73 -71 vvcurveto
          -259 143 -252 401 vhcurveto
          -305 444 rmoveto
          70 9 74 16 57 vhcurveto
          741 hlineto
          -337 -50 -166 -235 -244 hhcurveto
          -212 -94 160 211 hvcurveto
          endchar
        </CharString>
        <CharString name="Scircumflex">
          1120 680 2 callsubr
          59 callsubr
          -35 -1568 82 callsubr
          endchar
        </CharString>
        <CharString name="Scommaaccent">
          1120 584 -24 82 callsubr
          -107 -438 64 callsubr
          -66 -54 -24 -43 -38 hvcurveto
          -10 77 callsubr
          55 40 -27 -48 -49 -74 callgsubr
          76 hhcurveto
          endchar
        </CharString>
        <CharString name="Sdotaccent">
          1120 894 -78 callgsubr
          -310 -1600 82 callsubr
          endchar
        </CharString>
        <CharString name="Sdotbelow">
          1120 584 -24 82 callsubr
          -78 -162 -80 callsubr
          57 callsubr
        </CharString>
        <CharString name="Sdotbelowdotaccent">
          1120 894 -78 callgsubr
          -310 -1600 82 callsubr
          -78 -162 -80 callsubr
          57 callsubr
        </CharString>
        <CharString name="Shacyrillic">
          2258 466 1264 rmoveto
          -231 -1084 -20 -94 -24 -17 -127 -15 rlinecurve
          -11 -54 2133 0 11 54 -120 15 -17 18 20 93 rlinecurve
          231 1084 211 callsubr
          254 1195 20 94 22 31 callgsubr
        </CharString>
        <CharString name="Shchacyrillic">
          2267 173 callsubr
          1828 hlineto
          204 23 -51 -268 18 hvcurveto
          59 hlineto
          69 388 -198 0 255 1195 211 callsubr
          255 1195 20 94 21 31 callgsubr
        </CharString>
        <CharString name="Sigmagreek">
          102 callgsubr
          -51 372 -699 -630 -643 -11 -51 1097 0 108 432 rlineto
          -53 hlineto
          -219 -98 -83 -32 -287 hhcurveto
          -443 hlineto
          613 618 5 22 -299 561 370 -10 270 -6 52 -54 5 -219 rlinecurve
          49 hlineto
          endchar
        </CharString>
        <CharString name="Softsigncyrillic">
          1242 204 callsubr
          -269 14 71 callgsubr
        </CharString>
        <CharString name="T">
          -37 callsubr
          endchar
        </CharString>
        <CharString name="Taugreek">
          -37 callsubr
          endchar
        </CharString>
        <CharString name="Tbar">
          1295 401 708 rmoveto
          270 hlineto
          -113 -531 -18 -87 -24 -20 -150 -16 rlinecurve
          -11 -54 133 callsubr
          87 rlinecurve
          112 531 273 0 13 64 -272 0 129 609 51 -2 249 -14 61 -53 -1 -230 rlinecurve
          49 hlineto
          61 362 -1168 0 48 callsubr
          -129 -609 rlineto
          -270 hlineto
          endchar
        </CharString>
        <CharString name="Tcaron">
          1295 1228 71 callsubr
          -154 -76 callgsubr
          247 -399 rmoveto
          -1168 hlineto
          48 callsubr
          109 callsubr
          133 callsubr
          101 callsubr
          endchar
        </CharString>
        <CharString name="Tcedilla">
          1295 566 182 callsubr
          1 1 243 0 11 54 -144 17 -15 19 19 101 callsubr
          61 362 -1168 0 48 callsubr
          109 callsubr
          274 0 -138 -158 -11 -50 rlineto
          1 4 19 2 7 hhcurveto
          68 41 -31 -51 -48 -39 -32 -63 -53 -48 19 26 -32 hvcurveto
          -12 -52 rlineto
          -51 40 66 -37 88 hhcurveto
          endchar
        </CharString>
        <CharString name="Tcircumflexbelow">
          -37 callsubr
          -1118 -1538 -18 callsubr
          59 0 -121 134 callsubr
        </CharString>
        <CharString name="Tcommaaccent">
          -37 callsubr
          -916 -1544 -98 callgsubr
          -10 -46 rlineto
          5 14 28 4 24 hhcurveto
          55 22 callsubr
          -41 20 20 -27 hvcurveto
          -10 -48 rlineto
          -43 34 63 -32 76 hhcurveto
          endchar
        </CharString>
        <CharString name="Tdotaccent">
          1295 1001 -78 callgsubr
          537 -132 rmoveto
          -1168 hlineto
          48 callsubr
          109 callsubr
          133 callsubr
          101 callsubr
          endchar
        </CharString>
        <CharString name="Tdotbelow">
          -37 callsubr
          -888 -1268 -54 callsubr
          -19 callsubr
        </CharString>
        <CharString name="Tecyrillic">
          -37 callsubr
          endchar
        </CharString>
        <CharString name="Thetagreek">
          1628 880 -24 rmoveto
          449 338 371 446 10 hvcurveto
          10 383 -236 294 -403 -2 -449 -1 -336 -373 -9 -446 rrcurveto
          -380 -10 234 -292 402 hhcurveto
          7 70 rmoveto
          -246 -125 223 335 12 hvcurveto
          391 11 164 403 338 hhcurveto
          250 123 -222 -339 -11 hvcurveto
          -391 -13 -167 -400 -336 hhcurveto
          -271 435 rmoveto
          45 hlineto
          152 54 44 50 99 hhcurveto
          182 hlineto
          98 22 -50 -152 -10 hvcurveto
          44 hlineto
          101 472 rlineto
          -44 hlineto
          -152 -59 -42 -46 -95 hhcurveto
          -182 hlineto
          -96 -22 46 152 7 hvcurveto
          -45 hlineto
          endchar
        </CharString>
        <CharString name="Thorn">
          1289 246 179 rmoveto
          -19 -92 -22 -18 -129 -15 rrcurveto
          -11 -54 542 0 11 54 rlineto
          -118 14 -19 18 19 93 33 156 rcurveline
          154 hlineto
          363 307 159 278 224 -189 140 -320 hvcurveto
          -144 hlineto
          27 129 20 92 24 17 127 16 rlinecurve
          11 54 -542 0 -11 -54 120 -16 16 -17 -19 -92 rlinecurve
          615 -474 rmoveto
          -197 -125 -183 -311 -10 vhcurveto
          -109 -3 143 674 107 -2 rlineto
          186 -7 109 -114 -158 vvcurveto
          endchar
        </CharString>
        <CharString name="Tlinebelow">
          -37 callsubr
          -1156 -1437 -24 callsubr
        </CharString>
        <CharString name="Tsecyrillic">
          1558 173 callsubr
          1119 hlineto
          205 23 -51 -268 17 hvcurveto
          59 hlineto
          70 388 -199 0 254 1195 20 93 22 17 129 16 rlinecurve
          11 54 -540 0 -11 -54 116 -41 callgsubr
          -627 0 254 1195 20 94 22 31 callgsubr
        </CharString>
        <CharString name="Tshecyrillic">
          1769 1546 1444 rmoveto
          -1178 hlineto
          -87 -362 rlineto
          48 hlineto
          98 229 71 53 -18 callgsubr
          528 rcurveline
          22 73 77 14 93 hhcurveto
          218 81 -127 -237 -51 hvcurveto
          -80 -378 399 0 11 54 rlineto
          -121 15 -16 17 19 93 39 184 rcurveline
          310 64 -162 151 -341 hhcurveto
          -117 -88 -18 -28 -83 hvcurveto
          129 603 87 -3 234 -13 54 -47 4 -236 rlinecurve
          47 hlineto
          endchar
        </CharString>
        <CharString name="U">
          1471 772 -24 -88 callsubr
        </CharString>
        <CharString name="Uacute">
          1471 1221 -64 callsubr
          -681 -1847 -88 callsubr
        </CharString>
        <CharString name="Ubreve">
          1471 1144 73 callgsubr
          -18 -71 -58 -125 hhcurveto
          -100 -69 167 callsubr
          -372 -1604 -88 callsubr
        </CharString>
        <CharString name="Ubrevecyrillic">
          1410 1106 1593 rmoveto
          158 136 88 179 54 hvcurveto
          -58 18 rlineto
          -143 -46 -110 -79 -126 hhcurveto
          -44 -37 11 19 -28 hvcurveto
          49 45 44 57 62 -46 47 -58 -66 -45 -50 -66 -101 85 -86 137 hvcurveto
          -874 -1479 192 callsubr
        </CharString>
        <CharString name="Ucaron">
          1471 1358 -74 callsubr
          -59 0 125 -279 73 callsubr
          -649 -1867 -88 callsubr
        </CharString>
        <CharString name="Ucircumflex">
          1471 918 -63 callsubr
          157 -148 57 0 6 callsubr
          -85 -1568 -88 callsubr
        </CharString>
        <CharString name="Ucircumflexbelow">
          87 callsubr
          -283 -432 -18 callsubr
          67 callsubr
          -258 -328 rlineto
          endchar
        </CharString>
        <CharString name="Ucyrillic">
          1410 232 114 192 callsubr
        </CharString>
        <CharString name="Udblgrave">
          1471 932 -15 callgsubr
          -495 -1567 -88 callsubr
        </CharString>
        <CharString name="Udieresis">
          1471 975 1582 rmoveto
          57 48 46 59 55 -42 43 -55 -59 -47 -46 -60 hvcurveto
          -55 -1 43 -42 56 hhcurveto
          312 hmoveto
          58 47 46 59 61 callsubr
          -1 vhcurveto
          -55 42 -42 56 vhcurveto
          -515 -1606 -88 callsubr
        </CharString>
        <CharString name="Udieresisacute">
          1471 1444 1844 -34 callgsubr
          73 -208 28 callsubr
          36 callsubr
          -477 -1582 -88 callsubr
        </CharString>
        <CharString name="Udieresisbelow">
          87 callsubr
          -246 -375 rmoveto
          64 51 49 62 hvcurveto
          58 -1 -46 44 -62 hhcurveto
          -64 -52 -48 -62 1 hvcurveto
          -58 47 -45 62 vhcurveto
          375 hmoveto
          65 50 49 62 hvcurveto
          58 -1 -46 44 -62 hhcurveto
          -64 -51 -48 -62 -58 47 -45 62 hvcurveto
          endchar
        </CharString>
        <CharString name="Udieresiscaron">
          1471 1472 1971 rmoveto
          -294 -85 -257 85 -11 -47 223 49 callgsubr
          36 callsubr
          -477 -1582 -88 callsubr
        </CharString>
        <CharString name="Udieresisgrave">
          1471 893 1844 rmoveto
          535 -78 10 48 -519 158 rlineto
          31 -414 28 callsubr
          36 callsubr
          -477 -1582 -88 callsubr
        </CharString>
        <CharString name="Udieresismacron">
          1471 889 99 callsubr
          36 callsubr
          -477 -1582 -88 callsubr
        </CharString>
        <CharString name="Udotbelow">
          87 callsubr
          -52 -162 -80 callsubr
          -58 callsubr
        </CharString>
        <CharString name="Ugrave">
          1471 1081 1822 rmoveto
          -211 -6 hlineto
          23 callsubr
          -407 -1567 -88 callsubr
        </CharString>
        <CharString name="Uhookabove">
          1471 1164 17 callsubr
          -1 callsubr
          176 callsubr
          -392 -1887 -88 callsubr
        </CharString>
        <CharString name="Uhorn">
          1563 310 601 49 callsubr
        </CharString>
        <CharString name="Uhornacute">
          1563 1229 -64 callsubr
          -1151 -1222 49 callsubr
        </CharString>
        <CharString name="Uhorndotbelow">
          1563 310 601 rmoveto
          -434 -93 245 -191 310 hhcurveto
          193 callsubr
          250 -1441 -80 callsubr
          -58 callsubr
        </CharString>
        <CharString name="Uhorngrave">
          1563 1089 -17 callsubr
          258 -273 rlineto
          50 hlineto
          -877 -942 49 callsubr
        </CharString>
        <CharString name="Uhornhookabove">
          1563 1172 17 callsubr
          -1 callsubr
          -101 callgsubr
          -862 -1262 49 callsubr
        </CharString>
        <CharString name="Uhorntilde">
          1563 1237 127 callsubr
          -52 0 callsubr
          171 callsubr
          -927 -987 49 callsubr
        </CharString>
        <CharString name="Uhungarumlaut">
          1471 1058 1823 rmoveto
          -128 -279 57 0 257 274 rlineto
          5 vlineto
          122 hmoveto
          -181 -279 58 0 325 274 rlineto
          5 vlineto
          -796 -1847 -88 callsubr
        </CharString>
        <CharString name="Uinvertedbreve">
          1471 1143 132 callsubr
          24 callgsubr
          -371 -1900 -88 callsubr
        </CharString>
        <CharString name="Umacron">
          1471 876 111 callsubr
          -131 -1768 -88 callsubr
        </CharString>
        <CharString name="Umacrondieresis">
          1471 1000 1790 rmoveto
          50 47 34 45 9 hvcurveto
          45 11 -32 33 -51 hhcurveto
          -8 hlineto
          -51 -47 -33 -45 -10 hvcurveto
          -45 -10 33 -34 50 hhcurveto
          316 hmoveto
          50 13 callgsubr
          103 callgsubr
          -107 -1710 -88 callsubr
        </CharString>
        <CharString name="Uogonek">
          1471 727 -478 rmoveto
          80 61 37 52 31 hvcurveto
          11 53 rlineto
          -18 -20 -27 -12 -30 hhcurveto
          -63 -41 62 90 64 25 67 53 59 hvcurveto
          310 15 200 213 76 337 rrcurveto
          145 646 34 150 24 33 128 20 rlinecurve
          11 54 -395 0 -11 -54 rlineto
          135 -21 10 -32 -29 -150 -129 -633 rcurveline
          -305 -62 164 callsubr
          20 129 19 rlinecurve
          11 54 -533 0 -11 -54 110 -18 15 -21 -20 -96 rlinecurve
          -139 -654 -90 -420 228 -193 296 -12 rlinecurve
          -128 -86 -77 -102 -101 vvcurveto
          -97 79 -68 110 vhcurveto
          endchar
        </CharString>
        <CharString name="Upsilondieresisgreek">
          1290 901 18 callsubr
          61 callsubr
          174 callsubr
          -746 -392 -71 callsubr
        </CharString>
        <CharString name="Upsilongreek">
          1290 468 1190 -71 callsubr
        </CharString>
        <CharString name="Upsilontonosgreek">
          1674 851 1190 rmoveto
          190 -533 -102 -479 -19 -88 -23 -21 -149 -15 rlinecurve
          -12 -54 586 0 11 54 -143 17 -48 callgsubr
          137 177 39 29 105 16 rlinecurve
          12 54 -393 0 -11 -54 133 -17 4 -39 -118 -161 rlinecurve
          -326 -444 -152 464 -46 139 18 41 135 17 rlinecurve
          12 54 -556 0 -11 -54 91 -15 29 -26 56 -159 rlinecurve
          -479 254 55 callsubr
          endchar
        </CharString>
        <CharString name="Uring">
          1471 919 1723 rmoveto
          -103 95 -62 114 145 97 79 107 103 -94 61 -114 -146 -97 -79 -106 vhcurveto
          140 -21 rmoveto
          82 46 70 56 44 26 -32 -56 -83 -46 -70 -55 -45 -26 32 57 vhcurveto
          -287 -1726 -88 callsubr
        </CharString>
        <CharString name="Utilde">
          1471 1229 127 callsubr
          -52 0 callsubr
          171 callsubr
          -457 -1612 -88 callsubr
        </CharString>
        <CharString name="Utildeacute">
          1471 1444 1844 -34 callgsubr
          350 -204 -39 callsubr
          98 callsubr
          -455 -1586 -88 callsubr
        </CharString>
        <CharString name="Utildebelow">
          87 callsubr
          47 -390 106 callsubr
          -28 -22 14 25 -32 hvcurveto
          -30 24 rlineto
          32 -41 -38 19 -51 hhcurveto
          -86 -65 -61 -193 -23 hvcurveto
          55 hlineto
          94 17 26 31 40 hhcurveto
          28 22 -13 -25 32 hvcurveto
          30 -24 rlineto
          -31 40 40 -21 49 hhcurveto
          endchar
        </CharString>
        <CharString name="V">
          101 callgsubr
          endchar
        </CharString>
        <CharString name="Vdotbelow">
          101 callgsubr
          189 -1374 rmoveto
          -63 -51 -50 -61 -58 45 -46 60 63 51 50 62 58 -46 45 -59 hvcurveto
          endchar
        </CharString>
        <CharString name="Vecyrillic">
          1312 1318 448 86 callsubr
        </CharString>
        <CharString name="Vtilde">
          1346 1190 163 callsubr
          -36 17 -45 hhcurveto
          -78 9 callgsubr
          -18 46 hhcurveto
          -753 -400 rmoveto
          206 callsubr
          endchar
        </CharString>
        <CharString name="W">
          2073 431 1188 -10 callsubr
        </CharString>
        <CharString name="Wacute">
          2073 1565 -82 callsubr
          -77 callsubr
          -1366 -635 -10 callsubr
        </CharString>
        <CharString name="Wcircumflex">
          2073 1262 -63 callsubr
          -22 callsubr
          21 callsubr
          -770 -356 -10 callsubr
        </CharString>
        <CharString name="Wdieresis">
          2073 1318 18 callsubr
          61 callsubr
          174 callsubr
          -1200 -394 -10 callsubr
        </CharString>
        <CharString name="Wdotaccent">
          2073 1475 -78 callsubr
          -51 callsubr
          -1044 -388 -10 callsubr
        </CharString>
        <CharString name="Wdotbelow">
          2073 431 1188 rmoveto
          113 -1193 150 0 587 1150 92 -1150 153 0 605 1170 95 184 40 26 110 15 rlinecurve
          11 54 -401 0 -11 -54 133 -18 10 -35 -81 -168 rlinecurve
          -442 -910 -61 926 -11 159 17 28 131 18 rlinecurve
          12 54 -532 0 -12 -54 131 -20 10 -38 -77 -158 rlinecurve
          -441 -915 -67 928 -11 147 22 38 136 18 rlinecurve
          12 54 -555 0 -11 -54 93 -14 35 -27 15 -161 rlinecurve
          551 -1374 -80 callsubr
          -58 callsubr
        </CharString>
        <CharString name="Wgrave">
          2073 1424 -17 callsubr
          23 callsubr
          -1092 -355 -10 callsubr
        </CharString>
        <CharString name="X">
          1300 318 277 29 callsubr
        </CharString>
        <CharString name="Xdieresis">
          1300 925 1582 rmoveto
          -6 callsubr
          104 callsubr
          -919 -1305 29 callsubr
        </CharString>
        <CharString name="Xdotaccent">
          1300 1081 -78 callsubr
          -51 callsubr
          -763 -1299 29 callsubr
        </CharString>
        <CharString name="Xigreek">
          1310 1550 1444 rmoveto
          -1151 hlineto
          -98 -388 rlineto
          50 hlineto
          179 88 86 35 253 hhcurveto
          320 hlineto
          253 70 -35 -179 12 hvcurveto
          51 hlineto
          -792 -360 rmoveto
          248 hlineto
          134 30 -52 -145 -9 hvcurveto
          47 hlineto
          98 459 rlineto
          -48 hlineto
          -143 -53 -52 -50 -133 hhcurveto
          -247 hlineto
          -134 -31 50 143 8 hvcurveto
          -47 hlineto
          -98 -459 rlineto
          48 hlineto
          145 53 52 52 134 hhcurveto
          565 -696 rmoveto
          108 431 rlineto
          -50 hlineto
          -221 -99 -81 -32 -288 hhcurveto
          -283 hlineto
          -288 -66 32 221 -6 hvcurveto
          -50 hlineto
          -74 -431 rlineto
          endchar
        </CharString>
        <CharString name="Xigreek.1">
          1339 67 hmoveto
          1192 hlineto
          109 431 rlineto
          -51 hlineto
          -221 -99 -81 -32 -287 hhcurveto
          -119 hlineto
          110 518 rlineto
          101 hlineto
          135 29 -52 -145 -9 hvcurveto
          48 hlineto
          97 459 rlineto
          -47 hlineto
          -143 -53 -53 -50 -133 hhcurveto
          -101 hlineto
          107 505 rlineto
          138 hlineto
          253 71 -35 -179 12 hvcurveto
          50 hlineto
          66 388 -1166 0 -99 -388 rlineto
          51 hlineto
          179 88 86 35 253 hhcurveto
          137 hlineto
          -107 -505 rlineto
          -102 hlineto
          -133 -31 50 143 8 hvcurveto
          -47 hlineto
          -98 -459 rlineto
          47 hlineto
          145 54 51 52 135 hhcurveto
          102 hlineto
          -110 -518 rlineto
          -121 hlineto
          -287 -67 32 221 -5 hvcurveto
          -51 hlineto
          endchar
        </CharString>
        <CharString name="Y">
          1290 468 1190 -71 callsubr
        </CharString>
        <CharString name="Yacute">
          1290 1148 -82 callsubr
          -77 callsubr
          -912 -633 -71 callsubr
        </CharString>
        <CharString name="Ycircumflex">
          1290 845 -63 callsubr
          -22 callsubr
          21 callsubr
          -316 -354 -71 callsubr
        </CharString>
        <CharString name="Ydieresis">
          1290 901 18 callsubr
          61 callsubr
          174 callsubr
          -746 -392 -71 callsubr
        </CharString>
        <CharString name="Ydotaccent">
          1290 1058 -78 callsubr
          -51 callsubr
          -590 -386 -71 callsubr
        </CharString>
        <CharString name="Ydotbelow">
          1290 468 1190 rmoveto
          189 -533 -102 -479 -18 -88 -24 -21 -149 -15 rlinecurve
          -11 -54 585 0 12 54 -144 17 -48 callgsubr
          213 callsubr
          123 -1376 -80 callsubr
          -58 callsubr
        </CharString>
        <CharString name="Yericyrillic">
          1854 204 callsubr
          385 -305 -85 callsubr
          124 -14 13 -20 76 callsubr
          -131 -15 rlinecurve
          -11 -54 122 callsubr
          -654 319 71 callgsubr
        </CharString>
        <CharString name="Ygrave">
          1290 1007 -17 callsubr
          23 callsubr
          -638 -353 -71 callsubr
        </CharString>
        <CharString name="Yhookabove">
          1290 1091 17 callsubr
          -37 hvcurveto
          -9 -41 rlineto
          21 29 38 13 43 hhcurveto
          63 34 -26 -43 -50 176 callsubr
          -623 -673 -71 callsubr
        </CharString>
        <CharString name="Yicyrillic">
          652 524 1582 rmoveto
          58 47 47 -102 callgsubr
          -27 callgsubr
          105 callsubr
          -346 -1402 -85 callsubr
          -87 callsubr
        </CharString>
        <CharString name="Ymacron">
          1290 803 1621 rmoveto
          490 hlineto
          26 123 rlineto
          -490 hlineto
          -361 -554 -71 callsubr
        </CharString>
        <CharString name="Ytilde">
          1290 1156 163 callsubr
          -35 17 -45 hhcurveto
          -78 -60 -56 -177 -21 hvcurveto
          53 -33 callgsubr
          27 hvcurveto
          27 -21 rlineto
          -28 36 35 -18 45 hhcurveto
          -688 -398 -71 callsubr
        </CharString>
        <CharString name="Z">
          1198 1115 hmoveto
          -72 callsubr
          1 callsubr
        </CharString>
        <CharString name="Zacute">
          1198 1048 -82 callsubr
          -77 callsubr
          -165 -1823 rmoveto
          -72 callsubr
          1 callsubr
        </CharString>
        <CharString name="Zcaron">
          1198 1185 -74 callsubr
          3 callsubr
          -133 -1843 rmoveto
          -72 callsubr
          1 callsubr
        </CharString>
        <CharString name="Zcircumflex">
          1198 745 -63 callsubr
          -22 callsubr
          21 callsubr
          431 -1544 rmoveto
          -72 callsubr
          1 callsubr
        </CharString>
        <CharString name="Zdotaccent">
          1198 958 -78 callsubr
          -51 callsubr
          157 -1576 rmoveto
          -72 callsubr
          1 callsubr
        </CharString>
        <CharString name="Zdotbelow">
          1198 1115 hmoveto
          -72 callsubr
          -112 -267 -109 -49 -297 37 callsubr
          481 -186 -80 callsubr
          -58 callsubr
        </CharString>
        <CharString name="Zecyrillic">
          1263 607 -24 rmoveto
          390 272 183 293 188 -160 97 -224 19 hvcurveto
          259 33 201 124 229 vvcurveto
          209 -176 118 -296 -163 -159 -47 -67 -101 vhcurveto
          -79 -330 rlineto
          48 hlineto
          266 104 156 102 177 hhcurveto
          147 78 -105 -143 -216 -137 -150 -241 hvcurveto
          -144 hlineto
          -15 -69 rlineto
          144 hlineto
          203 105 -94 -179 -197 -124 -188 -269 -2 hvcurveto
          -202 -1 -111 149 -11 209 rrcurveto
          -48 hlineto
          -43 -313 rlineto
          -62 79 152 -56 188 hhcurveto
          endchar
        </CharString>
        <CharString name="Zetagreek">
          1198 1115 hmoveto
          -72 callsubr
          1 callsubr
        </CharString>
        <CharString name="Zhecyrillic">
          2059 331 hmoveto
          622 707 110 1 -112 -529 -19 -92 -24 -16 -137 -17 rlinecurve
          -12 -54 563 0 11 54 -128 16 -19 17 19 92 rlinecurve
          112 529 112 -1 312 -707 320 0 11 51 -61 25 -38 44 -95 207 rlinecurve
          -245 554 311 281 178 162 72 47 124 19 rlinecurve
          11 54 -438 0 -11 -54 139 -16 -6 -44 -134 -131 rlinecurve
          -432 -420 -115 -1 104 487 19 92 26 17 135 16 rlinecurve
          12 54 -563 0 -11 -54 130 -15 17 -18 -20 -92 rlinecurve
          -103 -487 -110 0 -262 422 -86 137 32 39 136 14 rlinecurve
          11 54 -448 0 -11 -54 119 -22 55 -41 114 -164 rlinecurve
          186 -265 -493 -568 rlineto
          -181 -207 -55 -48 -69 -24 -11 -51 rcurveline
          endchar
        </CharString>
        <CharString name="Zlinebelow">
          1198 1115 hmoveto
          -72 callsubr
          -112 -267 -109 -49 -297 37 callsubr
          212 -355 -66 callsubr
        </CharString>
        <CharString name="a">
          1112 -73 callsubr
          -107 callsubr
          -100 callsubr
        </CharString>
        <CharString name="a.dnum">
          687 116 184 rmoveto
          -123 67 -72 88 82 66 50 90 32 vhcurveto
          -1 -5 -4 -25 -5 vvcurveto
          -69 -10 31 -34 63 hhcurveto
          62 61 28 39 30 hvcurveto
          8 40 rlineto
          -12 -16 -23 -6 -19 hhcurveto
          -25 -12 16 37 9 hvcurveto
          83 392 -92 0 -64 -58 rlineto
          36 -16 -43 33 -74 hhcurveto
          -170 -115 -160 -192 2 hvcurveto
          164 -7 rmoveto
          122 -1 50 174 109 hhcurveto
          38 26 -17 -20 7 hvcurveto
          -51 -240 rlineto
          -79 -18 -46 -45 -45 hhcurveto
          -42 -25 29 76 -2 hvcurveto
          endchar
        </CharString>
        <CharString name="a.numr">
          687 263 877 rmoveto
          -123 67 -73 88 81 66 51 89 33 vhcurveto
          -1 -4 -5 -25 -5 vvcurveto
          -69 -9 31 -34 63 hhcurveto
          62 61 28 38 29 hvcurveto
          9 40 rlineto
          -12 -16 -23 -6 -19 hhcurveto
          -25 -12 17 37 9 hvcurveto
          83 391 -92 0 -64 79 callgsubr
          2 hvcurveto
          164 -8 rmoveto
          123 -1 50 173 109 hhcurveto
          38 26 -16 -21 7 hvcurveto
          -51 -240 rlineto
          -79 -18 -46 -44 -46 hhcurveto
          -41 -26 28 76 -1 hvcurveto
          endchar
        </CharString>
        <CharString name="a.sups">
          687 302 1062 rmoveto
          -124 1 66 -72 89 hhcurveto
          81 66 50 90 33 hvcurveto
          -1 -4 -5 -25 -6 vvcurveto
          -68 -9 30 -34 64 hhcurveto
          61 62 28 38 29 hvcurveto
          9 40 rlineto
          -12 -16 -24 -6 -18 hhcurveto
          -26 -11 17 37 9 hvcurveto
          83 391 -93 0 -63 79 callgsubr
          1 hvcurveto
          165 -8 rmoveto
          123 -2 51 173 109 hhcurveto
          38 26 -16 -21 7 hvcurveto
          -52 -240 rlineto
          -79 -18 -45 -44 -46 hhcurveto
          -41 -26 28 76 -1 hvcurveto
          endchar
        </CharString>
        <CharString name="aacute">
          1112 910 -93 callsubr
          66 callsubr
          -992 -1139 -106 callsubr
          -107 callsubr
          -100 callsubr
        </CharString>
        <CharString name="abreve">
          1112 813 128 callsubr
          8 hvcurveto
          -56 hlineto
          -111 -21 -79 177 callsubr
          -42 callgsubr
          -633 -802 -106 callsubr
          -107 callsubr
          -100 callsubr
        </CharString>
        <CharString name="abreveacute">
          1112 1115 112 callsubr
          209 -282 -45 callsubr
          -17 -97 -42 -118 hhcurveto
          -118 -79 42 63 9 hvcurveto
          -59 hlineto
          -146 -39 95 -93 162 hhcurveto
          -587 -758 -106 callsubr
          -107 callsubr
          -100 callsubr
        </CharString>
        <CharString name="abrevecyrillic">
          1112 777 102 callsubr
          -19 callgsubr
          -597 -811 -106 callsubr
          -107 callsubr
          -100 callsubr
        </CharString>
        <CharString name="abrevedotbelow">
          1112 813 128 callsubr
          8 hvcurveto
          -56 hlineto
          -111 -21 -79 177 callsubr
          -42 callgsubr
          -633 -802 -106 callsubr
          -107 callsubr
          -79 callsubr
          -16 callsubr
          41 callsubr
          161 -736 -83 callsubr
          15 callsubr
        </CharString>
        <CharString name="abrevegrave">
          1112 578 97 callgsubr
          158 -523 -45 callsubr
          -17 -97 -42 -118 hhcurveto
          -118 -79 42 63 9 hvcurveto
          -59 hlineto
          -146 -39 95 -93 162 hhcurveto
          -587 -758 -106 callsubr
          -107 callsubr
          -100 callsubr
        </CharString>
        <CharString name="abrevehookabove">
          1112 853 1605 rmoveto
          -77 -67 -35 -38 -40 hvcurveto
          -10 56 callgsubr
          17 83 rlinecurve
          82 18 -72 46 -92 hhcurveto
          -86 -505 -45 callsubr
          -17 -97 -42 -118 hhcurveto
          -118 -79 42 63 9 hvcurveto
          -59 hlineto
          -146 -39 95 -93 162 hhcurveto
          -587 -758 -106 callsubr
          -107 callsubr
          -100 callsubr
        </CharString>
        <CharString name="abrevetilde">
          1112 947 181 callsubr
          -38 -40 10 -46 hhcurveto
          -90 -78 58 callsubr
          89 callgsubr
          -180 -307 -45 callsubr
          -17 -97 -42 -118 hhcurveto
          -118 -79 42 63 9 hvcurveto
          -59 hlineto
          -146 -39 95 -93 162 hhcurveto
          -587 -758 -106 callsubr
          -107 callsubr
          -100 callsubr
        </CharString>
        <CharString name="acaron">
          1112 1058 -75 callsubr
          8 callsubr
          -947 -1153 -106 callsubr
          -107 callsubr
          -100 callsubr
        </CharString>
        <CharString name="acircumflex">
          1112 563 -42 callsubr
          5 callsubr
          -314 -774 -106 callsubr
          -107 callsubr
          -100 callsubr
        </CharString>
        <CharString name="acircumflexacute">
          1112 1115 81 callgsubr
          13 57 -209 193 -40 0 -289 -193 rlineto
          -330 -809 -106 callsubr
          -107 callsubr
          -100 callsubr
        </CharString>
        <CharString name="acircumflexdotbelow">
          1112 563 -42 callsubr
          5 callsubr
          -314 -774 -106 callsubr
          -107 callsubr
          -79 callsubr
          -16 callsubr
          41 callsubr
          161 -736 -83 callsubr
          15 callsubr
        </CharString>
        <CharString name="acircumflexgrave">
          1112 578 1474 rmoveto
          518 -92 12 56 75 callgsubr
          13 57 -209 193 -40 0 -289 -193 rlineto
          -330 -809 -106 callsubr
          -107 callsubr
          -100 callsubr
        </CharString>
        <CharString name="acircumflexhookabove">
          1112 1068 -93 callgsubr
          219 callsubr
          13 57 -209 193 -40 0 -289 -193 rlineto
          -330 -809 -106 callsubr
          -107 callsubr
          -100 callsubr
        </CharString>
        <CharString name="acircumflextilde">
          1112 947 181 callsubr
          -38 -40 10 -46 hhcurveto
          -90 -78 58 callsubr
          77 callgsubr
          13 57 -209 193 -40 0 -289 -193 rlineto
          -330 -809 -106 callsubr
          -107 callsubr
          -100 callsubr
        </CharString>
        <CharString name="acute">
          1024 888 -93 callsubr
          -81 callsubr
          endchar
        </CharString>
        <CharString name="acutecmb">
          0 376 -93 callsubr
          -81 callsubr
          endchar
        </CharString>
        <CharString name="acutecmb.short">
          0 347 1366 -26 callgsubr
          endchar
        </CharString>
        <CharString name="acutedotaccentcmb">
          0 312 63 callgsubr
          45 -42 56 hvcurveto
          87 callgsubr
          endchar
        </CharString>
        <CharString name="acutedotaccentcmb.short">
          0 393 1759 rmoveto
          54 41 36 47 -1 hvcurveto
          48 -44 35 -54 -53 -40 -35 -48 -47 44 -36 53 vhcurveto
          226 -138 141 callsubr
          endchar
        </CharString>
        <CharString name="acyrillic">
          1112 -73 callsubr
          -107 callsubr
          -100 callsubr
        </CharString>
        <CharString name="adblgrave">
          1112 564 -36 callsubr
          61 hlineto
          -781 -773 -106 callsubr
          -107 callsubr
          -100 callsubr
        </CharString>
        <CharString name="adieresis">
          1112 604 1183 rmoveto
          69 55 55 68 64 -49 50 -66 -69 -56 -4 callsubr
          -827 -841 -106 callsubr
          -107 callsubr
          -100 callsubr
        </CharString>
        <CharString name="adieresismacron">
          1112 568 178 callsubr
          53 50 40 52 11 hvcurveto
          54 12 -33 -33 callsubr
          -11 hvcurveto
          -52 -12 34 -40 53 hhcurveto
          -741 -778 -106 callsubr
          -107 callsubr
          -100 callsubr
        </CharString>
        <CharString name="adotaccent">
          1112 805 120 callsubr
          -59 -57 -74 -67 53 -53 70 hvcurveto
          -625 -834 -106 callsubr
          -107 callsubr
          -100 callsubr
        </CharString>
        <CharString name="adotbelow">
          1112 -73 callsubr
          -107 callsubr
          -79 callsubr
          -16 callsubr
          41 callsubr
          161 -736 -83 callsubr
          15 callsubr
        </CharString>
        <CharString name="adotmacron">
          1112 566 99 callgsubr
          43 88 callgsubr
          -613 -779 -106 callsubr
          -107 callsubr
          -100 callsubr
        </CharString>
        <CharString name="ae">
          1472 261 784 143 callsubr
        </CharString>
        <CharString name="aeacute">
          1472 1114 -93 callsubr
          -81 callsubr
          -1116 -697 143 callsubr
        </CharString>
        <CharString name="aemacron">
          1472 725 -60 callsubr
          30 -70 callsubr
          -494 -575 143 callsubr
        </CharString>
        <CharString name="agrave">
          1112 764 -62 callsubr
          -50 callsubr
          -683 -773 -106 callsubr
          -107 callsubr
          -100 callsubr
        </CharString>
        <CharString name="ahookabove">
          1112 845 62 callgsubr
          49 hhcurveto
          70 37 -32 -50 -59 -58 -59 -100 -57 hvcurveto
          68 hlineto
          162 55 92 72 94 vvcurveto
          85 -71 63 -106 vhcurveto
          -665 -1146 -106 callsubr
          -107 callsubr
          -100 callsubr
        </CharString>
        <CharString name="ainvertedbreve">
          1112 812 100 callsubr
          140 hhcurveto
          112 74 -62 -83 -12 -1 -12 -2 -8 hvcurveto
          -69 callgsubr
          -632 -1126 -106 callsubr
          -107 callsubr
          -100 callsubr
        </CharString>
        <CharString name="alphagreek">
          1203 469 -20 185 callsubr
        </CharString>
        <CharString name="alphatonosgreek">
          1203 888 19 callsubr
          -655 -1531 185 callsubr
        </CharString>
        <CharString name="amacron">
          1112 521 -60 callsubr
          29 -70 callsubr
          -370 -1017 -106 callsubr
          -107 callsubr
          -100 callsubr
        </CharString>
        <CharString name="ampersand">
          1479 140 332 rmoveto
          -200 153 -156 248 169 139 89 158 149 vhcurveto
          184 -223 329 0 10 44 -90 46 -80 85 -99 121 rlinecurve
          -93 114 164 210 132 168 48 33 111 18 rlinecurve
          11 54 -413 0 -11 -54 144 -16 17 -39 -103 -145 rlinecurve
          -135 -187 -288 353 -7 8 -7 9 -7 8 rlinecurve
          263 93 120 118 141 vvcurveto
          164 -133 123 -237 -252 -151 -162 -195 -3 vhcurveto
          -2 -100 37 -102 89 -129 rrcurveto
          -250 -86 -156 -147 -216 vvcurveto
          501 861 rmoveto
          127 75 74 113 117 58 -99 -116 -129 -74 -105 -146 -74 vhcurveto
          -108 142 -35 92 88 vvcurveto
          -277 -763 rmoveto
          159 107 90 107 58 vhcurveto
          16 -22 18 -22 18 -23 335 -407 rcurveline
          -90 -90 -87 -54 -115 hhcurveto
          -176 -133 131 180 hvcurveto
          endchar
        </CharString>
        <CharString name="anoteleiagreek">
          497 431 729 rmoveto
          80 65 63 81 77 -62 63 -82 -80 -65 -63 -82 -77 63 -62 81 hvcurveto
          endchar
        </CharString>
        <CharString name="aogonek">
          1112 -73 callsubr
          -107 callsubr
          19 19 91 callgsubr
          100 82 66 38 51 34 vhcurveto
          11 53 rlineto
          -18 -22 -30 -12 -33 hhcurveto
          -47 -36 33 64 104 88 111 170 143 hvcurveto
          11 56 rlineto
          -26 -33 -46 -13 -33 hhcurveto
          -46 -20 31 62 14 hvcurveto
          169 788 -124 0 -108 -98 rlineto
          60 -26 -73 57 -129 -73 callgsubr
          53 callgsubr
          endchar
        </CharString>
        <CharString name="approxequal">
          1188 990 752 rmoveto
          -156 36 callgsubr
          34 88 61 91 157 96 -215 191 hhcurveto
          140 127 96 231 40 hvcurveto
          -90 hlineto
          -154 -33 -89 -63 -90 hhcurveto
          -102 -482 rmoveto
          -157 -96 214 -193 hhcurveto
          -140 -127 -95 -233 -40 hvcurveto
          90 hlineto
          157 34 89 62 90 157 96 -215 192 hhcurveto
          139 127 96 231 40 hvcurveto
          -89 hlineto
          -155 -33 -90 -62 -89 hhcurveto
          endchar
        </CharString>
        <CharString name="aring">
          1112 561 40 callgsubr
          -106 67 -126 -161 -108 -86 -119 vhcurveto
          154 -24 rmoveto
          93 53 78 61 50 28 -39 callgsubr
          -535 -928 -106 callsubr
          -107 callsubr
          -100 callsubr
        </CharString>
        <CharString name="aringacute">
          1112 1116 1476 rmoveto
          32 150 -578 -185 -12 -56 rlineto
          237 -297 rmoveto
          130 96 51 77 16 hvcurveto
          78 16 -73 50 -131 hhcurveto
          -60 hlineto
          -128 -98 -50 -78 -16 hvcurveto
          -77 -17 76 -51 129 hhcurveto
          63 57 rmoveto
          -43 hlineto
          -45 -19 30 41 8 hvcurveto
          42 10 32 30 44 hhcurveto
          44 hlineto
          46 18 -30 -42 -9 hvcurveto
          -41 -8 -32 -30 -46 hhcurveto
          -618 -803 -106 callsubr
          -107 callsubr
          -100 callsubr
        </CharString>
        <CharString name="aringbelow">
          1112 -73 callsubr
          -107 callsubr
          -79 callsubr
          -16 callsubr
          41 callsubr
          -87 -634 rmoveto
          -100 2 14 callgsubr
          4 hvcurveto
          154 -21 rmoveto
          80 -2 50 68 61 hhcurveto
          50 30 -31 -54 2 hvcurveto
          -80 2 -50 -67 -61 hhcurveto
          -50 -30 30 54 -2 hvcurveto
          endchar
        </CharString>
        <CharString name="asciicircum">
          1191 858 1444 rmoveto
          -533 -584 63 -57 499 528 272 -527 76 56 -284 584 rlineto
          endchar
        </CharString>
        <CharString name="asciitilde">
          1188 942 523 rmoveto
          -157 36 callgsubr
          33 89 61 91 158 95 -214 192 hhcurveto
          139 127 95 231 40 hvcurveto
          -90 hlineto
          -154 -32 -90 -63 -89 hhcurveto
          endchar
        </CharString>
        <CharString name="asterisk">
          757 668 1472 rmoveto
          -53 -32 -36 -61 -16 0 -18 3 -29 hvcurveto
          20 -182 19 0 96 188 rlineto
          19 36 4 22 19 vvcurveto
          44 -31 33 -45 vhcurveto
          -283 -123 rmoveto
          -47 -29 -38 -39 -36 22 -34 68 -25 hvcurveto
          187 -68 11 17 -95 142 rlineto
          63 -42 -40 18 -35 hhcurveto
          507 -54 rmoveto
          -36 -28 -14 -43 -55 hvcurveto
          -140 -113 7 -18 194 21 rlineto
          96 8 40 34 52 vvcurveto
          42 -32 31 -46 vhcurveto
          -559 -383 rmoveto
          36 27 14 42 56 hvcurveto
          140 114 -7 18 -193 -22 rlineto
          -97 -8 -40 -35 -51 vvcurveto
          -42 32 -30 46 vhcurveto
          583 22 rmoveto
          37 -22 34 -68 23 vhcurveto
          -187 69 -11 -16 95 -143 rlineto
          -64 42 41 -17 34 hhcurveto
          47 29 38 39 hvcurveto
          -359 -201 rmoveto
          53 32 37 61 16 -1 18 -2 29 hvcurveto
          -20 181 -19 0 -96 -187 rlineto
          -19 -37 -4 -21 -19 vvcurveto
          -44 31 -34 45 vhcurveto
          endchar
        </CharString>
        <CharString name="at">
          2012 1458 -303 rmoveto
          1 56 rlineto
          -78 -129 -141 -22 -158 hhcurveto
          -405 -320 294 466 551 418 375 488 422 309 -249 -414 -379 -247 -201 -178 -72 -39 45 100 20 hvcurveto
          155 722 -91 0 -136 -133 rlineto
          95 -29 -71 59 -111 hhcurveto
          -268 -186 -314 -303 -199 85 -130 155 118 114 87 165 73 hvcurveto
          -5 -26 -4 -29 -15 vvcurveto
          -137 -11 100 -73 146 hhcurveto
          289 277 263 410 440 -343 289 -474 -534 -454 -403 -605 -496 355 -330 437 166 176 40 79 102 hvcurveto
          -549 657 rmoveto
          240 112 311 174 78 47 -55 -85 8 vhcurveto
          -73 -346 rlineto
          -141 -30 -98 -132 -104 hhcurveto
          -87 -27 89 119 hvcurveto
          endchar
        </CharString>
        <CharString name="atilde">
          1112 920 1168 rmoveto
          93 71 68 216 26 -52 callgsubr
          -33 hvcurveto
          -33 -95 callgsubr
          -71 -68 -215 -26 51 callsubr
          33 -84 callgsubr
          -740 -826 -106 callsubr
          -107 callsubr
          -100 callsubr
        </CharString>
        <CharString name="austral">
          1332 85 390 rmoveto
          236 hlineto
          -78 -144 -82 -149 -35 -29 -112 -14 rlinecurve
          -11 -54 388 0 12 54 -127 16 -18 30 76 144 rlinecurve
          77 146 524 0 18 -162 12 -125 -20 -33 -139 -16 rlinecurve
          -11 -54 526 0 12 54 -101 12 -23 29 -16 133 rlinecurve
          -20 162 239 0 11 51 -256 0 -27 229 331 0 12 51 -349 0 -87 727 -146 0 -398 -727 -347 0 -11 -51 330 0 -126 -229 rlineto
          -253 hlineto
          490 280 rmoveto
          261 492 53 -492 rlineto
          -462 -280 rmoveto
          121 229 346 0 25 -229 rlineto
          endchar
        </CharString>
        <CharString name="austral.tnum">
          1206 95 440 rmoveto
          -11 -52 213 0 -73 -142 -76 -151 -35 -29 -100 -12 rlinecurve
          -11 -54 358 0 11 54 -118 15 -13 27 73 148 rlinecurve
          71 144 455 0 11 -160 8 -126 -20 -33 -125 -15 rlinecurve
          -11 -54 502 0 12 54 -88 11 -22 29 -12 134 rlinecurve
          -14 160 207 0 12 52 -224 0 -19 228 291 0 11 52 -307 0 -62 728 -154 0 -370 -728 -310 0 -11 -52 295 0 -116 -228 rlineto
          223 280 rmoveto
          239 485 32 -485 rlineto
          -408 -280 rmoveto
          112 228 299 0 16 -228 rlineto
          endchar
        </CharString>
        <CharString name="b">
          -51 callgsubr
          endchar
        </CharString>
        <CharString name="backslash">
          669 472 -288 rmoveto
          105 hlineto
          -103 1876 rlineto
          -106 hlineto
          endchar
        </CharString>
        <CharString name="baht">
          -9 callgsubr
          155 -124 110 -248 28 rrcurveto
          48 226 -51 0 -47 -221 rlineto
          2 -28 -30 1 -31 hhcurveto
          -464 hlineto
          -12 -54 rlineto
          124 -14 14 -21 -19 -89 -220 -1028 rcurveline
          -19 -88 -21 -22 -130 -14 -11 -54 rcurveline
          497 hlineto
          19 19 0 1 18 hvcurveto
          -47 -220 51 0 48 222 rlineto
          374 25 224 158 237 vvcurveto
          -545 900 rmoveto
          93 -3 rlineto
          29 -1 27 -3 25 -5 -117 -546 rcurveline
          -1 -12 -13 -1 -13 hhcurveto
          -137 -1 rlineto
          487 315 rmoveto
          -151 -92 -122 -167 -32 vhcurveto
          112 525 rlineto
          98 -35 49 -76 -109 vvcurveto
          -500 -376 rmoveto
          136 -1 rlineto
          13 13 -1 -1 12 hvcurveto
          -134 -629 rlineto
          -25 -3 -28 -2 -28 -1 -96 -2 rcurveline
          560 358 rmoveto
          -168 -100 -132 -230 -42 vhcurveto
          131 613 rlineto
          130 -33 69 -102 -136 vvcurveto
          endchar
        </CharString>
        <CharString name="baht.tnum">
          -4 callgsubr
          154 -114 105 -230 29 vhcurveto
          48 226 -51 0 -47 -221 rlineto
          2 -28 -29 1 -31 hhcurveto
          -447 hlineto
          -12 -54 rlineto
          121 -14 13 -22 -19 -88 -219 -1028 rcurveline
          -19 -88 -21 -22 -127 -14 -11 -54 rcurveline
          485 hlineto
          17 17 0 1 16 hvcurveto
          -47 -220 51 0 48 222 rlineto
          357 25 215 158 237 vvcurveto
          -511 900 rmoveto
          87 -2 rlineto
          29 -1 26 -3 24 -6 -116 -546 rcurveline
          -1 -13 -12 -1 -13 hhcurveto
          -130 -1 rlineto
          460 322 rmoveto
          -152 -85 -124 -155 -35 vhcurveto
          112 523 rlineto
          85 -36 43 -73 -103 vvcurveto
          -473 -383 rmoveto
          127 -1 rlineto
          13 14 -1 -2 12 hvcurveto
          -134 -629 rlineto
          -24 -2 -25 -2 -26 -1 -95 -2 rcurveline
          534 366 rmoveto
          -170 -97 -137 -214 -43 vhcurveto
          130 611 rlineto
          119 -34 62 -100 -127 vvcurveto
          endchar
        </CharString>
        <CharString name="bar">
          669 221 -288 rmoveto
          105 hlineto
          399 1876 rlineto
          -106 hlineto
          endchar
        </CharString>
        <CharString name="bdotaccent">
          1111 656 1633 rmoveto
          74 58 57 73 69 -52 52 -71 -74 -59 -57 -74 -67 53 -53 71 hvcurveto
          485 -988 197 callsubr
          endchar
        </CharString>
        <CharString name="bdotbelow">
          -51 callgsubr
          -361 -1063 rmoveto
          68 55 52 65 -1 hvcurveto
          62 -49 47 -66 -69 -55 -52 -66 1 vhcurveto
          -61 50 -47 66 vhcurveto
          endchar
        </CharString>
        <CharString name="becyrillic">
          1121 1137 561 rmoveto
          236 -138 199 -242 -206 -160 -131 -196 -79 vhcurveto
          14 314 112 192 358 28 13 1 95 7 14 1 258 17 91 81 42 195 rrcurveto
          -53 hlineto
          -22 -53 -58 -18 -156 -6 rrcurveto
          -554 -18 -263 -421 -517 vvcurveto
          -317 148 -175 255 328 203 278 303 vhcurveto
          -241 85 rmoveto
          -261 -100 -335 -187 -109 -58 98 183 260 100 336 188 107 59 -99 -182 vhcurveto
          endchar
        </CharString>
        <CharString name="betagreek">
          1147 48 -460 rmoveto
          245 hlineto
          103 561 rlineto
          -67 49 109 -54 119 hhcurveto
          294 191 207 256 9 hvcurveto
          9 207 -113 170 -233 24 247 45 123 140 5 176 rrcurveto
          186 7 -136 115 -220 hhcurveto
          -260 -161 -157 -341 -73 hvcurveto
          249 94 rmoveto
          222 49 55 108 131 hhcurveto
          93 60 -71 -151 -6 hvcurveto
          -5 -191 -98 -137 -213 -4 rrcurveto
          -35 -166 200 -6 93 -103 -4 -199 rlinecurve
          -205 -4 -138 -131 -168 hhcurveto
          -88 -73 35 65 -51 hvcurveto
          36 169 162 747 4 18 rrcurveto
          endchar
        </CharString>
        <CharString name="bitcoin">
          -9 callgsubr
          129 -84 97 -170 46 rrcurveto
          53 247 -51 0 -51 -236 rlineto
          12 -60 -70 6 -78 hhcurveto
          -7 hlineto
          46 218 -51 0 -47 -218 -405 0 -12 -54 124 -14 14 -21 -19 -89 rlinecurve
          -220 -1028 -19 -88 -21 -22 -130 -14 rlinecurve
          -11 -54 406 0 -47 -219 52 0 46 219 rlineto
          40 hlineto
          64 60 3 7 57 hvcurveto
          -49 -229 52 0 49 237 rlineto
          299 49 174 147 209 vvcurveto
          -176 654 rmoveto
          -177 -125 -136 -225 -1 vhcurveto
          -137 -1 118 561 93 -3 rlineto
          185 -7 91 -87 -149 vvcurveto
          -77 -658 rmoveto
          -198 -139 -148 -325 -10 vhcurveto
          -96 -2 137 640 136 -1 rlineto
          187 -2 100 -115 -164 vvcurveto
          endchar
        </CharString>
        <CharString name="bitcoin.tnum">
          -4 callgsubr
          128 -78 94 -158 45 vhcurveto
          52 247 -51 0 -50 -236 rlineto
          12 -57 -66 6 -74 hhcurveto
          -19 hlineto
          46 218 -51 0 -46 -218 -377 0 -12 -54 121 -14 13 -22 -19 -88 rlinecurve
          -219 -1028 -19 -88 -21 -22 -127 -14 rlinecurve
          -11 -54 377 0 -47 -219 51 0 48 219 rlineto
          56 hlineto
          58 55 3 6 51 hvcurveto
          -49 -228 52 0 50 236 rlineto
          288 48 169 147 211 vvcurveto
          -169 661 rmoveto
          -179 -118 -141 -212 -1 vhcurveto
          -130 -1 118 561 87 -3 rlineto
          170 -8 85 -83 -145 vvcurveto
          -77 -657 rmoveto
          -200 -136 -153 -303 -10 vhcurveto
          -95 -3 138 640 127 -1 rlineto
          176 -3 93 -114 -156 vvcurveto
          endchar
        </CharString>
        <CharString name="blinebelow">
          -51 callgsubr
          -623 -1012 -66 callsubr
        </CharString>
        <CharString name="braceleft">
          669 671 1039 rmoveto
          60 278 rlineto
          144 31 47 67 165 hhcurveto
          12 60 rlineto
          -48 hlineto
          -230 -143 -100 -200 -44 hvcurveto
          -69 -323 rlineto
          -154 -33 -97 -74 -109 hhcurveto
          -11 -55 rlineto
          109 65 -70 -170 -36 hvcurveto
          -80 -378 rlineto
          -208 -44 91 -144 231 hhcurveto
          48 hlineto
          13 60 rlineto
          -168 -5 117 159 33 hvcurveto
          64 294 rlineto
          46 217 -66 119 -187 31 206 27 103 96 46 207 rrcurveto
          endchar
        </CharString>
</ttFont>
